<mxfile host="65bd71144e">
    <diagram id="eK-wcWdgYBPO4dCH84We" name="Page-1">
        <mxGraphModel dx="760" dy="390" grid="1" gridSize="10" guides="1" tooltips="1" connect="1" arrows="1" fold="1" page="1" pageScale="1" pageWidth="827" pageHeight="1169" math="0" shadow="0">
            <root>
                <mxCell id="0"/>
                <mxCell id="1" parent="0"/>
                <mxCell id="2" value="" style="shape=image;verticalLabelPosition=bottom;labelBackgroundColor=default;verticalAlign=top;aspect=fixed;imageAspect=0;image=data:image/png,iVBORw0KGgoAAAANSUhEUgAAAggAAAFcCAYAAACtC0YfAAAAAXNSR0IArs4c6QAAIABJREFUeF7sfQecG8X1/3d3terS9epy7gUbGxuDMb13E3oIEAihJRBqEiABElIIpAKpEJL8Q0hICBBCSEINphdjXLCxzbn7fL3fqUu7+/+9Wa200kl30qmc7qwBf+5Omp3yZnbed77vzRvu/Bt/q6CYihIoEAkMOxlTnKkcJ4OHBDPnhcCFYEAIQOKHt2z8EO+u+jeOOuooiKKIjz/+GDzPw2Qy5U0iiqJAlmWEQiFIkoQDDzwQ9Nmbb76JCy64AMuWLcN7772HkpISnHXWWaiqqkIwGER3dzd7zmg04sUXX0R9fT2mTp2KJUuWoLm5GRzHYfXq1di+fXtaffH5fKisrMSXv/xlzJw5k9Wxfv169pPKpH8LFy5Ef38/rrzySni93kj51G4t8QCuD7pwcNADbpixaxJE/MBSDq0Up9OJ448/HosXL8aKFSuYTAwGAxub5cuXY2BgAJ9++ik++OADvPLKK5g7dy5ra0NDA8tHbejp6cHg4CAmTZqETz75BNQnktnDDz+MPXv2pCWPwszMISjYAY4rzOblqFXa/KK5KMsSGqqcaG9rTVhbVVUl/vbkX0FTkvN2wr9zFQRLCYQZp4CDAgWa7NTJSfOaZWaf0/fqb2ri2P9fuvY6bNu2LfpZ+DeLxYLPnP0ZPP3UM6ipqcVZZ5+Fl196Bdt37ERNTQ0OXX4oPvxwDVpb2wHQm0Et4HDccUezev/3+tvh9tB39DWP0rIyrDz9RJjNZvj8ATS3duCVNz5AfW01Dl16IN7/6BO0dXVD5tTy6JnyUicMohj5e/H8WXjp7Y/Y36wvHAe71YLDly1AZVkJ/vL8G6y6w5fMw5IFM/HrP/8XCptTas+5IkDI0UwuFps3CchJaiKlRGBB5AIwwwOek8AjNncigHD++efj7rvvRiAQyEsfqJ7Nn2xmSv7pZ55OChDKysowb9481NXVoa2tDSeeeCJbXN555x1s2LCBKVNS6IIgoLe3lynWvr4+vPXWW0xpkvKkzwhQuFwupvATpWwBBCq7HDIcw+gw+soHDh3gIxCO+kQA5Qc/+AFT8KToSUb/+c9/8KUvfYkpfwJxP/rRj/D+++9j2rRpuPrqq3H44YezvlNfW1tbmZwIDOzdu5d999JLL+G3v/0tA1bjPxUBwkgAgVNk3PWtu3HMMceEdb6GUlVlr4GNsOrUQQYNINA3UWS7ffsOXHvNl8DxYSWugw/R+RRVrgyAhAGcwkCBlsIKPQwSIgqZ5Q2/BxwPhSl+nil+FQCooIJ9rilx1pbwZ1p94fxqudqzGshR26ewd1IDIyrov+WKz+Bnf3gu/B0HnkBFESCM/6Wi2IORJcBedE5mrIIJXnBhoJAIIHz+859nysfj8SRVoiPXmHoOv9+Pj9Z8xBTgk39/MilAsNlsoH+nnHIKU/bEErjdbrabf/vtt3HooYdi9+7dKC0txY4dOzB//nzGSuzcuZOBgoqKCqYcCUSQsiQgkEuAIHLAZUEPamRicJKnfp7HH0UHPOEs5eXl+P73v48DDjgAu3btYswA9YcYgNmzZzPgcM011zAZ3HjjjQxM3HXXXaiurmYAgUARyYBAxJYtW/D666/jiiuuwLXXXsvKmRipCBCGBwiqSqb35alnnmbzQiUGVIUfww5ozEH4ZyxzEJ4tHIfrv3wdtm9T548KrRMh38QAIaL4I89pyhs6BkB7VlX4qoKnduuVfPhz7bMwcwA+DC7CwCECDojxY4BAa6sGWnQ/SR4xTFQ4Lz17QZyJIUUWd2K8Y8Ve7JcSUJkEMkG4sX3ju3h31fMxJoZLLrkE9957L7Zu3QpS3rlOBESe/cez+GTzJ9i0adOwAIEWOjIxEBNAO2liAcj0QDts2gUQ3U9/E3DQzA/0mWYaoF0T/U7PJ0vZYhDMHHCvtwe1UnBYEfZxAr5lrURPeJEiSpV2/A6HAxdffDFqa2sZ0CGWpLGxEf/617/YZ0TdEjty6qmnsn/U3ylTpuDBBx/Eueeey0xG9HdLSwuTCYEEYlYmRioChFQAAukzo8mEM047Feecdx7I7CAajao5gSEF2jgktkCGJImxV2++8Qb+/Phf0NPdDY4pZg0gJAIJcQCBMQAq5IiaNLQ80R08AQg5Qu1rypueFaKfR5S/jlXQWIMwk6CyA6q5QWMd1A4SsAi3V2MPwn9rDIqKXXRAgv6MBwijfXmKwGK0kis+N1YSoFd256ZVWPf63xMCBNp95gsgPPPMM9iyeQsDCcl8EGg3lI+ULYBAS9RMhGBLtjiEFyiCYNs51VNES8QOEAC46aabcNhhh7Fx6OjoYEqfAA/5EpAPAqULL7wQl112GaxWKwM+9I/YhlWrVuGEE05gu8iPPvoIt912G/t8YqQiQEgFIGhjTcBYM7ORiWAYq1dkelD+IAFpWWZsVDSphoew50LMdDr99NPx3/++GC0jrJzDDgC6Z6JsgWYuYKwBy6gHCCqLoCp99buoz0GYhdC+04OCBOYFKkPtt8ZOqKaWiL+BJhX9Z9kCCCO9dEUAMZKEit+PhQR2bnoD61//axEg6ISfLYBg5ICb/QOolYY3MfTxPB40l2IwvEARS0KMAJl6yDRit9sZW0LmEwILxCT8+Mc/xr59+1ir6XsyMZCJhXwOiDW47777GANETND06dPxl7/8BY8++mjE7jwWcy27de6fAIE5Dyqks2UosoTJlQ50trfFiVbVNnqVnm3ZU3l6MwM5KV5y6SWorKzC+nXrUF1Tg23btuO99z6AQlt3xiJofjY6cBABA5pvQPgnYx40JoAAQrhHGssQMUHEgwkOiPglqGVFTAxhdoDBhBhThCadKPuhAYesMQjZHYDY0orgIpfS3b/LLgKEoeOfLYBg4oCv+fpG9kHgBPzUXIb+8AJG7MFJJ53EfCvoJMfKlSsZgKMdHbXtu9/9LjtVQWYV7WQFOWjeeuutzPxCeR566CEsWrQIxx13HPub8t5///3suYnBIiQHCGxfyXNMT5CSDEiqUs00UblWIw9fSIEkDy0w0a5c5xaY2GSvxPoDDNdMq8gjIMkISQoEjgCCjKpSG7o66GSAPuUHIMSzCOQL89MHfooHf/YQNmz4GLd+9Rb89pHfoX9gUMcKaMxD1FFRbwqIniAIgwPN4ZDt+nXOiXpzQ9gPQTWb6BgInTNlrCNkmDWIgI2oK2aUW1HZBe6Cmx5JfeqoMGbcpNQ7Nm66VGxoliVQBAi5Awi0BFZCRtIDo2Eqk/iFTuYVoqY5c+YwJ0Q6wUB+CAQMyFmRfAmIJaDdGp3CIJMDOXYSALjqqquYE+bGjRsZSJgxYwYzSzz99NP48MMPcfvtt7PvCTj8+9//zovzaZanalxxQwECrfd2Mw8Dx0HgAX8I8AZkhHTKnBHWPMcUfFLLD3nLK1G/e+2sC5VfZjPA45PhC8WegOHp+JyZZ/Vq5QoAXH4Z/pACq0mA2RBr6ycQ4wko8AQkmEUeJgMHj19GMNxeKpNaqYGbMqsAX1CGPyjDLALBUAjldgu6u7p0zFDsMdusjUESpKNJwW534LeP/ha/+fVv8NZbbzNFffwJx2H9+o/R3U1+L2HdGbHxa+YETVlrpxH0Sl4DBNppBs3ZMN7HQHNcjHuWOS5qOlv1QYiCCI2RUJkNliIMQ7hNxD2kBRBGK+1xBiyom0VwMdrBHl/PpQIQPlz9IfOGz2YiW/rZ55zNlB05KY7kg7B27VqmLPORqD1U12jiIOjbZ/6/t+geby9qQ8Pb/fv/T6vcY6tEb3idIAfEM888M2JWoCOdnZ2dEYfMyZMns5MYs2bNYicUyCdh6dKlIBnRKQXyXTj77LPZyQ6KnUAOjlQmHXejeBJkhtDHa8iHTLNfx1CAQAqVdAKt87TTD4SIPZDZYiaRcyoA0cDBbuKZ0jaEgYI7IDMlLAoczIJaAIEKUiaMtQnKqtc/B5TbDExBk2KX42gJ/faR8jrMAvxBJQImBJ3CJ0BgFjn0eyUQHqBn6TOjwGHAL7N+OM08AxhBSV2NCSDQ726/xNgD8jWpKbWgr6c7twAhXhnobPQai2A2W0DxO+bOmwuan7Ik49jjj8ONX7mZMVZRuKW3+2vmBE3hq/EPIvyHnjEIH3eMMgwEHtT8EcdEOpioYwW02Ahh7Q/1pIM6vtGxIuCgnduI9Ulg5om8AIRM3o5xBi6KwCKTwc7/s6kAhBdfeJGdt89mokBMN9x4A7OfjwQQjj76aLz88svMQS8fiRQqHTG86KKL0g6UpG8ftfbCoBsVSvITE5R/kOPxd9EGd3jZokWO/BDUYDiJYzWQ0xjlISXBdrs8HzmZQc+TmYL6oQcCWpnjHxyoO7z4QElGQd3Bk46wGDn4ghSAC0wBB0IyYw5MIgejgUMgqMAgcIyuJ4DA9pPEAph49hmVQTt6+o7AhLbBJIBASprUEu30vQmAgpbXGQcQGCgwcPBLSpgtUFQAo0vM7E5+JWY1noXLp4ITDSCopg0FwZAMty+IcpsI9+BAeJ7Err5Z8UFITrNEWq35IpAzLPm7+Px+mIwm7NixM3yUmJgQXeyECMCIMwlE4hlQD3XsgeZwGAMGNEUfBgrh/NrxxoifQcTsoM6ZaPwEDSJozIbWHdXIoB17LHyAkMqKOI5ARBFApDKg+cszHgACRVN88/X/5XXXazGbsXDRYpx3/oVpRVKMHzlilUdaqOmdSB7rMn9zYXzVlNwHgZgAUvT9XnnoLp8DSi0CU/okd2ID9O4E6g5UgdnAMyAx6FN3+JrS10wMxDDQ9wQWtB0+26DqUjyDoPowcLAYebj9CrzBoeCAzCNWkzpj9HVrAEEzMRgFhbXdxMtQQn6EErBUI827Ecd72MVa222rbHMYQoWLjFO+2jFDVYq6kwM6gKBX3mFAEPUbCJsYwr4GKo7WMQdhEKAewYx3QNTHO9DVHY6PEJGBBlqYP2U4H4uDkI4PwogSHWcZisBinA1Y9pubCkCgIEbkEZ/NRGzAyrNWpmRiOGz5IVhq3YZJ9bVhSjGbLUlelqFiNqoWfyYjgJCflu6PtSQGCGRC0Jz5aHefKNHOnpR6vILWQIBG9bv9cf4L5INgNYA+9yfwQbAZedWBPpzIhEF59f4KjB0wqVQ4AQCthUYDD4uoshjkO+ELSHExT4FSK5ksyLxBJhFiRyTwsh8OcpyMC/qlt76nPTtS3sVFd99DAyfpWxAFAqxovTMha1x8zAK9ko/3Q9AYA/V0AouuGBM0KXqqQe9vEOv8qLY71h9BwzZ6lMfv5wAh7Zmje6AILjKRXsE8mwpAyHVjRzIxEEA4dcYgKvvfgOxWj/aNJnEc7eeJuk0x+NOUlbAf//0iQBiNsHP+TGKAQGYG4ga0XX2iZpgMKo0c72hIeZmDY9j0QH4L8ckSPkkQZxlQFU5cbEFSQOSnMMSEH3aWk3XUheY/QXUmO3FBrAaZGMgswcxEsgy/34faEhNcLjopEE2jZg9SBgdaj6N1yjrfhFhpRB0F1dzaTl5ndtDYgcj39Ew0IFKUTSDXTw0EUGYVQKgxDmLNDcyHQG9i0AGTSOREjX2IH2jNYXG/ZhBy/hInqWCcgIu03pWxkmWG9Y4fgOBCRdfzkAY/Hl2POSPsB98NwTkFg2/dBjnYMWI5/PQrYD/pgSJAGFFSY5Fhf42DoEY/pP8IYEhSEFV2E9yDfbq7FcJhBxINS5wZJCbLqBa82AJJ8SY3N4zgh5DAzBBrMtBOMwxlETRnxSirMNS/gUGT+KOQOsASE1GR+SGke8xxLN6DYp2xEiiCi6zOiFQAAt0GuGvnrqzWS050xx1/HLs1MjUGITOAIDgORNl5/wBvrcDAS7fAt+OxEftTBAgjimgMM+zHAIFhBDUyIgVLUkIBVDvNGOjv19Rd6uOi99EbASAk/1oPEtSLkKIgQe+PoFfaGgOhZxfC32s+BhHnRO1z+kl3M+j/1rEEMZ9HYyYwr5KIn0KYdYhhKsLi0gdS0j4qMgipz6VxkXMcAIhRAfUcCT8VgDDWpxhUE8PoAQLHW+BY8UOYl14JjhcQ3Ps2+v59EeRg17BSLQKEHE26rBRbBAjMzBD2RRAhocQqwjUwoDvCl5qghyMV4ktIDyTE+yFoyllDJXrwoGcXNPOC5megxSmIc1ZUKYGwmSFcNrNexAZUijADkeBK0XapjIMGVtSflE09+MiBu/Dm5IGSkl2jqwltuDveUxuaYq6CksB+CC4mJkDgwVumQrBNBW8uh1AyA7YVt4K3VbHppgS98HzwEIKdm6D4eiB5WiG5twNK7PXWRYBQUG9nXGP2b4CghVxWFDXOgyyFwMlB1JRY2UVlUtwR12QjmQ44YO/OsFNCr/BV5a2ecIj7PP4K5oj3RhgQaKYGTflHTA9anIMoAIgyA3Gsgt6nIcYPIRwrMe74o4oRotKIHHMcDiBk+noUAUamEhwnz49jYJEKQKBwvxvWb8jqYNAdA5d+/lJ2kVC2TQy8WIeSMx6HWL8UEEzgeHJOTJAUCYoUgOzuRN+zFyHU/1FMpiJAyOqQZ7mw/R0gqGYGprQVNdATBU8KBfywmzjUlJchEPDD7/MhJIWgUORIzSwRfi4tcKAhg4j5INFwxgOB6ImF2KOQ6qmFqFLWmR5YsdFIidrtkZozYoQxCOfRl6H5F8Re9ayVF61DxQH644+6vsQdfxyWQcjyjE67uCLASFtk4++BMQYXBBDWjXBZE7sYJhvB7ONGh91RD2QdIICzwn7I3bAech04g3n4OaHI8G97AQP/ux5yoLUIEMbNG1QECCo4CGvusPKXFZmxCbIkgZcCsIscvD5flEUfQgGkY/BMBVLozQphxkG3M4893aAyAWqpcddBD3Em1MwSCcCFptQjpgK1DVHzgcY4hGGJzqQQOc0QY5jRWoThTQyF/q6MNLQjfV80kRT6CI/QviyAi1QAQq6llG0GgS03hnLYln4NtmVfBkRr4i4oMnxb/wXXu3dDcm0bQqAWGYRcj3wm5Y8MEJjKSbAIqk50qSi7oe3jcwCUM5ECAwlE5LN+0skGLUaCDCkUhN2gQA4FVJNDJhXpH04qukRfRAGDFgMhelog6msQvTNBAwpapMT4QEdRnwO1HH1ExURmBh2rEQYS0XaoAoleAx1mFqL8xvgGCJmMtzqdRlJAI2Uofl/QEkgBQKQCEOiioNbW2N11pv0m9mDJkiXsOuNcAAQNJNhXfBfWpVcnbG6wfQP6n78UknsoOKAHigAh01HO5fPDAwRekWALeSCSGSmuGQFehFewQGYBdlJLpLYsIR9McooxNFIrNqu5mJmBgQX1CCSxCXShk+n/rgOnyI8smFIcwBlRB2gtTBsgJDA3sLL0ToEJAiRFFH74uGTYD0EPBqKgQGeKiDsiGc2v1hnrjBhtQ9SBUQ8OdL/n0gchq6NfgIWNOLlGzFCAndrPmrRz45sjmhjG6ykGjjPDuuQO2I/6RmKA0LIOvc+eAiWkHg+LT0WAUMgvw/AAwSJ5YQ+FqfW4btCy5OUN8BhsKYEEFRx4YJMCo+Qd8itHdolUxOSgIES+CbwAs8MOvz8AiViGOLOhaqoYZsFWt92xHUnIJMQDgwR/Ryh+DSDolHiMb4AWAEk9yqiyPvF3MGjHHKNgI3IPwxA/h6hPRKz/g1Z/uHs6E0RB+yDkd1rlt7YRpqOKNYsAI+eDsnPTm1i36q846qij2GVIdPvfJZdcgnvvvZfd4EhXBo9bgCCUoOSER2Caf05YjuGbe3jV94GcE3v+cgQk757cAoTRsdk5H/uCr2DY9z85QCBx24IuWOXkt2imChIoLqMl5IZVCo4LcKCNadSBUb11kkABmR+8gQC8CgfRZGSXfdGV06mm6HCk8kx8Hv3fKjtASj9q7adWhK+AjmTVzBPq0cOI/4JOgUejJUa/jz+6GPNsBOfEtkcvg+jz49wHIdWBnYj5RgIYRXCR2qinAhBWrVqFtR+tTa3AFHNRgKQrvnhFTk4xaE3gxSqUnf8iDNULILva4V77OyieTtiWXA2+ah4Q9KD3qbMR7H4nNwDBKUNZ4YEiFJFuitMiNpvMQXjbBsWV2LYdf5uj9jDltobcbMc/XKJR8fEC/IJxiE+CVqNRCsAihxKCg0If1QhIAIEDutWSHBhlBCQJprJy9Pb0DDE5jGqcIg8lUrpxn8Uo93gTg+ZEqPcbCB9LjDnqqGp5LbwyKXT1fqXwcxGnRfo7lqXQWJDYexhiYUrUDFIECJnNhwJ+OpWXd7g8+wvASAUg0JXC9C+bSbuSmH7mzAdBcMJ28J2AHISv8SlIrkYoigTeUgdTw0qI9cvgfv8HkNyNOQEIXLUE70WdmGJpgJ23Z1N8E76sXqkXbb5mWJ+ogdyVyFdgeAYhFYCgCXG402LaHjZe4HQJs6qQUllpxna42PFGUqIEECg8M93hIIVgcpRg0OVi5obspXiTQmTLHjVRRE41hJV35M4EPUsQvYwpyhzEfxYNnRxjVtDHT9CHVw6DE3XUNFOFrn0avtDxGkUTQ/ZmxoQqacTXfsQM40McqQCEXPckVwCB7Sl4GxS6TFn2xXaDE8DxDijSABkbcgYQpIsHcF3VVzFFnJFrMU6o8ncHtuF33b8A97g95wAhXcFp1y/Fx+5Pt5x859fiIJDJgcwNvlAIBpsdBHYC/gBCIbp0PNM0HIsQ3eGrtYQvWIpxXFQhWfydCapu15schuaLPqMFVArXMeTCpnimQs8+6AFNkUHIdDYUn08igRHxw4gZ8iPaCQsQOBME23RwvAjJ1wmDYwZCfRuhSC4mWN5YD8HegGDvakBJvDBm6qRIDIJ88SBuqL4DDeLM/AzoBKmFAMJvun4CFCRA0NTb+BO2yiaE73KQZdDtkX5JgmixQjSSqYVMERRUKRz7JK11Kplvgg4YkLJmd2LH+h8EQxKkkMpSRnwAOJ7d1UI3XYoGEXYpCENICj8ZNgvolH+ykwqRMlnvoiGdo+EZYttd9EEYf/N6v2vxSKRftkwgExUgmGdcBtvym9nlTIq3H5y9Cr4tz8L70a8BkwPGqoNgWXo1Bl79KpSgm90SqcSxDEWAMHavXREg5E72egdGPWCgGhMFRNMwAnMszKBZ7KZHmw2CyRRTCrEZ+/btY0ep9fUTOJg/fz7MZjMOmDsXF1WXw/S3x2DMsrlzuC4VTQwZDHjx0cKVQKoAY6ICBAqUZF/+bVgOvASyfxCcYEDPE8czmlIoXwTn0feAL2uA570HEGh6C8Gud6DInpgBLQKEsZvfOQUI2tZRHxOAIW6Vmo5RkgkCI2kKM21lGa4jPhZB1qScqF/DFB51YlSvkGYAYRhGlPLTbn40iTETRhEGhzPmzgMqiwDC3r170dLSMgQgLFiwABaLBQceeCBuvfpq7LrpGlTt2j4EqKjjNlwPwqyPKILjecj+1OJZFAHCaEa7+My4l4C2ELA4CHHHHFeeuRI333Iz3nzjTbg97pz3lWyfjZ82Yvv27fi08VO2GNBiRHdAXHDBBUj3NkeOM8A892pYDvoiDBVzmZMi3Rfv2/AnuNf9Gqa558N28LXgRBuk7kYMrLodwc53AfJV0KUiQMj50CetIOsAgefBGY0AHesTBCi8AC4YVOMFBIPgZAmwWtl3zOU/vEtVtOBCOs2ZCCBwvOpVDykMzZki1SIchrtpMICzmNWPqe5AIPYUAVHvogE8KTD6ntqgbdsFAyCFoho83j+S+mWxAtQXejYJG5BI4BHFqlf+CYAR9WyIuyi1mfpF5gmPR1X+CXb4Mp0scDrB0xjEJQIIO3fuQktLM/uGHX/kOGZeWLhwIQMIixYtwjduvx3dzz4F6cH7YQnqTqgYjbCdcyGC2xsRaNzKAAADAV4PFH8AnNkMzmimJQCmw48CX1oG36svQfZ4ILsGwRkMMJ94CgwN0wGLhbXf88RjkLs6wX32lsS3ORZgRM2xe1uLNU9YCRBAWBsHEI499lhcftnlePHFF+FyqTb7XCY6fuV1e7Fn7x7s3LUzY4AA3grboltgWXoVeKMDnCBCDnoQ2rcagebVsCz8LFMCQlkDQr27IXs6MfDKVyB5Yk8zjAVAoMWSiFz9+XQCS1rwG7q8hu3keM2RKzoy5KFOKf5sO+VXHbho7ZPZGk5KSEv0HOURhOEjCzLbtazWneuUdYBATutEbYsEEsKx+WmRDwVBIIAUCilYhXaYpIhpj6rZ4b1elo+dpdPtsmPc8Ujx8wIUAtQkKIsZHIEP2qlqSp5ACclYFNn8U3z0nTpmnFEEzGb1bgIaY/qe6vR6wRFoIfDidkMhACIawIlGKF6PWjb9TX2jfxrooXmkfU+akerRGhyeJ/oxVIyiCqDCmRRS8nGRF4eYGEgRm03gTGZVjuRDQPUG/ENIElngIZSWDWEP1DkpYdu27ejs7GCnLLT5SaYFAgj086CDDsKdd94JubMdrRecDrs7yvbxpaUo+fqd8L/9Jgxz54Ivq2BK3vv8PxD4ZBOsJ50KcfFSFThMbWBsYmjjegR3bof3v8+zcTZMnwnDzFkwn3QGQtu2wP3Y7yHTvEgGELLyAsQByKyUWSykKIEsSiARQDAYDAy1U5AkVWHlJ9FCQfVlyiDQVsFUfwYsCy8D76gDby6F1N8E/9634G98mq2BhsqlsC77MgZe+hIUJQjZ10qRk2I6mi+A4PH6MDDgYcfP9uztgMVqQm11GVPY5aUOdHX3o2lfJzy+AMpL7fAHgphcX4nq6jJG+bKwurKMXXvaYDQaUFdbwRQH/e71+bG3qROT6itZFL0tjU2wWU2YOrkaZWUOpg6amjvR1+/C/DkNbLEO0ULPc7CYjWr5agxfuFxe7GvpwuyZkyAYeAhhkNHX74bL7WHtoKx1tWUwkhLMIGUfIHDgSMka6GbPsKojIEB9oJ0vfWa1MeXBjv0Ry+D1MMWrDAyQ516kNwkZBLNJLZuUOGUwCODsDigEsOl0gMCBox2OzmMtAAAgAElEQVQ+1UdsQDAIxU1gghQ3B85uV5kMg6DuwANBcE4H5MFB9VCe1Q54XFBCMhsbzuFUwQcpcXqelLvJCDDFqTAgx8ompehwqOwDBQgjRe5NEHLZbAbvoKO4YRBEZQ8OxNgcEjIIBIRMZiihUJi5UBiLQn/rk2wwgBS5BlT13wWDQWzbvoMBBO3IJQVx0gACrUUEEO666y6gvw97zzkFJf29kSKE2nqU3PMD9H/nm2q9dO8E3WBJspAkcBYLhLpJsH/hGghTGxDcsgmDv36AgS+Wn5wgZ8+F7Wq63E2E9x9PIti4BVJHR44BQgYvSMyjRaCRLUkWy4mTgB4g0L0IjY2NWY95kI7QaWc7Z84c1obRmhjYjox3gBMrQOYGLcmSC0qwXV1weTt4YzUk3+6cHnNM5RRDb58L23bug8vlQ0/vIHz+AKZMqkJluRMzp9ejpbULm7buxaDLg/raCvT2DaKi3InSEjvmzp6M3Xva8en2JlA5TqcVVpMJ06bXYe7MSUxpb9q8C919g/D5AigtcUAUeLR29uLkY5ey+tZv2gGPx4+amjL09bkYKPAHQ1i+dC4DHp9u38dAg88fZHVXVpSiosyOQw+ex0BMZ1c/evpcaO/sRX+/Gycdt5SBi0xSTgACbU1JkRMd7veDC0lQyLRAypQUs4muBhegBAPsJ1P4pFB1u1XqU0IfBNqBEwNASp9iDsgh8I4SxgKoO32iMBRwNrsKElzuiDJk7EWJExh0AXY7QKCAlLvToYIIWWYAAoyd4KBQVEeizK1WyKQoqWyblfWL0+h9UtJhAEIUOkpKAOpr/0DiuAckG1L2Nptq/iBwIMV6JAwBCMRc2GwAgQliZkQRClH2BH7iWArZIDBqPxFACAQC2L5jBzo7OtiUUdmsJAChrw/7zjkFjgEdQJg0CSX3/xyun/4A1gs+h4GHfgy5g97zcOI4mI86FtbPXQa5q4ONc/89d0HxqOyoaekhsH/9Tsh9fQisegV8/SSIBx2MgW9+dZwAhEzeNN2zRbNJlgQ5gYrRAwSr1ZqTa53TFRctInSxTCYAId06E+XPG4Pg8eH1dz5moKiszImOjl7U11UyoHDEoQegua0Hq9dsgT8QgtlkBC2ok+oqYTSKOOyQeUxhvf3eJgwOejB1Sg2mN9QgEAiixGljdDWV43Z78ea7n8BmNUMQiHWQcdzRBzFFtPbjHQgGQ0zRk/ngiOULsGXbXsycVoeqylK4PT7s3N2GtvZuxiaccPQSGEUDRFEFX3Qh0MZPdqGlrQeHLZuPslIbW+AzSVkHCKS2yb5MAIEUOAMBPBS3S1WEAu34bcxXhe34iSa3O8BRICHyFdCvo5re0X1GPghwlgAS2f85KIMu1d+AmAgCGIQPCBxorglkQycTA4EGUs7kvBdmahjrwOzmIpSBMINAZZPJwSAy5a1wPDibFYqLQIPM7OjMt0EKsTFnQMPnhRIIMmaB2AwyecjEhgwX74CYH2IbEpghhgAEYi4I3BDzQDIyiFA0cBM3+DLPgy8rU/PHJeaD1LgNnZ2dEfhFG4VEDEJo7260X3wu7N6o6VOon4yyRx6DtP4jKIIA16O/YuNKJg+5V40WyTtLYDnrXBiXHAyptQWDv/qZyqQAMM5fCHHZoTAuWQapvxfevz0Oxw1fhev3D+9fACGTFzbybJHNyIoYC6UQAggfvfYEampqQKaFQkmkLNva2vDZz342bSfFbPUhXwCBFHB7Ry+2NjbBZDSgqqoUUydVM/NAebkTO3e3Yl9zF8wmkYGC/gEXM0fMnFbP6P7tO5qxaeseTJlUjR27WmCxGDF31mRMm1rLzBEbNu1kAMHj9aOs1AmjUWBAcOmiWbBazXjj7Y9RWmpnz9LCTABh87Y9mNlQz0wZHV19+GDNVlRVlqCpuQufOe0w1g5KPp8f763Zio7OPsZuUKI6lx88Fw57kmu2UxigrAMEUsJEwxP1T7tdSkRFB/zggiEopKiJxmcKks7jK6o9nRgFYgCCUco82SkGBghISTKfBaKuw4w9WRGYeYFjjnyMaaB6yJRDVDixGaT4SXnSLp++pxZQvWRSoES7dQI4gYDqu6ArW/VDEFU/BEoEVsj/gRgEUuJkYiBlSHXSd65BwhRpp8ROiuHyNVMkAQtqY9hRUquEOXDa7eDDfdNXTnN5+7btaGtTjzkSwCGgGg8Q7vzGHdj34I9gfvLxmKOOfGUVSu/9Cbz/egZ8SRnEOXMZMAqs/wi+l19gLA6xLdZzLoTpqGPhevjnCGxYp3MQ5WA9YyVMp5wJvqIainsAoS2b4PpdESCkPUlSfaDIVqQqqbHNt/uTd7H+jb+PbSOGqf2CC87DIcuW4NQZLlR0Pc/iFeQr5QsgBIIhbN6yB5sb98BmtUDgOZSW2LDi0AVsd7l56x58smU3270TIHC5vcwv4dQTD4HdZkF3zwADAJsb90LgBVRXlmDRwhkROvfTbU3MTGAyiZgzczLb/ZNZgYAAMQpvvLsRMxpqse7j7WznTywAmSzIvEEAgYDFx5t2oadvkIGWlacsjwCE5pYu5sNApgaLxYQp9ZVY9fbHWLRwOmY01IUX/OgRNO0YYSKqWT+uWQcIxBAQQKCFKag6DioGUXUAlCXV+Y9+J1s6242rToLq78Q4RC9+GvaYIynCBIuf5icYcyqB/qB6Y45bql786uWKcYcOk5TN5Bb2/GcgRPM/0Bwgtc/ClyMlinWQyjuVECCEAQmTI7Wb6tafttAVLIsiBKczHCgp+gW1h66Ub25ujswX+jYeIHz10kvQct0XUNHeGnvMURBgqJ8EqbtLPbXAgFIYqITZEgJXxmXLIe3ZhdC+fSoQ0yWaG4ZJk8HXT4Hc2oxQyz7VefWiJKcYkgks2TnRVARczJOmBIpsRZoCSz+7FAoiFPCm/2Cenlg8qwzlYv+EBgikgLfvaoYsKSBlbjabcNCBM1BTVcaUev+AG2++uxFutw8HHzQL23e1IhgIYfasyYwpIOW8c1crU+qT66thEHm2e6+pLmPhc9es24bWtm447BbVkzusUJYungWPx8cYhjmzJjOmwu8PMt+G/gEPli2ZzQACLeBd3QNY/dFWTG+oxby5UyPn4UkHNe3rQOPOfQgFJUjkhQ7g8OULYDaLzD9i5vQ6BmKCQQmVFU7saerAzBl1EIdhrLIOELI4X0cdByGLbRiLopIChBQbwzCP1QqBnEV1Ryppfu3evTsCELTi9ABh4YzpuFT2ovSNVyHm0XE6bYCQoixSylYEGymJKfNMRaCRuQzHqISFDRY40YmTG/oh7H0OwcHEFyvlonnm2Z9H/VkPMnv9+vXr2U/tjDYdv+rv78eVV14JL1HKCVIqoZbJiXDrtr3Y29SOSXVVmDa1Bv5gEJ9ua8bAgAtLF89mzn+U6mrKsWnLbhwwdwrsNiu2bmvCjGl1KCt1sLZ19wwyql808MyJkU4p9PS64PF4YbVa0LitCS6PN3LV7rTJ1YwxsNrM6O0dZCcm+t1eVJU7mT8DlWG3W1jZmxubUOq0MjOC/ogktYv60NM7gLb2XjidNlRXlTBfCXqOwA+ZMYKBIAMaolGEN/zZcEF3ChsgqKcgcn/YMxezevRlZgoQqOYISCBzSdgfYSSAYDYaMdPjwi29zbCyI6j5S2MKELLVzSLQyJYkhymnCDLyIOShVRBAcCgd4Hf+C9sbNyBEjlp5SouOPA+X3/FITgECWzTD8fGZWTm8s1Iv1tH+Dp+VD0f50+eJp+o1+jgRhZ+MWtbT/uFTd0MkrI+lkEz8qeRJdegKGyCovdifAAJT7IkCJaU6oHH5JDr2SI6YdIxUUbBnzx40D4mkaMSCGTNh5jkslPy40d0Lo5LdW2VHav6EAAgjdTKd74tgIx1ppZ+36JuRnswIICydXY71a9dAirMbpldS+rnnzJ6Lz5xzbs4BQvotm/hPFDJAIOnTDYj62EMTfkQ4bmgUxQw7zRwXOfXAxJ72NjR3dsa4XViMIhZOmw6L0YiFCOIrRYCQocQL6PEi0MjhYOxHbAYBhOOWTWfHHvOdSktLQbHgc2liyHefxkt9hQ4Qxoscx0M7GYPQ3oam7u6YY9ZWoxELigBhPAxhbtpYBBG5katW6kRgKwggVFk8ePyfb8BElGRuRRZT+hHLD8I3brq6CBDyKHOtqowBQtAFG93BUUwFL4HCBgi36u5iKGqsgp9MyRpYHLocDd0YsxUEEGxKD7orjwHvrE9621yqvR/upFh8GfMqgfOWqg6AuXJSTLXd+1u+TAACycok+eAMefMKKPe3McpWfxlA6GhDU1csg8BMC2EG4QAEcYOHfBBGEcAhg4ZyF+kBQgYFJXy0qLWyLdGcl1ccshyJeJRAQwMI/bXH4vkmBzb2xUa1S6W1xDpMtQhYVGNEmUXA5vYANvUF4UsQLU5f3hfmm/Dz82szAgjS5/pxVdVNmGKYlkpTi3nCEtgT2oHHun8D7nEH5K5El0hxCAoUmTAxpyTIARg5r+YoH5Er5TZIMoyjIBdCgoKAKGQMUouDHCsBun+huaUd7R2xPggmoxFzZk9jzGFFGYclC+j+j/xKj/ucDiAUtHIo6Mbld9DGQ23F4crOKC2YqjIIBBCea7JjQ296KzsFjjuk0oRfnluLBfVmtsD0eSQ8+k4v7n+3B65Q8pG6cr4Jv7ggA4BQJcF7YSesRhsMujshsiOZiV1KUAnAG/TC8tdqKN2jAAicH0YxkBA/UDAfMSDBnAbWDIiA30i3MebTyDWxx1jrHTEIzU2t6GglgBB9H+m659nzZ8BkNqG0wYR5Z5eBz3Ow1xiAkM3hKGgFUdCNy+YojP+y9vehWjjVAmsGAGGuQ8TfPj8JiyebY5SFyy/jtn+04fcbBxFI4qyRMUAwK0BDcP86D5fNV44m/266WClRocMzCCLvhSgOc2aeQIJfgikFvBkwAAGTwG5kLKbsS0AFCG3oaO1IDhCmmTDvnHJ2EWY+U84AQjqdKGglUNCNS0fKEzvvRB2mTAHCxXPseOyySTAkWNzX7vXh+Ef3oD8Ji5ApQMjFjEs1TO5IoYxz0bb8lpkhQKBz/WEmQQxR9MfEyj8kAAFjERzkcmwLGyB89RFlohmVClZZFGzDcjn9x1/ZhTRMmQAEWvKvXuTEw5+rT7j87+sNYvGDu9ATSOz4VAQIhTx3MwcIrHfkGzOMLwq7pXE/Iw60eyDo7o/RdF2NMxlNJMPhAGvhA4RsvweFtMJmoW8F2Z2CbFQWhD2BisjGEGUCEEiUp02x4qkrJ8NmirVj0yL4zNoBXPFsK1xx995rQ1AECIU8GbMEEAq5i3luGwGl0YKCVJvK7gKJQx37H0BIVVrp5MvGaptOfTnMW5BdKchG5XAQxknR5KSYiQ9CucjjrmPKcd0xFTAZ1JWJwMGnHX584c/NWNMVQLLgrUWAUMiTpAgQsjY67Gbr/B0fZPeZEDMTTkWAkLWRzGJBE0QhFmw3CrZhWZxDeSgqE4BApEGlScCiShEnzrHj8Bk2WI0cdnYG8M8NA/iwzY8Wd4j5ICQariJAyMMAj7qKIkAYteh0DxJYpmOGeU8UujkMEooAIe/Sz2KFE0jRFVxXCq5BWZw3WSpqtACh0sTji4uc+MKKMtSXiFjf5MX7uzzwhhTMqDDi5AV2CByH1z914YG3e/BBux/xy2QRIGRpEHNSTBEgZEOskiSn5megrVWjcUpI0lCNSSgChGyM5EQqY4IoxoLrRsE1KPNJO1qAcPvyMnz7jCpYxOEjq5DIPtjpxbl/2odWf6yxoQgQMh+/3JVQBAiZyjYlcEAviARwYUdOhXb9QvaustRMDQV7zPFiOsWQhZSVQrLQjv2yiAki/ILqRoE0ZrQA4a/n1eGiZSUpvQ4UOOmQB3Ziu6sIEFISWEFkKgKETIaBHBJHOjLLyYBCR4Dp/3CsEAa3wyCBgYVsMAoch5Z9BRoHIVsAIZPBGu7ZAlmnc9W9wix3Agi94LowygaNFiDcd2wlrj+mHMawY2LSiUYOi+1+rPxDE/Z6iwChMF/IRK0qAoRMxkqWhvE7oK8kBQQQKBE4YOYAds217u8IUMikJarTcGsLAYRhIimOVaCkQgcImYk+8dOjXKtz0ZT9o8wJIPCx6sKCKaM7xVBnFnDMVAuc5uFNDMScbmr3Y02nH/HxkrJhYiA2dnbAi6oQxfWlHRdHXmEIcjy2myzoSjN2LC3SVVIQM/0+GGhrN+wOLhvbu8J9RWXeCCXhXQwKeC4IAz+SfAq3b7lsGSn8pDe9yqo5Qftevdws/PZrsibAICtwiQZsM1ngEQQoGZgdqPzWlvYiQMjloOeq7LFSDLnqT8GXOwEEns0uMAZBTn4XA6lAi6DubtxJ4hnox5zy0caH1jzaDYlhnZ0oVlKmAIHqWuJ34wpPH6q5WKlQEOANnAF/s5Zhr2hKaVqyS6dCflzs7sVCJYQ8R51NqY15zzSxMVDexZlO0EAXFDxvsOHfNickIw9+lKGoGUBobkdHWwEyCJd8LX0fhGEXwGyujvmfHnmrsSimPIl6nAv6gAQAwWngMNlqgMBzMPEKrji0DE6TgDte6MDUEgHtbhm7PKGEa125gcPxU63Y1RvEut4Azptpg83I4ZlGN0SeY8ChPyQz8JApQCDu4qreVpzCS0jEYxBjQSDhUXsF2gVx2AmhgYMvDvZgAS8xP7FiKkpgrCWwRebwPUcV/BYR3Cgn5YQDCLkclKTr+Thf6HMpM63soojyIWU1PG2+UiKAcPIkC64/qhw2Iw+LyGHRZDNeb/Tg5uda8edLJuOJ1X145OOBIZcwNVgFfP3oChw8xYybn21DUFJw2/GVWN5gwe7eIKrtAt7a7sWtL3fAIylZAAgKruptSwoQSIbEJKyTefzeWYXupCBBQUMwgM+5erAkAdjI43Dka9gLvp4icaEOUeP/mSS+46iG32IYcpkVx9H7aYuEWZYVGf6gF7IS6+vDAMK+dnS0TxAGoeBnb4IGFoHH6EatuPiOTm5pPTWMkBMBBCPHgS7XM3LA1w4vx7kHleDcx5rQ5Arh1Sun4k8f9ONPG/uxrMbE4h7sHQjh8iVOrDzQiWnlIj77WBPebfPj+ElmHDHNiitXlOGZdQM4ZaEDNzzVwi52OmmODXMqgOPn2liUufXr17OfzFmL47Bw4UL09/fjyiuvhNfrTdhdxiD0teEULpSQQdAeIpCwR+GxWRARYH4KuuIUwKQoOEAOooGTY5gDYjl6QhICJD8O4LPiUp7WyO2XmUN0yRMHVIhCVs08zDeQ4xA0GNmYCgbViKQoMjhFgVEKwSBLEJI6EOR/OBplDt9xVMGXgEEggGA3O8GHqQVZluDyD0IpAoT8D9RY1VgEHqOTfBF4pCY3clK0JPBBsPAcVtSa8Kvz6/Dn1X346epeZiJ47aqp+PuafvT4JHzpiHL84s0eNPcHceo8O/rcEi49rBRn/q4JO9yq0p7lEPCvLzbg2XUDWNfixT93eLCwXMTyyWYcXM/j4kNKcg4QmBLQPMQTiIX5TSQ4ej4gySxMtFMY3hEzNUkXc6UjAT856ckyqg2j5NVjMSDcFiukAxbBdMTRMNfVQzEYYLCqu285GASkEHydnQhs3Yzg26tg7+qAWABAQQMIXoshoQ+CwBlgNdnZ/PYGXJDkoVdwqwxCGzrauwrvuufR+CCkM5GKeWMlUAQU6c+I/RlMJAII5JR43ZISXH5YKf67aRA/ebcXXQEZDgOH/101lfkjdLmCeOKjfjy2cRA+ibzaORxeY8LPz6vFOX9swk63SnPWmXj8+uw6/K/RjV+u64sZnKz4IKTAIKQ/I9QnemQZDo5nu9liyq8E6FKjrpCMStEAPgObG8Ux7KubjJJrrkPlKWfAYHeoJ12SJDkYgGdbI5p++VPY3nkbFjmY347H1RZhEMwiuCResxEGIY450IoigNDS3I7OieKkOKYjUqw8oQSKwCO9iTFeQEcigGDigEOqTOj3y9g6GEQwfF6bnKgXlYqgo4tdXgktfjlm6a418jiuwYwXdnnRFz7TaOM5nNJgQa9fxqoW3/gCCJICh8BhePfG9OZFMXdqEpAVDl2hUEYAgd7BzspaNPz8YdgXLh4WGMS3KjQ4iB3fvgO2V1+EKYniTa0nmeXSAEIiH4RUSy5oJ8VLE5xiGC+LZ6oDUMyXmQSK4CN1+WX73UlmYqA91mjqIjI+PkQMfUZlxZdX8AxCESCkPjGznDMbAMFtssDxw4dQcdyJAJ++mSjU24Nt116O8i2bMmIxMhENAwjOKvjNQ50UUy2Xojq2thZoHIRLv57+McdUO87yJVjFRrOwpVVnMfO4kEAReIw8TAck8UEY+cnMc+QCIHAGEZzDwRpnOvhQwGiE/7231aVi0AW+pgbitOngS8og9XZBqKpGaO8eBNavG7KY9MQBBCrbMHsOQvuaYKivhzh7PqSudvB2B3zvvgPIEiwnnwbOWQKpaQ8gSeBr6uB7839Q+vqhBCmYE8Db7DAeshyB1e9DCfihSJIaOAKAcf5CGKZNgxIMQu7vh3/NB5HviBrn7A7wJiPzmqA7Mlm5LEgUwNudsF54EbzPPQvxgIWQB/oR2Lie7hoGX1YBy9HHAVZrdOAUBbLbDd+ql6G4XOx5GEXIPd3gTCbwzlJIXR1q/RwPzmJhPyOBLrwete2scgHGOfOghIIIbm/MeHIMBxBofE0HHYzAhnVQPO4Y+WkVE0jtXrYC8x7+I3jT0DgYoZCEgcFB5nnisNsgign4e0VBx7//Cc9374LN547pk1BeznSP1NszbF9pnonzDkBg3Ro21izROJot4JgPhPq33D8AJRDLsFFWAgjfq6iB1zh6XwxZVtC23wKEjKfiMAUUwUcupTtuy55IwGNiAQQOQv0k2C66BHx5JQwLFjEFIrfsg9zRBvfTfwNfUgrbRZeBKy0DXIOA2YzQ9m3wf/AOQo1bIXV3ReblEIBgtsB+xTXgzWbAaoPh4EOgeLxQerrg+9c/4P94LUpu/xakfU0QamrBT52O0OaN4Ktr4Hr455BammE+4RQYZs+GcdkK+F58HorfD+8/n4JMysogwnndjYDBAHHRUoSa9rA2UR98q16F3N8H6+lnQZw9F9zUaeBNZgx8/26EmptYm81HHgPLeRfB99K/YTrqOMhdXQh8tBqh7Y3gKqrgvPV2KCazeiyOnP/cHgZq+u75BqS9u2G77EoYps9kZYoLD4T9ulvQ+7UboAwOgK+sguMLVzOAAlEESkrh+d2vmZImAMGZzLBf9SXA78fg7x+Ogpokb7kkiFDKy5iiJCWt+DzgensghFQnu0QAgUCL5bSzIMyZB/GgpQi++RoUjwfe/70EqXlfTE0+0Qjuhq9i8hXXDmkBKcx/Pv8aduzcC/q9YWo9Ljj3ZAgJnFED3V3Ye8m5cDbvjZ5h4Xk4b76NjV3wk48ZkCKZSC37EFizms1B45JlDGwJVTUwHn40A2FyZyf8r74E2euG6bAjYFpxJANuwrSZGLzvWwh8snFIWxsVHt+vqYVnGL+JVBZS8kHoaO0oPCfFnDMIqUgnn3mKoCKf0i74ugodTEwsgACmcGyXfB7GhUsAixVycxO48gqEtn8K9+P/D8YlS2G77lbwldVQujsBkwnS3j1sd+/61c8Q2rE9KUCg3bNQVcWUv/Vzl4GvrWc7b7oxb/BXD0DqaEfJbXdDkSXGULCduM0Kqb0dgz//CVOehjnz4PjGPQi+8Sr8H7wLeXCA7fTlvj4YFy+F/ba7IG9vhDB9FhS/DwM/+DYUnxdyZweUYIj1z3TUMbCctpIBC2JHiG0gFsN5L9XhA9xuSJ2d4MjBb9IUeJ74I9vtWs44izEAwrwDgEAA0q4dQDAI15/+AKm1GfYvXgth5iwMfOt2iIsWw37D19F707UMIEAQwDtLGFNgOfYEmM86F3233QipvU2Vl8kM53U3gTObMfCLB6C4XSzkdbIUPOBA1Dz0CDiLjTE3BJA677gJhg1rkwIEMhOIM2bBfuPXIW3bCv9bqyB1d0P2eiATsNOdOhi0l6D693+B/YCFQ5ow6Pbgvh/9DscctQwbPv4U+5rbce89N8DhoLbEJtnnw86br4XjnTcjZgbOYoXjK7ci9OlmxsAYJk9hQCW4cT2C2xohNEyDccnBEMorwNdNhmHGTLh+8xDk3h6Edu1g40WAynjQUtiuuh6+f/wV3tdfg+L1DAUI4HFvdS3cowUI7FQvh+ZCvaxpvwMIuVZZRQCSawmPi/KzBTwiAKHmWDzXZMOGXpWuzke68gAzfnFBXVaPORqmNMB62ZUQauvACQam+L3PPgnjQcvg+c9zMC1ZxnZ0SmcHUFYCvrSSLcyhbVvh+tUDUcqcTjHEmRgMtbWwXX41i4kgLjoY8kAfFK8X/OSpGPzuN5lyMB93IiwXXgLP738DcdESmI44BqEdjXA99jvIHe2wX309xOUrIO/ZDb6qGoprEIF1H8Hz9yfguOEWCLPnQenpRnDth7Bc+kWEPvkY0p5dGPzdb9iQWE87E5bLr2bsAAb74X/vLXieewamo4+D7arr4H/9NYjz5sL1yK8gVNfAdPQJGPjJvTDUT4b1woshzJwDvq4eILpblhHaugn937mT7Yatl1wBw7TpGLz/OzAtWw7LZVei7/abWRu1JNRNgvOu7yK4ZjVcf3w0CgIIINz0NYiHHwOlvQWev/wR/jUfQvG4Ek6lkKMEJd/9ISzHnsi+97z6Aga+excMg/1JAQIxCPbLr4bpxFMR2voJhHkLILe1ILRlE1x/+C0DVFrqsdow9ekXYJkydUj9Pb39uP8nf8C0afVo7+hBe3s3vv/tr6CyonQoQAgE0HjbjSh97aVIfAQCSs4bvwrPy/9l40DghNgdfRKqa1Fy212QBgeYzPtuvpYBRkqcKMJ0zPGwXXMDm3tKfx8bb8+zT0Pu740pp7mQGf8AACAASURBVDFDgFDw1z1felsOfRCKzgbZX8eLACT7Mi3gEueTD4LUg92mg/DM62vQPZh4Qc9FFz67Yg4e/vrZWQUItMMVp82A/c7vQKith7xvD5TBQfTfdw9biK1nnQczUeWSBLmnB9LeXTAsXgrPr34G7/9ejulmPECgXbT50MNhOvV0GOYthNLfqwKESVMw+J1vINTSDOdXv8EUgrRlIwwHLYPU2gK+vBzev/8FgffegenIo9ku3nTKGczm3/f165lPA/MTKK+A85rr4SMaWhThuOYrcD/6a6Y0go1bYTnlDBV8PPEYQnt3AZIM53d/iMH7vo3g1i1wXH+rahMP+NXdq82BwIa18L7wLxhmz4P9sivBlZdDamuB3NsLAwEFoxG9t92k+ksQQ2A0su8cX74JvM2GgYd+BMWnKl4yM5Tc/X3WP1LKAz++l5luWCKAcO1XgFAI3tdfhf2q6xF49w14nn0qBnTpBRyyl8B553eY34LrgfshhBUo5UloYrA7YD3zbNYey5nnQOF5DD54P4JEzWu+EOEKiEGoeuQxOBYdNGTq9vUN4Hs/JHCj4IjDl+Ctd9bi7juuQXnZ0OvLZa8XO2+8Go7334kwCMQOOe+4m7EGwqQpGLjvHoT27Iqpx1BVDefd9wIWC7jaOvR+8XOMBaJkOfFUWC64CP5XXmTjSgyS/ZY7EHj3LXie/HNWAAKRKXR3A5mT6BRDc1OBXvf8+VEChILR/QXTkFws0WNQZpw8i+IdgzHQVUkMQpnRg5//v3+gt7+fHWHMV1p58jH45Y/uySpAYD4GF17MlJJxxZGsK77/PAfvS/9lypx21Y7b74bQMB3ex3/PbO7GE06B5w8Pw/v8s1DCNnB6bogPgigyat98zgUqhe73M8cz3lGi+hh0tMPxtW9CmDwVwXffAF9RBc9Tf4X1vIvgff4f8G9YB760DKUPPQL/c0+DLyuH98X/sN0nmRp4hwPO62+B99UXoRiNcHz5Zrj/8DDk7m4EN2+k0H8wHXoY8zMgsCLt2wvxgEXo//btCO3eCcctd7B2hbZtgfmE05jzG/UpsGk9DJMaYLviKqbQQHZ/cpg0mSDv3Im+O2+FElBvwyT5mY85jgGRwR9/H4GP17NyzIeugPmSL0D6ZCPri/n0lcxPov+7d0HubI8ABNrFDz76a3BGE1PammNmsjklMx8EgPfFRstM6KTIcczBs+S+nyG4+j1WPplpSO4ysRw6E4PfIEK+6jpMvf6WIVX7A0Hc/+Pfw+m0YVJdNT7dthtfv+ULMJuHOjP6OzvQdNFnUNLRGimHsztR+qOHoHR3MV8Wub2VmQ+IhfE89RfmXEoyMzRMg/3SK6GQCeon90L2qCYEko1x2aGwfOZ8cJwCqbWVATjPM3+FLw6kjoZBoFeY51VwQGlCAoR8LFJ5XAuH707BNCQfUs9xHUUAkpaACSAcvXQ6fOFdYloPZ5i5tLQUCxYsyB5A4DiIc+axXSY5H0otLWxxFCdPhuz2wve/F8A5nGwHF9q3F8aDDkZo104EVr8H05HHwP/Gq/C9906kV0NMDFMaYDnjM8y0YDjgQHCyHPHwJ8o78PFaWM79LKR9+6AM9MN49PGMAhfq6uF69FdM2XIGA8wnnQbxwMWMalb6+uD/6EP433+btc35pRvge+1lKAYRts9djr7bb2SKR0vkfGk95wIGcIj6Jx8E/7tvMmVJdnHD5KmQerrAkZOezQalrxeBTRsQ2rMbjmtvZKcSuGCQHf4i/UFRBL3PPoXgjm1q2049k4EI/6pX1NMIksTaaT7+ZMZkBNatZVQ+sQvmk09H4MMPmJMkPUuyIdDkefHfIzopjjR1kp5iIBZnxZEwHnYkOJORAaLARx/C986bjIXREguTfeBSzPnd4xCsQ30Ldu9pwQcffswwxbIlB2DWrKGmCPqy5YnHEHzgh7D6dQBGFGE76zxIne0Ibv4E4vwF4IwiQq3NCDY2AqEgOF6A9bwLwU+dBu/Tf2Py1x+5I3BI8iKTDg0EAR3/G6tizCTUl7QBAoEoGlhdLKgiQBhptmXx+4LR5QXTkCwKdyyK2s8BBQGExTPLsYGOwyn5DRk4a9YsrDxzZfYAAik9k5ntxGXa3TNHOYUpSt5sYQ5l7IiZIED2uJljHzkA0u5Z9aZXGMugpUQmBnqWOQtareCMRnUhVqAeYSNFLhqg+PzsO/JuV4L0uwkS2ah1ip7aCfKaD4WY0xrTVDwP3mqHHPCxYukYHLNtx4X8JWVM5dNz7Nlw4u12RrsjGBdul3byisxMDopOiarbSxkgGbByOKboqT5FGhqyd/jXk2NKkj2ra9NoX+mR4iAwhoJOYujlF1eZ12iGeNtdqD3/IuaPEp8kBvCIjEkcI8Hf0oxdX/oCynZtHxoHQRDC8btjL0bS10HOjIxF0Y43xjeAF9hxUjpJogeB+mx0iuHemhScFGle0wjSXetxqaABwmWjNDEM6eRoZ9o4fK4gdH9BNGIcDt4IE7fQxMqcFJUuoL4P9fX1w0Whzfpg1Dim4tBZx2YVIGSzkUMAQjYLL5Y1rARYtM6QlHEkxW5HKWrvfwClhx+lgp9UkqIg0NmB7XfcgtIP34c4JPRXKoVkJw875lhdA0/CQE8cC0uhmRKS1VjYAOH2NJwUC2D1LIAmZGdmpVDKmPd1zBuQgpAKPUuGDIh6iqELdQdb0C3ugisY642dfvdTj8E407EYZ8y9onABgizDzvHsVstiyq8EpPBdDFUZ3sVAre51lMJ02RdRd+GlMJaVDRtyWfL74fp4Hfbcdw8qtjXCOIbggNpOJob76urgJiQwyjRxAMIoBZD2YwWgmAqgCWmLbTQPjHk/x7wBo5Fa/p6ZP1kFCPXLrGjiNqLPq3pap5qI2DQazKi1T8ei2iNgNzqxvXsjtnZ9CE9wAJKcnIKdV3Yozjvg+oIFCC5Jhk9RUEpUdgHc7JfqmIz7fORcKSvwyTKqsnSbo180wjdlGuQFB8I6fQYUUYTR4WRRIWU/mWoC8O1rQmjHNoibP4Z1cBDCqIKNZ1f6RYCQXXkWXmljrKDGuPq8jMeY93HMGzB6MY8WIAicgErrJMytWorZFQeh2jYZ/pAHnpAbZeYq+CUvdnZvwtautdjdtxm+UGyoWmpxoQMEGtZBSYafja8yIpU7+lEoPqmXgCQr7GrxUoFn13BnK9EwShyHEG9g13jzRNtz5IahMPu9QZYgkK9GAYFBAgg/qK1LYmJITTIULbKlqRUdCW5znDVvBswWE5yTTZizsgScIb90GXdZOiaG1Po78XONscIZ4+rzMr5j3scxb4Aq5tEChEW1R+G0WZcwb+2WgV3Y2rkGn3avgz/kRa29AQfWHo4ZZfPhMJZhR88mPLP5VwhIsbHmMwcICq7uacPJgpRVRRI/AQtkqPLyXhRKJflVU4XS66Ht2KZw+F71JLhHcdmUVhq7rKmZAEL4Xo3wFyaTCdPnzmTHOy3VNlQfPonFTshn4i7PIUAovrhZGMoxFOIYVp0FwaVWxJj2MYXKRwsQyDSwoGY53tz1T2zoeBf93k7I4WtxyewgCmZMLZmDk2ddjDJLNR567xa4ArH+DZkDBOCKvjacxoUw+qtsUhvHYq6iBPItAXp9P1EMuL9yErwZAARZkdFGAKG9Le4uBjNmzp4Fk9kMU0UpKpbOB8+P9k2iozyAQsGZDApgpFM5I0uMu/yOsJNiCovVyMWNbY4J0IX9UoATfdwy6R8DCFL6PgjnL7gBB9UdxUDBoL8XW7o+wuqmV+AJDmJW+YE4fOrpqLDWQeANCMlBPPjuzVkHCLTXmRv04SpXNyZxKk0cSQog0sWDo5jxdMROjRRQTLFCLcojbQlo0yjdjbkC9CnAs+YyvGYvh5zBQBBAaG1pRkdH+5DLmmbOnAOz2QybvQaTpx0Jnk/xpEcCmo1T6Kr3EPyKG0HBDbk2CJQq7KRFshQFCGlLNsMHJsD7PQG6kOEgZvD4GAlvjKodtaDmZQgQtIppESIfBJ/khUmwoMu9Dx82v4Ya+xQsrTsWP3//q1kHCFQ3rT21UhAOKcgupVEDE8gwKQqO97twmByCkVauFBP5G7zLi3jDZIefrWzpruwpVjRCNrrKOZ2k9j17iWqXBTOUJJcECVwABkEaK/Fkr6MjlET2eyijmwcKxRWRtIiG2vgMN67RMaQgXD7BgBaDEcE4DUunEtJJCoYHCCaTGVZrFSZPPRJmM11BPTKsVtug/dP3LRy9EQoCshcevhtKQwCwJm7z2AGEdCSYrbzpjVu2as1KOeO46Vnp/6gLGSPBZataYhDMGTAI8XJzBwbwzy2/xc6eTWyBWDHldBw77dycAYSkOxMANVIQ53h6cawcgDGFAfYqwBu8EU/bytFDFz2l8Ewus6SqCEY6Bz+6NnIICvakRwJF3gtRTDeY0uhaMlZPkfxliSj3kRXmkDZSKEeZYJv6LOEscooUwvcjaPlVXa+AHDNlSR7xsAwFvFLHO3VASP1oadmHjg4yMURbajIZMWvWHJhMFsYg1E86DJIUhN1enqR8ejgEk5HDzJnVqKhwsMIM4fgSFI2V8FTT3m60tQ9AktRzIC65C8Epg4Bz6O2e3Be+kUYcBFVWLI31y5nXSTnOOzvOm5/XoY5UNgZCS1TlaAHCeQu+giV1Rw+RXY+3Aw+v/iY74shzPI5s+AyOmHoGfvH+13LCIIw0eFVSCJ9zd+EIOQQxNgJtzFAQOHiHE/G4sxKD3GjtsCO1Jr3viwAhPXllOzed0FWU9Cl3UsIcMQcMHCgwGg0wGsWY+xHi20rPyLKMQCCIQICAV2IAQMxSumwRzaPW1n1ob481MZBzIpkYiEFwOOrRMP1YuFw9sNnKIAyJPCnDbuexYvksHH30YthsJggUTZJaE24q9YEADLV/X3MXXnxxNbZt74YsCxhUOhFoGABni12F0gcI2R7lVMorgpJUpFQQecZArxZEvzNqxDBCIxPDaBiEE2d8DkdNW8l8DPSplwDCh3dB4HgcWL0ChzesZEcef7fmW8w/QZ8ydVJMVSYVUghnunpwoByEGEeZc1DYMcZ1BjP+bS/BAJe+Qki1HenmKwKEdCWWvfwsCrOsKsC0Er1rOnBgtZogiunNqWAwBI/XnyT0OVWQXpvSAQhe7wDMZkccQFDgdHL4wuUnYNbMSSkf9yWgQCDhtVVbEQgpGDA0Q5rlj/FJ4K5Il0FIYTQmhJLQdWJC9GekcRunnRynzR5pNCLfz5s0OoBgFm1YUnsMjmhYiRJzeWRXM+jvwfqWt7Co7ghYDDZs69mIVTufRrt7T4yDFDUgXwCB6hKhwEJXKieQDI0xhbIlL4ZCSkWAMHajwW6PHg17IAM8AxYKLBYTYw9Gk4hJ8Hqj92xEy8gtQPB5B2Ey22MAAs/78JXrTsesWZNTBgdae4kV+csT/8P7H+yBX/bBU9cGVERX1ZwAhNEIPBvPTAhlsT+xJeNwwPLd5HmTrDBLnaOKpMhzAhymcsyvXIYVU09HmaWKLSDeoBvbujfgg30vo3VwJ4ISXSU8tGf5BAjZeP/zXcZ4BAg0/tRu7adeZsl8JdLpp5Y3UflaXUTBJ3LyHO4ZfTsZ3S8RlEzf90AJkWGBp3u3YLdb0lao+na43V6EQvHvTb4BgoRjjp6Jc84+KumlVtp4J3s/ensH8eBDz6Gz248+vomOHkVIEO6Kb6bpg0C15HuVzPebn2Z9E0Ic6jHZiZ3GWQepuZkABG0wNaCwoGo5nOZyNHatRdPANgSl6DXFiQY+WwCBlnHmDqVn5ciBnCmK0SVyUUzj8MPoKhnxqVRbnwvmg0PIQNckJ+ZcDLxviJMixb4QeREhJQiBIwmS850EWQmp124LpmiPtVswye1N8kdiaFB9QvjMvxqmW5UBKXd6nsCmFmfDL3mG3nQJHqKB8vliGCt6nkKCh+i0C8dDkqlNQ53mmPphACF984Lqe8CztlotRhjEJL4sChCgG0E5DGt+CAZC8PoCcaaGJACBOUFyUE9dqGKmqJHUQ72JQf+SUKCkeB+EeAbBYAjiG7efh+rqsiGzNRSSsHrNRuxrbofTYcNxxxwKcnyMT1T/k0+uwlvv7IJH6YV/Th8ghsd1VABhxBdnmAypvlOZ1DGOnh334thfGI8xGigCCKZRMgjxrwEt3LT4agGTRnpNsgEQ6DjjoX4XZoQC4HUmAhcHrDdasVM0s7C6qSZa0mcFvVgc8MHGAj+lv4tMta5CzydzhqRGFw4SBF6J3BBO+p4PgwLNiY7t4tnZeIJq4e9JKbOriTk2TzhOgKJIkR0/AQst0fP64FsERNkz4XlGx/foeC0DELRrZzhJdQ5UGQQFUjh4F32jLzv+O/1YkEJTRnO0kR0RUHtvMBBQSAyuJEkGXTXNcxwM7K6JJABPURAMpT57DQIPKpu1QlGwWzRhrbkE/RzPnBQpDoI+ZLjRaGKnGETRFHFSjAUICiorDLj9tgthNg9V/Fsbd+P3f/wHTjnxcDzz3Ks4/+yTGEggoBKfPlyzFX96/C34pADcM1sBcxggfHE0DEIGb84YrbNqi8e08gyEloNHx70o9hPGIzWAoL7womBkwY9oh9Q+uJctwvoT0Ml2ZNHpxcFhKmUhl/0hH+aVHZLxZU0nefpwUcANp1ZJeGdKy+RehcOT5hKssdhTupOPVNPBvkFc6u1DLZ/dewBy8IoViyxKILkEFMADBU+LTvzbUYmW1ma0t7dFjlvSg8QgzJgxe1iAUF9nwu23fVa9tyIu/e3pF7BjVzPmzmrAq6s+QG1NJe66/eow6InNvHNnK37+y//C4w/ANat57ADCWM6ZMVeKY96AsZT+xMBoacZAyVjg8+qHZxAsoh011qlst2M1luCU2Rej39eNVbueQUPpPJh4M2uDO9CPj9peZz/Zbo0XGY1LNKpmN7YZnbhk0dfxScdq7OrZjCrzFJyZ0XXPCq7tbsOJhsR3MdDrsEfm8ZilFBvM1mHxO4GDxQEXrnL1oUZI108842EoFlCUQNYlQNzDWzDikdJJ2NPWwo45Ep9DAJ+ZbETjCCYGBXW1RgYQ1CONsen3j/0T+5rb4PMH0DC1Dtu378X937spEhdBn/vTxib8+jcvwucPYnB2iw4g3JmmD0JRyY16ooyp6Ma08lGLLGsPjtfuzyWAEErupGgRnah3TGMx2qst9Thi2ll4cuMD7CbHOZUHYU3zazAIRhw2+WS8uuNJ9HjaceS0laiyTsJHLaswo/xAvLX7n/CFPDh+xgWosNaiuX8Hlk0+Hmv3voUVU07L6XXPREA3yRyesJZgi2iFnCAyIN3gt9jvwYXePkyiQDa6WUHjOrHDAWXtFcheQeEw/nm+Nyh77S+Qkmjuv8Wb8bCzLgIQVIdCtYEj+yAocNiBb9xxIRwO65BevfDS2/jHv/6Hk044DM0tnRANAr589YUJwcQrr3yI557fAK/kgWd2BzhT2MRwZboAIQvCzWixzujhLDR+nBYx5mIb8waMzcBl2u2RAILWKwNvZAqeFP4f134PC6qXY3LJLLzQ+DiMghmfmX813tz9T7S7mrBy3pUwkC2Z42E12PDXjT9FqbkaS2qPxurml3HM9HNhFEzY3LIGK+ddlVOAQO0nGXVRbHuye8cNE62VgqKglAPK4wIpkQN5Z0iCgdnMkziHjc2wT+hayTxETJpD4GDN4JIivZAY0OMFeK1WBEwmSEHp/7P3HQB2VOX+v+m3bks22SQk2fSEBEINJJTQVUQ6WFEfEBCRKigd5Skqij4ViKBYsCA2EMSANOm9l1ASEtJ2k02y/bZp//93ZubeuXPn7t62JTDj4yW5c8p3vnPmfL/ztQNBkS1fCF1nDosSOIT6eqCoKvNi2NEfur/hcV4pAAjOuPwSJXmdFDlOxVfOOBTz5rUWRGRs3daFX/zyL2hoiKOtbStO/dKxmD6tMBSSnBlv+eW/8ebKDvSYm6HP7cu69nCnX3Fzca3pKJ6DqkirqvKOviwrp3/E2DZiHVfOq1rUpGGXAhBCYgS7jt8fe+90OP797u+wtvNN7DHxEOwyfjFe2/wURE7CbhP3Z2Bhffe7CIlRTKqbgY/POgWPrb0Tb2x5hp3KI1Iddms5EPPH7Y1/v/cHxPh6HL/z2YMChEQiwYbrDZMjq+jpXe34GKcNiSthl25AAIeYR6tQC94HbQzMAdUEtmo6WiSageoejePRN34ChIMOQ+MhhyE6Z2fLgZCO0sxnxXI4UrdtRecTj6L/kf8g9ObrCKeT1XU8wrVrARAIOE1oUXDuOccWaBFIG9HXl8CWju1obKhDY2Odb1jnyrfX4ZZb/oNUxkBndCP41pxOjgGEEebT4FhwxCks5FDVJFXdwEjP2vD2P2LsGrGOLf7OHsTEIPISDpvxGYyLTWZXO3/QvZL5FMxo3BXTmxagvXctS6k8qX4mnt/4IDr6N2B8bAoOn/E5vNXxHF5rf5zd5kge5IfO+DTGRSfjwffvYPVKdVIcKYCwVTNQx/OQP7qBDMP7Ebp6000T7aqOCZIEvop4U0o1tH3Bbmi98n8tYOBjS88bpGlC6+nBpj/+Btpvb0EsmagaoIwUEysBCMlkL0KeREm6nsGhh8zFUZ/cxzeMsdj4aJ/YurUbNy6/B1u3aujTtiM9uzNrXmCgfzQAhJGaIG+/g8qCQQsM/0iqJqnqBoZ/zMPd40iyaPaEgX0QiBdkQqCQMivhkfuxQwbs4C4nOQ2Fo4m8yMq7E9aIgsLC1AzDOkGUGuY4UgBhu24yNbc03Asi6A905fZWTcNYSaxY3U8BkZtmzMLOy3+LUMuEohdP+bHbyGTQ9uffQfvZjxHZQTUJlQCE/r7tiEQbIAj5q17Xk9h3n2ksYZKfP4KXh5RBcd26zfjlr1aguwfIaCn0NW0GJuV79HDLriyuQSgGDP3TVwRfTS04UJIwKqlQLagprY2qyKmqcmn07cilZk8IQ9a2VpRJsdpxDzVA4MJRCr6H2d+XI1WUwFFufLqMRlMBUWJ/mqlUwXAKAQLH6pqaDo7i15WQ1QYvwEySGYQDF6M+BUBVKZk/IEgw+3o8uIoHFw7BTKasMq6HkxVAlm21twHTNq+UxGteAF9fB7OnlzzQ6PYfe1wmIAhg/BA86hCyv/f323S4VO7seMcX0FecDg6cLDFVval6gWRJ1OcVGhAg8Dy4kAKTkgixZEqFD332PQ1jMP4Xv0F8513KAgdOa3oqiXfOPRONzzwB0ZtUifxSJGueaLzs7+EwzN4e9hvH8/bUGpQUARytkYydOIzoj8YA0k4oIZipJFtLZiZjrae89WDlH2DvfB4uFIZJa00vdKUtFyBMaT0QfX2dqKsbWySHg46mRgm7LJiMRfvMY8mRrLwK1qVULH8EgLVr2vHMsyvx3qotUFURGTWF3shmmK0ZeO9B45ZdecsQb9E1bN6nqRq2Xv5X8iGuURJfSyo09EyqCRk1aaT2Y/2wAQRh7DgoBx3CNmV5973AiSIyzz8LU9eRfuK/EBrHIHToEeDidQw48PUNyLz8IpIP3mdt4CwJv/V4AQJt6tGTPwf1nZUQJ0+BtGgJjG1bwfEckn//C7S2jag7/2IGPowt7eCideDHj0fmtZeRemAF9LZN4GNxiC0tiHzmi+j77S0MVGibNliAgkJJP3U8xMmTwUViUN9+E6knH2M0mX19TBsTOuAgiK3TACXMBFHq7r9Da29j9Io7TUH8vIvQe8NPED7sY9C3bEbykQeBVArC1FbE/+cMmARqDIMBHDOdgalr6Lvxx9Db26EsOQBC83gk7/kHhEk7QTnkCCTu+AMDGVw4AmXPvYFQmKnpTcOA+tLz0LdtZX2TgIx86ljGw8S9dxdkOCwmxPOEoesfvgCB48DH6yFMmoTwp45H8s47YKbTjAYGclyPzvHoOuhwzPnxjWwNeJ9EMsWyAIqCiMX77OrreU91up5/FtvPOQ1xN8gkIBgOIfKp42B0dyH97DMIH3UMxGkz0P+7X0Fv24jYqWci9dADUFe/C2XPRRBnz0Xir7czMCGMb0H8K+cicfffETnhM0g//gjkffZH6p6/I/3qy+CjUSj7LUXmpReg7LOEgTsqS/NmAb0IOIFAUhjRk7+A9NNPQF31NgwCky4gYQEEGTfFJ2Bd+yaWKCmX1ppj5gIrk6KCcGQcJk7cG7IShSyHB9hoCAjoEEUTJmVthJnlXUZV2d9NkzI6EmjgkNT6kIpvgzlJpQtRCh7ujCtvGe7Q7ip20drs4n6akXK1IsUcc2pDYRUsGmVVS+JHSYWGdmA1IaEmjeSP88MGELiGBkQ/eTSk+buBnzUHZttGNuDMy88j+a9/Qpw5C9EvnQGuZSJA70IhtsnrmzYgeddfob77TlGAQAn2Q0sOgLzrbuBbJkLcdTcmZI32jUj+7c/IvPMW6r5+GfR3VkJatBj8mHFIrbgL0vxd0fvT62H29yJy/MmQP34UjLY2aO+thNnZicRdf4PR083ASt2lV8Pc2gFpv6Uw6erfJx5hp9Lkvf9kglCaOQfilClQDv0YjO3b0bf8pzD6einPLhNK0s67Qm/fCHFyK9Nq6Fu3Iv3gChiahtiyswG6dnjMWJa+19i6BVw6he4fXQt9wzrETv0KhBmz0HPVNyDtuhCx876JznOWsf65xiZEjzmBAQRh7FhIi/ZDz7cvRebF5604ESWEujO/xgRg7803WMJsgEcnoLRwD3bqJkFiJvuhvfYKRDqBU7S+j4mBCcTPngL5kCOYZkVf+QaMrk4k/7OCzZ/7SShhhK64BuOPPamAChKS//7P43jiqZcxrnkMvrrs5KK2da27G2u/dBLqVr+b9UXgIhFEjjkRypFHw9zcjtR9d4MfOw5G53ZknnsWpqGj4cc3of/Xv4DZ0wN50b6Q9tgbyb/ejszzz0Cevwui517EytOcIxaH2dPNQE735Rcx6kfgqQAAIABJREFULU/D/14H9b13ILRMBB+LMaCYfvB+Bs4iJ30WfNMYpmkSF+zO1pG+fi3SD9yPzJuvZcfraBCW11kAwXvdMwtznDkbISWEWKwFpEEQhMKMieXujGRGzBhJZMQeqGOT4JroBiv/VrgzrrrFrMLHxFos5VL4oShfG2lQC7DyoWDnEA6ipJkqqdAQEmk37SWDAQT1w2Ni4BubUHfl/4JjOektFb3esRnirDno+f7/QpgwAbGzLwAnyuAiYSAcg/rUo0zNS4LNbY4o0CCEQhBbp4NTFETPPAfGpk0wu7sg7bIQvT+7DuoHa1H3ta9D3GcJMivugb6lDdHTv4bE7b/Lnh6VffdD9KsXwHjvbWRefA565zaYiSQyb7yG+Bf+B8pxJ8FY/wFMTQVf34S+m37CAIy26l12ahfGNCN+4SXgZBmJf9wBddW7MDq2QJw+E/U/+BkyTz8GTtORvPcuJnxCn/gUem/6KaTpM9hplbQg3LTp4FIpmNs6oHd3ofenP4K+yTr1CtNnoufqb0LedXdEzzoPnV//Ksze3DXdpCmInXUu0zB0X30ZzJQVYcIAwvkXQ5w5B/233AB15Zsw6NRd5Hiozt8VLct/Cy4Ws9Ixd3di6zfOBf/Cs0UBAmlY5IW7I37eJdDXrYL6xhvQPljD5pm0QKaWU7P31DVgwu//isj0Wb4fVTqdwX8eehofrG/Dsi8fXxQgGJk01lx0DmL/fQC8PRaOFyHNn4/4N69G/69uROjQj4GLRqG99Sb6fv9rCM3jEL/gm0jd/y8GDoXpM8DVNaDvZz+C9tYbCH/qOIS/8D8wt29jPBLGtTCtA5mXur97FaInnAxpyVIGevpv/D+Y6SRi514E/fXX0Pfn3zNQFd5nMZTDPwl+yhT0/+xHSD/7lKVpcgEzAgiP8TKW17VgXXsbtmx2axDsTIozZyEUCiEUbUJz664g/6FKHoNdRMGSY8MMG8AYHRxZIMSBNz4GEErp0B13SgMbqqdasOLQZSlXPkpPbUbr5f9Hj49Dt2ZKniFXwVk2QGjZM4T3ky+jK9kxdAR6Wp4/dl98eo9zaxrmSJssCa/oiZ+FMGs2knf8AdoHa5n61ejaDnn+QoQ/fhS4pjFQn38a0m57gG+dgfRD96Pv5p/nUVgAEOJ1iB59PMSddwHf1IT0w/dD79iK8NHHo//W5VA3bUTd2Rew06L21usQJrcidd89TEhnnvwvUg8/gLpLv430ow9CmDQF0iEfQ+q2W5h5w+jogLz7ngh/8likn3oMRiqF2BeXoff6a5mGQN+wAUJrK+qvvR6mqiHz0H0gMCQuWIjuK74OPt6A6P+cAW3NanbCz7z2EoSGsaDTbt/vfglx6jREv3g6+EmTLXt8og9cLA6jYzM6v3EeEy6hgw5lJ9bEX/7EzDChIz6Brm9dlgNNlNfiY59A5MLLkLjhx0jcc2fOR4EAwlfOYSdb4g3CUfT+5PtQ33rDFyQYsgzpC/+DxrMuYDzv/tVypG69CYJtg/fTIAhjm1H/7R+wEzPSKuQTPo30nXcgcfc/GH/c/hzddY3Y6Y5/IrTTlKLrmRL9rF67YWCAoGaw5tKvI/aff2UBAjUY+fhRkPZahL5f3ww+HIHW2QkunYaR6GOmhtgZZyN5198sM8F+B0BZfAB6/+86GIl+iONaUHflNUg9cD/TaDH/BEOHtnYNkv++m5lrxNZWxL9xFVuj5Kcg7bMfen/yPaSfepyBvMbv/gjph/+D0JeWoe/G65F+6IGCcTKAIMpY3jAe6za1YUu7FyCEMGP2TCgEEMbVY8y+c8B7fVTK3A3KvcKCO/PKXwy6b5k1xgPuS1uqBRsOcKGs84MOpExmuovXArh8tDQttZkNL98/WjwEZrWEIWY6sKr/Bbz5zhtQyRY+TM/SvY7AVWd/v7YAIRpD3elnQVy0mKntzY4OprLt/u63mMpdWbg7Ypd+i/kI6KvfYye3yJfPQM8l5yH96isDAgR2UF60GOGjjwM/fiL01e+yPqTd90LfT38IrW0T6i68BPxOk5FecQ/kPRcxUECCl8wIdMoVJkxE7Jyvw1izGuK8Bei67EKmJqeHj9eh7uzzkSJ/CFlB/JKrob78AvQ1q9H/5z9AmDgJyl6LIO2+N4y+HqRW3IP41y9H3/XfQfqVlxE//xswOjthbGlDaOmhTDOReuh+pB5/BNKc+Yh98VRwEydZ/g79feAaGln5zou/ZvleUFIijgdf14D6716HzKMPo/9vtwO6AT4cRuiIIxEmofzgCshLDmRtJ+78K0And8fEkE6h77ZfQ955AdOOaGusE77fo8sK5GNOZDcQavfeCYGc9ezH1wdBFCFOnorIiZ+zbPDxGPpuvgHaug8Kmu+LxtDwk+VoXHxAVQBB7+/Hmq98CXWvvJiVAOTTQBoC0jaR8CatQOKBFcxZjwQ9aQTqrrgGSKfR/e3LED7uZIhTpqL72m+xY6U0Zx7qvv19GBvWMcCWeexhZm7JPPEY+n//a8YvAlr1lxOIWAFj+1YYXV3Q3l9laUkEAfJueyJ08OEQ91xkaRCeftwXIDwuSlje2IwPNm7GlvYtecdaRVYwY+50UMKkSEsIk5Y2Fr3Seai2hJIAwlB1Xm27BFxyl9FUj2IcM0wtwIYDV3LX5VQ7Wp/6NZDBNWhiCAY2FE3WYKQj4CRLGoQ5k+rw5NNPQnepaIeCQ942d54/H5/7zOdqChD4hkaEDzoU/KSdIO9tOXhlnn4c6ccehvb+aiYU4+dcxE5uJHyFceNgJJLMua7/lzdC25izZXs1COTAFzvtKxBmzmZe48a2bYCWAXgR6UcfYuru+DeuZCc87ZUXwI9rQebZJyEvWoLE729lDmj0juzLZDYgQU3mAeaM+Ph/LYDwtQuRfHAFTElC7EvL0HXJBcxJkHm6U8jpgoXMvMFFI+BEiWkMen90LQMq8QsvhdDUBH1zO8QZs8HV1UF98TlkXn4BRnc3Ymd8zRLWBATYnwKMrR3oW/4zZobhBBHKwYcidOjHYbRtRN9ttzI7OWllYl9eBn7SJCTu+BM7wUvzFiD21fPZqZicNlmZ078CpFPovfVmW71awjdB0ST0eLzwi0UxkHmn/htXWF7/vb3Qe7qhrXwTqcceyYtoUHkB/Sd9DrMuv6YggoF8EJ546iU8/9Jb6O7uxZ6774wjDl3ie2Nhat1abPjCiajvtJwx6RHGjUfd5deg/9ZfQN5jT0hz50NdtxacpiHxz7/D7OtFwy//iNRf/gi9azsiR5+IxB9/g/SLzzFAET7s4zDSScvJ8MxzoL72EsSZc5G+/170/YZ4ZzITUt03r2QamMTf7/B8OhzEqa2InnKa5WR60/9Z68nz0OH4CVHCL8Y2Y+2GzdjStiXvCmzyQZg5zwIIDVMVzD22EbxUvZwrZ+/YoQFCOQMtpWwtNSW5K1VL6XngMg5wqVbbQr24b/dz91qthsRtiqh2CZewbVXP1IpbqA11bn4PZMYhgLDfwulIp+0QrIrpLr9iQ0MD5s2bVzuAwPGQ5u6M0MGHMae79AvPMWc5Zc+9ILTOZPZ5EizC+AlIv/AMwgcfzmzl6jtvs42eHMXSL7+YHYgXINCpTpy0E/SOLZB33xtCS4slbHWDCWpt1TsswkBdtQp8XR2UAw+B0dsDvr7ecqQjezl54tfVQ5w9hwECAgjaunXMBk+25chhn4D65qtMeJMne/+ffmuFsdkPCXFhyhRI02ZA39IObe1ay0kRQPiIIxko0Ld2WKddFqZowtjcBr23F+HDj2T0cK5IDcPQoT7/LIvAoPLitOmMZ/rGDbmwPEZzHXOaNJMEVKhtjo3L7E9YYY2CAImAk6ZCXb2q/MXgFW5F8yBQKGkM8qzZ4JqaYG7bDm3dGuidnXmmDDo4dU6bhem/vR0SOfR5nkQiBd3mA0WhRCPhwiyAhoH3r/8e5D/9Foo7/JBMALQONqxn88/8KIjXhs4cOilihsw/Zl8/xBkzyOMS6ntvZx03rRBIE9LceVCOOBLG+vXgm8dBfes1pJ94LHvKl/fah/nQMDNNnv6as6Jo5u2M9FNPZOe/EoAwa950KAQQWhXMPa6JRf8O5xMAhOHkdgV91RK0WADBgi61ABuOeacWbRVjTbXAZUc3ScxqCaFeSOL2390NSZKG9RrDJQfsg29edt6gACHJhFLhM9SplqtLlETqR7rK0sgK6o+a11IF21G2Si0SJaUpxPXkUzD1/IshhAsvGxqIPnL263vzNbSdczoaKJS1msGMUF1Hg7B8zFh8QBqE9o5CDQKZGMIK6iYrmHVUw9BrEMiJkiM8yTF/hwAgjNDi+DB0W0vwQh84u5ilBp/6UJt3qgEt5QIWAghiejvGGovREJvAYvqH6xkzWcBuSxtGLUDYRpkUyXM+SLU8XEvCBRBMdKgmmiWhqlTL/YIM4axzMfGLp5YOEkwTvW++hnXfvADN69eA24EC9d0TxcIcRQk3ZZ0U800MIUXBtDkzWZhjaHwE4xa3gu5YG8qHNCe0f4p8GjzXEwCEoWR20PbIcKCWwIUcamvhk1IpJ2aOD0FKb8c4YT+sfzWEro7qs+CVSsu8xVGcdP6U0QsQNINd1KT4XBFd6hiDcpVxgNJVbcnoGC9XnmrZ6TkRCiO1aAlaTj0T0TnzIITClmnI8xhqBlpXF9r/ejvSd/4F9R3teZELlY1k5GpZAEF2AQSKYsjRQwBhuhPFML4BTUvmVh3FkDdauraboo1NE7yL3yzjIguJNAOAMHLLI+j5o8YBC7iUpwGYOT6cBQjrXg6hs6M8XwRJ5rHnoZSaFXj18e1IJXRMmRPDnD3q8PyDW7G9vXh7Oy+J4eQLRi9ASJkmtms66gUSUvTUxj/ko7Yuyx0vacEShgECz2PE2qhvNI5DIlYHo3U6y2qYoUu4CCiQOZR8EShl8+Z26G++jlDnNoQofXK5hI+y8gQQnpRCuLV5Mt5fvwHtbW15JgZZkTFrzmyIkgx5fD3G1AggSBAwpaEZe06fj6ZYHeOKIllXa+uGDsqZ0JdM4L32DwKAMMrWTEBOwIE8DsxoiVQFECZOi2DZtbMghwQ88PtNeOfFbpxy+Uw0tsh48p9bsOJ3G6Br/oJ1tAMEYlTGAHqZ3dS6Ejh4hp4DBBAiPI8I77hi165PEpomx4GuMc7eIWA3T4BA2EHNCX4corE+JYdxW8s0rFq3Dhs3bswDCJQgacGCBZDp7o/GMOoXzQSkyhIlOf03yTEctfsB2H/nPRBVfBw/XYRmNDUACLVb2kFLAQdqz4FqAcKU2TGc/t2ZUMICVr/ai9ce78SnzpwMQeTw4oPbceeNH0DT/D0jqgcIJk7vbMfHeL1YJtfaMyxoMeDADsIB+uqekiK4bcLAACEcDmPW3Nlo2GMG3t6+ngGoSp64EMaFn/w8Zk9sLYwIKdJg4KRYCaeDOgEHhokDlQIEWeHRNEFBJmHg2LOnYMbCOJ5bsRVvPt2Fz10yjaXi/8O1q5Ho1ZFO6OjZninIuls9QABO6d6Mo0wVYmV72jBxOegm4MDwc4AST98fjuOucVOw+oPiGgQCCLvtthvOOvdr+P49v0FHynP7aAmkyxBw9uEnYa8ZC0oGB9RsABBKYG5QJODASHGgUoCw9PgWHPKZFmxem8Jf/28tYg0SOjamkOzXMKE1zJLrzd+nAQccNw5bN6Zw61Wr2Dv3Uy1AoLbG6ypO6tuOSSZpEay0YWQJCJkcWjgDcgXAIW1yaDcB8p6o8DA1UtNZs34tawplVvRr0sqsUfjKDu3M2mLs2WCNWbkTfB/nffZlkWwqLGyUCrv6cddl7+2+/Dpy3juLZEhsRg5tPgR4aSu6uJhnXwVzmeubqm8TJdw3dhLWhyJYs2ZN1sTA2f06JgYHIFx2+eV46t1X8Nsn/wWtSPbLYkTNbpyEy05YBplCpV0PjaK/LwHNyTnBAfFYNOu0GACECqY5qBJwYLg4UClAOOSkCTjsCxNYmP8d16/Fyue6MHZSCJGYgPZ1Sfb7WT+ci3E7KWhbk8TNl7w7JACB+BQxDcTM3DXN9FvIMLE41YsjMkk0lWhWpc2sWzdxtxzFC+EY0iOIDsqVD7UmlcS/zpO3vx/zTIhcGqKY4zl5C0hiiLlqEBBgMtg06OoeaIYKnuMg8rJt+6f3PPtd4AWougq6AZB8AmReBscuDDLZbxmdompMyILC3lOLQtagxEE1VOiGyk6tihCBaqShGwREsyiAfUrOe8rQQt7z9H9pPeWPVwy60phoKA9dsuu4JQWS6HOvMUwkE6msR78g8JBkKlfYB/Gtn2XOtMFQCZsB9a2ISlZA08VSCUFEkq4eN02sXv0+Nm3ayCKGiBcUVeAFCFdccQX61RQuu/3n6FbtS7hK6Jvm49N7HYqj9j6ooLSuG+xSrNXvr0dffwLbtnfh8m8sQ0N93JqXUu5iKIGGoEjAgYADQ8CBSgFCU0sIJ503FWMnKrj7lvWYNj+O3ZY2QpR5bFmXxEN/bscBx47H2J0UPHJHO569r4Pl3Hc/tdAgDMSSsGngyEQ3PqX2o36QvZ4o6zJN3CVG8UC0AUnKjDfCD4WDlfI4J8JSypZehoMqUIZAf8ZJfBKSlNMI0S2AoiBD4iTopm4JYfvRSMhzYELeSaVGNDuCnIS6YRoICWHopgaBF21QQUH5JtJaEpKgsPpUjgQo9Ud9pLUEE4CyIEMWQ9AIHLCbBTkLYGikBzJZ+ZAUhWZkQPQoYgQZPWXTkM8VMo+ZRgUJAeh0HIpC8AmhpB5IQDLBrMh5YX9+c9KT7GfCvNSH+Bmjq7h9AB2to7Vr12LDhg2sTZoZotEPINA8fefvv8Sqzk2ldo0QL+Fbx52BKeMm+tbRNB10e+aKB57E1q2dOO1Lx0GSLP4GAKFkNgcFAw4MPwcqBQgkN8gxccwEBQceNx67HtgI3pVkqWerijuXr8Om1Qn0dqrQ9UJhN9QAgbgZMk18qm87jtSTqBsAJHQaJv4thnFPfAzUMk+OQzVrOxJAIAEVFqPgOdEGByZUnUIFOejQ2MmZhDz9yU6wHM/eC5wA1cgw7YDEy0zgh8QIUhoJUwESryCl9lvgQ7BC5UjjIFJOYBNMyJMmgn6PyHEGIAhQEHiIiFGk9CQDAQQ6qN2Eal1BHZJI26AysOB9KOLRNAsBgkM3aTEc/OOeI6IhFo4UBQipVBokLIlGRZGhUPRAkacn0c/KuR8S/uw6ZftT8vYdj0QYX70PlVuzZi3Wr1/HQDp9p8U0CJTd8Hv/uBUrt67LNhOWFExoGIueZB+SahqSIKIr0Zd9T/4H13/hQoyJNxQdz0svr8S///M4zvifEzBuXC71dQAQhmr3CNoNOFADDlQKEBj65zksPrIZR5852fegua0tg+XfeAe9nf7Jl4YDIBCdJLIOSPRgftpHbcp2WxOvROrwTCgGbZSAgxpMbZVNlKdBIOEZEeOu0EHHtCAwIU6PIoRsmjgGEkhw058ZPc1MDgQASANAp/201s8AhchLSKp92b/TXBFAoLJWTL0B3VQhCyEGMFJaPwMMpKkgQMA0BszEQRoOCapu5eUIiVEGJEjLUCBQDbo2oRAgUCpymXJi2FoVCtNLu28/5YCYEoEoDGzTotN0OqMiHosUdejzahAkUYQsStm+VU1Diu7AcDhKGgQlDMGnb0eDQGGOdP8EaVyIRj8NAuVSIQ3CaluDQGM9fs+DsFNTC8bEGtCfSWLlpjX450uPZvsmDcJVxy5D6/hJvmsukUji57/4MxbttQAHHbh33hcWAIQqP9OgesCBoeRANQBBUnh89qJpmL+4gZ0M0ymTXUwjKjxEkUMmZeLXV7+HNW9alwl5n1IBQiJhCfZqVOl0rrJyVhY+jstd6QrdoZyR0dJ2+QCBBDQJdUvI8wwAOBoDMh0QQCBeE2BQhDDSepIJddIgMBODGGGaAPqdCXReREZLQWfvQsw3geaP2rfy8BnZPkjbQBoM0ko4a4XaIMDgnLSt9cPZpgzyb7DMDwUAgZaxXuiDQPVzGhCO0eWtHpYVlhTI7yFHPQaI0hmQbT4a9c8ToNM9EKlEXs6CnKWHtC9kPiE/iXzaQ5KMkExmnPyHyr3/PvkgbLJMDKbJgISvD0ImiUtv/xl6tJx/RjwchaqpCIky6O8dvV1IqbkEaDQrx+22FMcvPtx33OR/8JMbfo9vXX4Wxo5pzCsTAITR8r0HdAQc8OFANQCBNAjTdo5h7t716O7IYOP7SWRSOsbtFELLtDASvRpefHAb+nvyoxccMoYTIASTXy4HygQI4Jgan07yGSMDnv5HApUyFdJJHzoDBQQUcs53ZG4QoWZ9ASz4RupvMj0QwHDU7KRJEHiJOSTSb6RuFzjJ5ZRIWgHLbOCAQOYL4VLTO1oEpnXQ1Tw/CTd3SO4aOkHK8v1Q6GQeDRHQKXwyGY1pPUjYkyMjOSr6PWk1jWSm/JTnIs8jFo76AoTVq1czgOAAHAIqBVEMl12GB994Bnc8/xBoxsp5ptWPx1UnnQlFKgQoW7d14c2Vq7Bkn92yvgdO2wFAKIfLQdmAA8PMgWoAgkMqL3Ds+lr3gcb6zcrDXuwJAMIwT3ZZ3ZUHELIbvn3Kpn9nNT7OEigW5ViGM2ae3Z31RT1ZHTgn/IGGWUoZql/MD6EUFoaVEBTfSIbBa/tpDwavlSsRURTIYr4Gw21icPPPCxBOO/tM/PBfv8P2TH85XbKyFMlw6v6fwoHz9yrqg+HXaAAQymZ1UCHgwPBxoBYAYSBqCSiQU7emVu6kWAsTw/Bx9MPSU2UA4cMyesIcus6SL5c9JBZRUMQfYKDGSP3fn6bIikK/iFKJIBNNNBSynDjtpxSAQJc2Ne45A+90bqw4+UeUV3DWYSdi4bQ5vtEUAUAodRaDcgEHRgkHKgUI5AkdrROzkQsk/pO9GkurzKIZKKxNEXD45ydgTEsIf/vZWvR2kfNY7gk0CKNkEfiS8REHCKSXMEzbWbG8fAgOO8kfgRIHlXKjhGboSKRSBZELlawQopZ8EWR2QZKlxaMwR7+7GOazuxgkGPUhNC2eDYjlAyI3jRFewjG7H4SDd1nEIjoGejRdC8IcK5ngoE7AgeHiQKUAIRwVseSoZsxdVA8tY6JtbRLPruhgtzkeclILIjZ4mDIvilUv9+Jfv1qP/t7KMikGGoThWg3ufgKAQNwwdDKd0Wm8MpBg+VNQhIYleMlvhx7HqkKOi2RWID+N0rJelL4WnL6p//Xr16PNe5ujLGPmnFmQZBmhGl73TOaG8dEGTGlqwawJkxlQiciU6IpjURSqrmHd1nas2bIxAAilT2dQMuDA8HOgUoDQOi+Onfetx8yFcaQSBjau6kf7mhRefWI7S75HmwFlVvzcxdNw76834K1nuwoGF2gQhn++S+8xAAgOr5gmgeL/KsiuWDq/h64kaRDaNm7ClvZ2l08QB0VRMGP2TCihUE0BgnskgnUHPXM8JU0K0cKSXVEMCqcHAGHopj1oOeBA9RyoFCBEYiLqm2UccMx49HVrePmRbUj16+jammano3BUwFHLJiMaF3HHT9Yg2VdoVw0AQvXzN3QtBADBy1vmiMuEnHPnw9Bxv5YtWwChDVvat+RCPikvhaJg+uwZUEIKwuOjGLd4Ejix/MiN8mi19CSioEKWkwFAKI95QemAA8PLgUoBAlFJVzrTpU1T5lpmhA3vJbDuvT40Twph6Qnj0ThOwV03rcPm9ZRXvvAJAMLwznV5vQUAoTx+jd7S5Py4aUM7trR15EUVEUCYOW8aC3esn6JgzjGN4CvIMF3JyDnOBEdaheAuhkrYF9QJODA8HKgGIBCFSohHpN66nCbVpyOV0DBpehR0V8O7L3UhlSzukR0AhOGZ48p6CQBCZXwbfbVIg7BxPQGEnAaBfbuKglnzpjMNQkOrgrnHNcEV/DAsAwkAwrCwOegk4EBlHKgWIPj16mR9Gyy8PQAIlc3Z8NQKAMLw8HnoeyHTyEamQSgECDPnTUeIAMJUAgglahDYXVhWpFK1TwAQquVgUD/gwBByYCgAQqnklgoQkkl/E0Wp/QTlKuHA6AYIdCpmlzZWMrSPWB2mQdjQjo72QhPDjDkEEGTEJ8mYfkQMXAkmBis5pYlIvQJBqs5nIQAIH7HFGAx3x+JAABB2rPkaPmpHP0Co5m6O4ePjyPc0kIkhT4NwbIkaBJY+20R/ZxrxsXRHRuUwLQAII78+AgoCDhTlQAAQgsXhz4FRDBDIEb5ymfSRm/Ch8kHYvrEfDRMiede8l8vcACCUy7GgfMCBYeRAABCGjtl0PTC7XtewLr6hk5YoitA065bD0f0EAGF0z0/p1A0VQOhq70f9uCi4KqwMAUAofR6DkgEHhp0DBBDE9HYovbvg8QdfRm9P+Re1VEr0vofOwte/cywToK+88gr7k4Qo/bdgwQJ0d3fjtNNOQzEfBCq3dOlSzJs3D3/5y1/Q0NCAo446Crfffju2bNlSFlmUyGXhwoXYb7/98Kc//Yn1+elPfxoffPABHnnkkaJtLV68mPVPdVKp3BW5FDp29dVX44UXXsCdd97JxkblzjjjDHzve98rm76yBlOTwgFAqAkbR0EjAUAYBZMQkBBwYEfkAAGEGPrwp1v/jW3btw/ryfbwjy/FD35yVVUAgYQuCdy77roLU6dOxaxZs3Duueeivr4eU6ZMAV1z297ejrlz52Lz5s2QZRnRaJSBj2nTpkEQBAZO+vr6sOuuu+KHP/whrr32WlB656uuugq33HILnnvuOVafrsslwDBp0iRMnDiRaQLC4TBmzpzJAEJzczNrc9WqVejq6sJtt92Gt99+Gw888ABee+01TJ8+Hd/+9rdx5plnoqOjgwEGAhJvvPEGAxdEeywWY3V6e3uHdS4K124lAIHAnaclk9zZSteW0DXOlHqYHkoRzHLuua5sZi98TAx0FTQDl9btA9mrWHOCAAAgAElEQVRidGW0uz5dSW2YOivipksSZGiGxq6Zpiasem66OfAcb9chmgYfE6OF0YSq7liga6qpb8pAyGgv8/ECBOduCFmRqwpzDDQIZU5EUDzgwI7GAQIIi3edhv7+4dMcODxqampimoJKNQjUDqnxL7vsMuyxxx5M2P7qV79ip/NzzjmHjYlU+j//+c9x3nnnsZM8CfYZM2bg+eefx+c//3k888wzWL58OQMRBCpuvvlmvPfee0zAL1q0iGkBvv71rzOSx4wZg1//+tfYc889se+++zLBT5oG0jxQG5dccgkDGtTOD37wA1xxxRWMPiqzcuVKVv7SSy/F2WefjWOOOQb7778/EzQvv/wy3n33XXzxi19k9QkgXHfddXkaieFfV+UCBA4kfCVeAgk0EsokgHVTh6ZnSgIJJAQVMYy0ngIPHiIvM4GY0XOaGT+AQAIvLEXZK86l7yYZntGT0AyVCVieEyELMqOJAIJqZFj7RG9IjEAzMiCg4TwprT+XeZDuU+BlljKY5iyjU8ZQC8j4PUSTLCqsT1XPsLYrfURBgsQrrHpS7Su7mQKAwFlpjwkgzJzb6psHgTM5hPk6hKQwc/igMfRr3TC43H0qAUAoeyqCCgEHdiwOEEDYdcY4vPfO28NO+NTWVhx2+BFVAQQievbs2bj++uuZkL/44ovZyX/ChAn4/ve/j+9+97v473//y4TxX//6V3b6p5M6AYPjjjuOqfxJM0APbf6nnnoqTjrpJKZhePXVV3HDDTcwYU6gYP78+bj//vsZAGhtbWV1CWSQWeKaa67BJz7xCeyyyy4MgBBQIRMF9UNg48gjj2S/ffWrX83SSNoHVVVZX0888QROOOEEBk4efvhhrFixgr0buadcgGDHxoNDRIoyAUoncnZOL+G0zfjP8UxQp/U0DFNjgpsEeEF9jwaBNAcSH2JCj/5uaSE0pkcgwUzXJ9NvPC+CLhIiIEOgg07kVE7kJQZMLN1DTgNBFyiltSQMGKwO0UNaDQ48AzEDneZFQYYihJBU+7PlqB96SEuhmRrrm+epTZHd3kRAhgz69J40MTRuaxwmFCHMylJ7jobEoYnaZHVN0xojGz/5vmhMG8KbAjaub8OmTW0uUMMhEo5gxtxWyIpUkChpjDwJX9j9IkSVOgYQqP173vwN3tr+TFZLFACEkfs6g54DDgwLBwggyOkOzFn3CibutFNVIUvlEhyePheTPnZi1QCBTAY//vGP2Y11BApIjU/q+xtvvBEXXngh0xyQgH788cdBWouWlhYmuEnwEyDYunVrlnR6R1oCMkWQ0CezBLXzt7/9DQcffDA77ZMZgMwX5B/x5S9/mQEEMnGQ1uJ3v/sdTj75ZPzxj39kQOP1119n5gLSOJC54vzzz8dFF12EK6+8EmvWrMG9997LTBUEWqhvAhdEI4EPAg4j95QHEOjkTkKWTv6WGt/IahFUWxhLQgi8xwahk2C03xNACEsxNmQSSCoDCj6ndC9AoNOwRH2TGcAJ5LdME0ktwQQnmRAc7QD1o7L2U0wIE+0ETOjJwQPrykUHIBDwoLHRGOlqZtJMFH8skEQAI2WXI/ASleusS4qYqcBg/dN4aZwir0A3VZiGDoUAlpZi9KpGip3evQCBtBmyGEJKS1haFy3FeCvboIQGQuOXBIUBEFpr7Zs227dGWuYRAgiz582CIHMFAEEwJSydcgIOmnUMAyarOt7AHa/9FEkztyYDgDByX2fQc8CBYeGAAxAOMbai4b0XoHW2D0u/1Im098cw5uxrqgYIkUiEaQ3ovns68ZOtn1T5dNInfwACD3Q6JwFPJgc6pb/44osMNBCA6OzszI6ZTAIEDAgEkImAfBTIzEDCm0DD008/zX4jcwOZFKhdMkUQqCDtBdFCmggCJQceeCDzSyATyn333cd8Hcg/gmijOgQg6N2TTz7JzArLli1j9FEfN910E9Lp9LDNRWFH5QEEpz4JwogcYwKOhLD7IUFTGJ9owjQsc4Rbg0B/pxN3WksUgoQCHwQSyDHLjMESKBmW7Z/j4ZgJqD0SnlbMPlHJI6X3M4FJ4IHeWaDG0iEw0wMvIK1aGgSqEZIiDIAQaBjIZGDxoI6BCBLuFvCwAELaNnnQb9RWWIxmNQyaaWkBSKgn1D72jkADCX83QCD6ZKKF0ptrSWZeIX7TOOixtAyWRicsxpjCYe0Ha7Fx46Ysr+l9OBzB3J3ngJdM31TLEkJYMulITG6ajbvevBl9Ru47ofoBQBjBzzPoOuDAcHAgCxDMbYg+/U+obW9V1C0nhCHUNWfrGpkkjH46mRd35lIO+iLGX768aoBAGyEJb2YbzmSsjTEcZr+R/Z8ELQl+Et7sPnpVZX+SMKZ3XhU25ainh95RW/Rv+o/q0Wnf2XzpPbVBgIHekQ8E9UM0UDn6nf6j38gfgsAA/Z3qEYig8vQnOSgSPUQflScHyZE1L1giTRViTND6PRKfhCTl7NHuMhEpzuz7pAUgwViqY10OICSZitxzns91MQBAoDYcL0ZHg0B/koCly4EymnXyJ/BA4IDdz8g0CGHWJ5UROdKAkMrfGgMJbTqlWz4VGvNFIME8kPmENBK0dlJqwurDBgh04mdtMoAgMBCQNlKA7bMhQIAkhmxQEEJKTzAzA9FPpgNHI0LaA9IMEG8JSFG7NHYCFw5AMGFYoMjk8f6a1WhnqZZzGplIOIpZc6dDVISidzGQeYKDAJ0r9KEIAEJFW2VQKeDAjsOB2gAEDqE5+2OnH9wBTg6xza7/0Xuw6UfLAGaH9n9qBRB2HG7vSJRWDhBIcAmCCI5FCpAzYCEI8+MECWpZUIqbFpxKvgCBTuKF5ggSxsxJkReYox8JbeZAaZoMxNDfiV4SuA6QYb4BduQA+SoQXcwsoVvgk4QugRcqT+YBv4cJf8cXw3bSpHpEixswkXC3TB+WDwIBBFkMM54RgCEa6RGZb4HE6M3oGRsMWBoD5qtgqhYAFWiM5Ehp5OpyEtav24i2jZuyPGKgKBTCzDmtkENyRZc1BQBhR/qeA1oDDlTAgVoBhPC8gzD5hnvBKTZAeOAf2Pidz8EMAEIFszIaqlQOEKqh3hLgg4QQ+oQ5OqaD/L7tcEdXe6ycJ8TRCUe0pW024sIRtL5gBtygkRksqkOQLUFfYiQHaScsE0NvFWzM86Rg/HTf5mhpWQBJloIwxyq4HFQNOPCh50AtAcLE7/0efLwRZn8Pks8/ik3f/UIAEHbYFTQyAKEkdu1wqZbzBfZgYywJJA3WiOt9kCipDGYFRQMOBBzIcaCWACG+/5GI7HEA+p68D9KEyWi//swAIOywiy0ACDvs1HkIHzKA0NaPuvFR8EGq5Q/LUgnGEXAgnwPVAgSObJ6heihT52PsKRdBqG+C1r0N6pqV6PjT9TAzCZgZUpcWqo1r4YNAToJWqJrlTOeop93/dtI3u+9EoLL0b3ISdNdzEuEM1KZTj9p12nTq+bXppYXKklMiPc47bz3q32l7ZNbsKAYINM+GCY4PbmwqZW0QrzZuaMOWtsLrnp3bHOunKph7TAN4sTSe6pqBVF8GsabgNsdS5iAoE3Bgh+RAtQAhssthaF52FSCK4CQFyKRhCiI7VeiZDBLPPoRtf74Oph165WZStQCBhCuFNJLXP4U00kMhixS9QP+maAKKGKCQRYpq2LZtGxO6dXV1rM727dsxduxYVp5yDlCEAYUlUt4Cek91CIBQmySwqU0S7FSW7n2g/AtOiGRjYyOrQ0mR4vE4q0flqB7lNaA/KZKBHMOoLGV7JPqoHaKRcjFQOeqT+qfIBsrBMHLPKAcI5FcweLbjkWPfKOqZaRA2tKOj3QcgzJnGMinGJ8mYdkQMvJNGYgD6Td0EL/AI10ngxSrUBwSQz7zyF8E0jqLFEpAScMDNgWoBQnz/T2PCd/8AjkL91r6DjuXfQnTvg1F/4hmsm74H/4ZN3zsdZrqngPHVAgRq0KtBcF/45GgG3FoCRzNAf9J/7neOpsF55z75D1a2mOZhsHpuDYK3/0CDEHyrteDAQCYGR4PQQBqE4xshlKhBqAVdTIMWAIRasTJoJ+BA7TlQC4Aw8ZrfsNNcZu27aPvfZYgvPQZNp10CM51A/xP3YdP3hw4g1J4jQYsWB0a3BiGYpdI5MFQ+CKVTULxkABBqwcWgjYADQ8SBWgCE5q9cDXXdaoT3PAB651Zw4SjLhdD38D/Bx+vR9qOzhkyDMERsCZodBCAIyEASU+D9/ABKM2MX53Ggc67p+qP8EJvWt2OLn4lh7jRm9qqfomD20XUQhGonrzzSA4BQHr+C0gEHhpUDtQAIY0+/HOqat6Fu70DPf++EMnkmmj5/AfofvgtCy04BQBjWGa1VZwNrEATTAgh0O7L3Iac4ZropU9YYuhE4HtZq+lzt0Hxs2tBuOSm6HDcoO+jMuY4PgoKZn4iBq9KnoFzyA4BQLseC8gEHhpED1QKE2OITMOZLF0P94F0k334Fnf/8GUIz9kbLxT9D/+P/hjh+J7T//HyY6cLEL7XwQRhGVn3EuhoYIIhcCrJc/LZJgxzZSLtQIkgwCFRQJEqJ5T9ik1HVcAMTQ1XsCyoHHPjocqBagMArMfCRJpiaClNLw0h2ghND4OPNQDoFCDz0vi3M5OB9AoAwmtddlT4IJoWRlgYSsuVGMzt2YNoCgLADT15AesCBkeRAtQAhS7udvpWjnPFNU0H5EdTNb/kCA6sOB+WgU2pyWdNI8u/D23eVAMFmDGkS7OkuUA6wNxRJIlQXKrcjz4GVBboSpwuWILokjUsAEHbkFRLQHnBgBDngBxD4UAOk5mlwUqTRxS9ax1qmHfB7hGgzmk/7NtTNG9D3zH/QctGPmUZh0zWnQuv8oKCK1DwTytSdYYyfirHnf7/q2xxHkH0f4q5rAxA+xAyqaGgshNaoBBAM0h273jqXeMtdOgAIFU1VUCngQMABP4AgNk5BZPdD0PCJz0Dv7kLv0/ch+dpj0Pt6wMnWVcjWY8JI9UNsnIAxJ5wNrXML+p5/GGNO/irSq9/Ctn/8HNL4VvAS3X4H6H3boW5ZDXniPIw7+3swW1ohTJkZAIRRuQwDgFDLaRkyYOAlkuMKIksCgFDLmQzaCjjwEeJAMRMDJ4XRct4N0DZvxNbbrwW5q485/lyEd9svlx44nUT3ituRWv0qGj99LrvzPr3qDTR94Xy0fedMpD94C41HL0PswKOgblyD3kfvQu9T/2BqZaFxMiJHnILG0y+rKUAgtetQ+7kVelN8GBdMABBqNaukMRj0hspadcba4Vg0iJ19vOA2R6crimKYNW86y6TY0Kpg7nFNEErIpFhLUoMohlpyM2gr4ECNOVAAEDa/i9C0vSDtNAMNR34eRtc29D55HzLta6FufA8Q6e56+6GNL90DU89AnrIr6g48BvGlR6NrxR/R+Y+fwAQHsW4Cxn/1WvQ9/wh6/ns7TDUJIdYMZcbuCB/xWUQPP7FqgECAIGwaGKtrqDc0NBg6ZLqfoca8ouYSHI8unkeXIGIrL0Gl64mHoJ+RbzIACLWYA8sHo9QVUt6tj4PRZ4EE6/ps93XPAUAYjHPB+4ADAQcYBwoAQvvbkJpnQ2qZCsq5zs4jAgdtWzsym173cTrkIE/bCxMvuB6Zje9j+99vQXrN8zANHXVLTkb9MV+C0DAWZiYFddM6bL7xYsT2PBx1H/s00pqO0KJDqgIIMkzMzSRxcKIHO5sa6m0VAm95f9X2ocuZLL86dHAc3oCIByP1WCcp0IYEjtSW/PJaCwBCefwqLF2q5oDjeJgGD46nP3WAY6us2u6ZJoEXAoBQA0YGTQQc+GhywN/E4BOPPpC3NSeAl8MwtDRgaJYEpUeQwbFMOnRzIUluHqaeAjie/a4c+DmMu+zGigFCvaHjmL5tONDIoJGj1of3IVCw2TCxQo7i4UgDko5Od3jJGKLeAoBQLWMp8dPADwlvHpIoZ+8E0TQLIBiGk2OieqBAmoRAg1DtbAb1Aw58BDlQszDHCnhXTR6EMbqGk/s7sdRMw+02WQEZVVWh7bvb5PBvKYy7I41If2hAQgAQqlkYA4MDDjB5iKIE0h6Q5sD9kElA0zS6kBymSX/SUwVQ4IBNGzZjS9uWPF+IwAehmhkO6gYc+AhwYEcECAoMnNDbiaP1FBSuio2zhvPbZXL4vRzHo5E6pi/Z8Z8AIFQ8hyxJVBHtgclDECxgwPPCgB61DCioKky2oio3O1AiqvY2AgiF1z0HTooVz3JQMeDAh58DOyJAWJjux1mJLoznRwc4cM5375s8ro83o01wOXLusEuoNgDBTueTdwfADsuSEgkv7nvAAboAUZZLTg5FQENXNRhQwVUIhglotG0arQDhiuUF1kvD1AH6z35q67vpmUXqnbkzm/lamoE6ZSZYy7mjkoewnqM0MknlSMkxXOFX7O95Tefee8tleWTT60+Ry1OWMto5aW3ZkM1sWFq+Hiv3L782Le9XB7Va/uDW3fXO76VwhghwRmRa8+B0ZrGF/eBsIn4tsjmw1baOV3o+66z33unM/pvVZ9RXpqZzT4gvga4fnS78uvIj0KnqYlEpXK1lmdk7NSKi9+IQcxuiT/8TattbtWx+wLYqMTEoponT+rbiUD1l5e6v1WNlmaGjX8UtqqaJ2+Q4VkQaPgRahOoBgshLEHkZOnSoWsr3O3dfHjQY4+krFwUJuqGDyRDP47zXDDW7tzhFBMrwCQEZIw2BJwDHQTcyRbtkjoOu9ODsxG87otLn6te/01hx8wJRKDOTAq1d2k/JP6DYvkfggNqi8XIc/VeZPGIAYeNm39scR1yDsOTIfU0vC4jxZFtx5K8tQ+0t3MUEki+2sGaizrXXD7ZvZ/fenHyx6ruIKWzD7oPtFTxTE1n7uu3NbYsYj5xjIi4PfdhDsPYcqx0qkl+PwqM8oKWYHHPqekCFNUaHQodGntLX2ORQD7YAdnXulUe+S5QxivhBPLDgDmuJ/WzF9bJ588pHL/Bh4WYczOzitpCBE36Tpc9ux+o19/8NG1o5NDprxapn9c/gAdFkAwW33CXVHOvfQ+dgm1G17wsAoQfguXnung83CCoGabxlrLmxV4PNhwL67Y+N8d318sBFh2LquOk4WN8K4cl/It3+drVDL7l+9OBTMOXK5WU5KTYbGi7p2YzpFW6WfsRx0RginzwG0qIl6Pnet2Bs6yhkn09Fv+/mGVPADfXj0W+nni6ZGaOuYPkAQRYUW/g6O5O1glNaku1DETFKVvXsSEnkpvQEdHJsddavHZZn7Wz2Hmm/I8ChiJGscDYMDWkGFMnRLwSBE5kQ100NhmkioyftfYqDwAkMrBB4kIUQVD0N3cwBDeqLVP5sv+MFyARsDA0ZPc0oIWDCAAgvsbbTWqLogWMggMDzMnPSJTYQdyywwE5f1iht84TOwAE5LDqc0XwBAsmX/EOX67BoVx3VAGHX/ScXAISyvgX7pJn3Mfr8Zh1GSYA50jmnNGB1i+22RYgpAA+uXdkr1NwbdHah+7TrJwicutnx+dHpEe7OcNxdlAqYXFLV3+8lJ3WL+8UU4SWjwTU3eTQVGYNLoZAdjhcn+wIY1+B954opL3LrYVBQ5B6334Q6YMQ79gHmpiJQ4mnf4anXR6kYqPBbf8XWBv1+8JIj0Tp+FpRnVuDtl55DJkMb4vA8Cz95Ir7041+VBRB2T/fjnGQXGj0AgQuFITSPYwuQb2iEuupdcJIIPhyGtqUD4sRJMHu7AUkGX1cPiAI4UYK2ZTOkmbMROf5k8HN2RtfXToO+fl0eA9g8LloCedeF4JUQTF2HumkD9BX/Aq/mn0I/MDn8KNaMDaI8PEwcsl7KBwgkQC0to/VIgsIOSCm1nwnxsBRDQu2zVIccEJFiSGspJrSpnMSEJ722DiZUR9UzDFzwnABZDEHTVQYQQmIEmpGxBTjY+5AUYULd0iBYUIT+JO0BvWcAgufBmRwyRor1w/qme0HEiHU0YX2m7boEICyNEjv7CyFGE4GSSjUIPK8UnFKJY0QX0cO0IxT9kHeCoJEQcMnXbtGYoqG46wBnoD/d74qAsOaBAQRyUtw8Cn0QFu4/ueDcO6Aw9C54P4FVprC3Z3hggVdEKBQDFsWEX5Z8j+Dwyp+KhPsAoGPQfSKr0rdK+gndYsKooG2fsXnH7Sf4nTLl8G7QcQ1SIE+Qeo7eftYHP2E6IPgaCNDZ74oBGL+14sfHsr4XFz9KAY0EEA5YdDgeeeA/UNXi1/dWOw9+9Rfuvhu+fNqysgDCoclunJbuRdizgJU99kL86u/B7OkGlDBS994JaBrkBbuh+7pr0HjzbUj9/c8QZ8yCtN9SQJaB7i6oLz6Hnp//CNLMOYhfejW6LvqaD0DgoHztAtSdchqghABdR/ql59Bz4VfB9fbkDa3T5HBddAzettNLV8O3Sk2cg/XpFuLFy5YPENxtkaAlIU7CloRwFiBkerMa2agczwEEcAiJYWimxoS5hRQMJozp75IgM2FPbZHAV4QwUlqCCWpLwIezpkTSFjCgYGrQ9Azrm96TxkCAyEAMaRno3wQ4FCHETvKkFRA5CaIgI60lsyDAASc8BFbP0lLoNjjxHGcGdFAkk4JlYvA+5LdgAQPv8cgpSSYGr/mLQ1iOQhatOJ6MlkIyU6jZ2KEAQgFj7B+KCSy3MCtlw/OCgWydwUCFn6bC6dw1Z95TIfu3rTIfTOgXpd8lvD0yrPD7dQkdr6Cv9DQ+oMB2+wp47TMD7URu4Zj9u0fZ7xps3jwxnroWRrFvxmXy8SXFzcwizCrrlO8V+MXWlM/vpM2gj9/9qihIc2sr7MQ8TDvmOOXZRPuuxUF8OrwAhADCiUefMuzggOior6/H3LlzywIIhyW7cWqmF2HPhCt774P4Ndeh9+pLEPr4UeyUpm9cB2n+buj+zhVovO2vSN9+G4TZ88CPb4EwfgIyTzwCflwLuq++BOL0Gai76ru+AIG60uoaEL/wEkQ/eQwy77yNbZeeD3HDOnAeP6VOg8N1sY82QLAEdoh9whndOqkXaBAAROScBoF9nvb+wgQyr+Sd1B1zgyXsSVOgZrUHlnlAhMCTl4EFAJJaf9aHgP4tC2HLZ4V9R5Z/mQMCyGxAgt8BZARGSJuRItoNnQEGaptAB5UxYCAsRpFU+7IaBvdyHNDEIFj3khQiBDCTgp9PhkWXAd6jQbC2NI5pTmh7SasJX785qk9hjh2jUYPATAzejdq9/w8muL0Iwe/fftz2OSOXAhYGAiGO3dwLBKzF7SHCR6i5287b3IvwwI9et9q8KCAppT3bbu9ILD/abDcEqxt7fHmnbluQFx2XQ6CfD4UP0GHteCXoIOCAdWEbsci8lPWLcIiy3TzymvXMVR67mGmiiGOnH6Dxmfa8E78L7GTH5+Wbl7euNoutRwuYWqDDxeY8Z9jC9WGN1L2GCCDsPHNP/ObWX1hhV8P4LF16MK646ltlAYTd0wmcm+xEg+ekpey9CPGLrkTnBWch9qXTwClhaGtXQ9p7MRK/uRnxH9+E1C03QJg6DVxdPfgxTVBfeB7i9Fno+valkKbPQPzK76D74nOgrfsgl+zJxQ8tHod8yBFIP/cspLYNvpxab/K4Lj4WG4TqTQw7ogaB1hCd7um0TwLYEXgk2CNyHGRbd9A/aQLI/EBaAeeh3xwfAffv9N56F7bBAWkWcg8JyrAcYxoL2qzIP4EEufUtW06BIq8wXwTaJDK2hoD8CfxUy9QXAQcaA7VNoIGBEE6AwbIdckgxEFK4QQ3opMgpvo6JlgbB5XNQ8OEbzFHR/xlYiH64fRAc4eQ+xXs92738cf3bLdSzh9LBQIn39Ova5AsmyNXWQOAiK2ANyy4+2KndihawKHbb9Yv4QxbAIb8DuFsuesGHd5mzsp4K7jZ9F6pbgDr2/7zfrDazLLPn0QJX+TaQAXlZTCi7gWiRNeE9dZcrD30BWgH6KHQ+LZhvD3BwL/M8/OIxDWX9bDwAKztdA61tn7VKAGFqyxzsFEtiTEOdf8RLuUwqsXz9+KmYu9ehZQGEZkPFJT1bCpwU5YW7I3bW+UwbED3ps0AohPRD/0Hsm1cynwFubDOSt9wIcafJ4GJxcA2N0F5/GcKUaVBfewmhI48Fv9MUGOs/QOKPv0Hqqcf9IxrcUUI+43zO4PGzhpaaOCnuaADBEaS6SZkAtYLTMIEHJlzth0AD8zdwqQslOs1DK8gjQG2T0CafgGL2f2qPIhTIqdoqR/4KBhP0jtmClPuOop50AeTHUAqfSY5YkRAiM10YLo2DdxkUv3+BNB0eHwSnskmWq5yzZl6bjEf+GoRSPjUCHyzMsX1H8EGwd0rPIc4ap7PpOW6Ntkp2QCa4hYJfwcHAgF2n4ETvAQVe4ZgnYL39uuSDW9BmT99u4Ws3nO3ffSq0f7SjC3O9uNv3jK+ALtcJ2i3wsxEkAzC3ABB4eF0gxD0CyBmm5TlvEeKu4wsCnDb85rXYXHqEZXZtuRbZoGGrPm27oyl8pji7ZLPvKhHaRfifB9jczrc+5d3aBEcD4/zmDo2yfnNAp8UcByBMbzKxfe2L6O3aUsqeU7wMqYDDUdQ3tSCV6EWitxMac+QrPGm1zt8fh33+G2UBBAUmTuvpwCFmBnn6Dl4AJ0sw02lwkhXGZmoq+FgcIO/0TArIqOTNZqNUjqmPmT2YTrWsjvWYmQzzXyj3oXPwH+QY7g3XJsyxFMFVLo3smywpPLQ6H4RK6Pqw1BkoD4JpCBDowjOvADSQF82RW4xOqHrlYY6jOlGS10mxpEXgObn61nFtxt6DY5b5hXtSflPu063Xcc8tqNzaC3bSpY8s96OfoHRrnrIgwe/46gII7nLFTuuDCW33AG1RYAX55Z1yfeI1nc3Rx4HRFYFj76CeGfER6nl0DsRnj73d2qGd9i1g4SW9YD14fTi868cXRBYiAj/AYv3mXybbKYoAACAASURBVNbabD3U2NETXmejPNDidOT3Z55fRb4Jwfc78K4f79Rkw1VzL9xzcxBFMbTMAQGEre8/j57O9pI+Ub9CpMptnbcIiz95KhqaJ0LXNLz/xlN46t5fo797a0GVaQsOwBGnXFoWQKBGKJLhK8kujKthqGPFg3Z9N2sMHj+iREnuGy+raDgACFUwb4SrDpRqmeNEdgcDL+QgLvNtYPcw5BNumjp4WudVrPVRnSgpL8xxEMGf3biKnRQL92L2i3ePLjek0W8t+clyJrtc9u48YewTYulHnCNsvKYr78k/T9vg6sjp33F489Lud3IsoMMzON++fIVqvpAZiO9e2ZelwQ8Q5YECuw/XGnA7+GUpKPiQrDcFNNk/5i2pIsDRD+hlVR5+dVijfrAiX1PiXo95zRRbM4Ntbn5gz6cOo2yAeaT3h9gmhloAhPoxE3Hc2T9Ew9iJyKT6sXndezA0FW8+twLvvvxowU2QlQIExTTw6f7tOFJLQinpNDwYQ6t/32WYuF2pw0Ms1bLvKiy7kwAglM2yUVOBTu3ZRD8FVJH52Mq7QCn1nKgGAtTOY1IOHp78DgY75ZYwZI7Dpg3to/MuhqJ5EPxAwGBCyaV+92oNignGAkHvA1J8T7t2/Kg3y5+/OCicpDwg4R2r68TtJ7issXgc5Tx05wSw/TeXWaZAUA7CV0c+exUBXqE+INBwOnWb312e+1kh6RpHsSSH5ItM+z45Fglk82XJUywqmXrUzhDp1Cc7o0o2wUGApe/cOVkzHbWFd8G4kE6B86I9Fm8CLh9tuu9X7ACf3Mv8KI+iGg3XfDrykfYj5ylUaliTklUtuzQutQQI8/c9EgeffB5zCnv6nlvxyhN3MfU92Z3dtmeHzkoBAtWny5o+37sV+0OHVItNtIR9tliRPtPECjGEv8XGIlMjcGBtATUQDj5EByaGKia7jKq6RgJ+oArWvsYLEsg1g0ABi/hgfpSV373g7pHNNYfRe5ujY2LILnW30BiM2c5G5oR4+Xwv+SpoO9NfFoZZf3E2djcQKCbovb/nncLcLv+D0e4SmHmC1TWGbIZGzyrKHkx9LLd5620wQJWl0ZPOuFg9X9TlEjyUidahn0ljitu1IZRbWBbjjd/H4hHIlF1tPBoRgQIBJnMMYomrKbUqi482EFMU8ILIrhY2dQOpdBJvowMZdvOZlQ3TS5dX/mdJ8YAK9/w7zqHWGnIl4bLH5yvA/fwFvI6Gbk2Hd0ILbFOuznz4WiziIqtpYuvQMtN4Nw6i/+DFn2BOirXQIOyy5FM46MRzGO8fv/MXeP2pe5jWgE5TpCr1PtUABBpPo6Hj+N5t2M9UUV+Kv1Ip32wZZQyTw2YA90lhPMCue67thdMBQChjMkZhUeaAqTvpfwcGCoZhfaE8C2WuHTDkBcsRdNRe90waBFtMF+Tizm669iZdjC1+m1uO3baYzWp0itttfU/IXkFedD/2Juy1Cw50ai32ziVMne4t737rRcHG4CY8T91hrSXLAdBu1MWsAUMv7YxleRoSL0BwmJy1q+cnHshP2uv/ARTVuBThDQGESWhCzAyDI+HCAALJOB0mJzB/ioZIBAINTteZ56+uq+gQE+T7zMrqnIkUgQXGEx3MaQiAaujoM11nPDbe/GgRi/+5sXjJJPpY3/Zsud9bacGt+SNP5yws88xf0TBKn7wOWf65P4I8kFl84/HDYxYzs8ns8pwUq/FBiMQaMW/vI7DHoScjWteEdKIXbWtXwtBVrHz+Qbz3KpkY8r/wagCCM2q6m2FBJoEDU32YbmpoZtiwEBDVSn7QCDSTQxuA9wQZj4ZiWCWFoNVQc5D97AINQq2mbcTaYXsPnaqKfoxDRRoHXsjJk1ENEAp4495V3ULJzSs/YeXeuLM55bP4wxKuPnLblgNuTGH9PduHvbP7SQd3o3adLPmOcHY15vSVl0fci3yKCMest79LMDthgblNo4ih3cWGXC4BuyMXdmDFvCDDFncFd0O4Js43AsNuq6C5AmHmGnCRsTvjoyxlE/RGxE3FSj9KoVCUPtekS0ssE0NjNAounWbyn4S+8P/T28Ya6qz5J3U2x7F86Y5AovSlWkZFUkvjLWyG5lzCYtNZENHhtybJ5GHymMCPQYyjxCl0batgX8RlzXZYJlWhgWQmhfe0DmSg2mGdrpzyjFk5JhRESjg0MaxjcdZRExZd4I6vgZ3HvthcFeSwAHDQ4uqdFCN1Y3DoyRdgwrSdsf6dl9HSOheReCOL61678lk8cfct6O0sjI6oBUAgntC5nfwSJmkZtGgqZBgQa3cIc+1KJjLgkeY4rJcVdPASMp67LYZqux/+doMohlrxnGkS3DbAWjU8QDukOcjJjFGsQfCLYsjGved9eh5pY7/Lc1DzChf3ycwtVN2MGwSAuE/QlvC0dxaX8PADOO5iVr1cprxipFi/54vTvLb9UKYX8RQZj3s/9AWr7OKoHKIscEzMhir476xOqCWTrUXoLKDBa9+3GcOmzTkae7szgVCPhCljJoOnewFY8hD7sqhwGB1bNmNmczPM3j7wIRmqDc4j8VjRz4XMELqqIpnpwxviNtDZPk+LlwVQ1oIqOLjZ70VTxDSzGZLJw6TwODJ50EUzHM/s7g3hEKVDQ5qAiNaOJDJZXrF1Zmtt3N27WemeH2spOoQNLO1859vloJit7eE5AUKKYpjWMrdiE0OsvhkHn3gupu2yhAG6nu3tePiO/4OaTiDR14W+rg6oFGLo89QKIHibLsaPWuzLQ4I7akFYzdsIAEKtWVo8/LF2PVGWSK+Pyag3MfgJWLYBMlTlsdvZDkdewcn+nRVwFkOt33IyN5twwzlNu6+J8lM7egjzojw3o5na3y1EXfp7XyFvb8Z+WsJSQEFuU8+ZTPJMBkV2qixYsVWtjjC3BFROzeBoEnztnI65w/Wng22y+Qw8vPXDZHl9FzOduDATo8UEejer2GvBPuA6tsBMW5fhcKLALtx5/IknsaR1CkLpNJR4DBoxxQAi8ajvV0ZDZncMaDpLv/q6YAME9/pxaHBPjIu/zjoQTB5TMo2QBUq8Ymk26GEZ0EwTjZIMg0weioiV2iYkOMsreaCcE1n+exZF0TViZ3pkPHFfFevNveHiRg5oMINK9uMhuiyAUJkPQjTehINPPh8zdt2fbUoUufDUPbfitafutngyyDNUAGGwfoP3pXAgAAilcKmSMkMBFCgSophD5KgGCAsPmJwng0pC9wOcpB01PLPj+hxl3Y5lWRThnJzs2RxQaPud0F0gpNiCsLZdf5pygtI+uBY7hjj9eARVlvyB6PB7V+QmTA+usgSY585NFl7j8ouwPR2yyY6ciIKsfc0m0m9OCng20PyCQ7MWQyMXZ57vIpkZKIsamRl4DslMBvVKCHp/L5RwxAYIJkiDQCQTGYZm51WnBDj0G53yTSCpJ/G62AndyaXmmWuvBiQvyoA5HAGda1JYPH8BhP5+y7eBXCHqG/DsSy9j6YxWhEnbIYp4G1vQy9FNdG5JbXXom0Mji3YtROFesnkOh05z3tsM/RamG+CxNu1rsR3UwhFA+GRFACEUiePQky/E1Pn7QFbCyGRSeOxvN2LlC/dD10q79KmWAIHYJ8GEbJiURy97w10lG/jw1GEfHZsTArkpMosNv6F6gKEGAGF41sHQ9zK6AYLrNkdrw6XPwNooPQmHcxoB62Xh4xIsWaE2kENSXlq5XDa/PN8DTy+OYMyCCHfKYB+aHHcoat2dMdBp1hsCZ0GI/IYc7UTBqXEQHthMLEiJnAVGjm+BPRjLOc4nu88AetPc+KwROZoHli46mxPCZ8Jcg8lqf9g1ro55werUUb1np8EEmjNRKCkRPX19aInFofM8kqqKpngc6Uwa9bEoBI3uR+ehGmQ+0BBvbGBhQhTySPNA/9MoxS51aJ/w06kEXg93Q0WR060NwR1ZzWyHLvBEkUfRLgWTm8dDorgkg+6c10FXDW9sb8O0+nrIdhvvCNvQw9NVstZJ32rLBSA9gM4NMN1aBTd/cgqgQiBqOUjavheuNV0EN2ZLVJooabcDj8es3ZZiw6pXsPDA4/HEXcux8oUHoWv51x8PtP3VAiDQ+OoNHXuk+jBHz2AW3c5nr/NRbQ6wTWPkvL6N4/GWIOM1OYLVcqimoZKVi58AIFTOu9FVc3QDhAMm519Q5Tq1OR9wVpYUOyF76hTRBNunM9fkeHcI78k1L2bf0jkXSyzjiLPsAc6lMrdD9W338OxZ2zq9usLeCnIj2HLVIZM0xiU7Lrt4Zama7VTGjgraCT/MI9gSyRaj7DOqfVp1L+m8+XCc5BwMkO0qZ67wfg4F8+rq1l3W8oPIATcrZJdjACGWkSEqMtMgkMOhrumQeR4ZVUV9OAxREoFMBpl0GqqmId7UBJGu8LXnxSCw4CQe0Q1wuopUOoU3wt3IUAISV795Gho31vGsF2ZiSNWjrzeFekmGEFKwpbsbzQ314AwTdYoMjgBLOoOVoS4kBAuIOO3n/rQ1CTnIZc9J/gdAzpc0TRS7Qc6bvPNvk2NphskdROVMkDsE+VUYNuRW6W+OvwPjvUuv4/nG3KmWy4liWLDvkSxjYn/vdrz+xD1469n7WDRJOU+1AEEyTSzM9OMTqT7MNnWEOTM//XI5xIxgWVoXtFI2mxyeFRU8GK5Hm5BL/TwypAUAYWT4XvteBwIIM+dNRyikoGGqgrnHNYGix4flccQQmRjs3c+SS1nNgSemyylle2LnCZJCqeL6xaNW8PMN8AKDIo1nT9dZYJHNVJATwHlmBLci2G7UBWYsYZWLn/cmxnFOqllyvDLXm7XRg4yyYMIzPg8JOcVl3kVJOazg54fgFmFZPw+74ayvhjPJTqiFv+9f4XoruIAoV4RO/+OSCur1EHgpdyMe68qwgEJdSIGoGzBUFf1qmonPurFNzE/BUVGQNgF0v7rt1wBdQyqTwaZICn2CgRRd5OIIUhYd4dGs5JlMLE0CCegp6XrIkCl4EookMfDC6TqLXqgLhxlA6O/vxppIEgnRBRAK5sjRI5GHc5aRWd2a861kEz2ztWGVI6OL8zCfUWdesn3kHC0LQXi+3anSKAZRUjCxdT67b6Fj0/u+eQ4G22iqAQikJTgw2Y0T0r0YR45Zg3W2g7ynINwXIeL2aCPWi9XfCFn5sAOA4Mc7Z88t+SBX+QTUrCbdrNm2vt26rMm1dyiyghlzp0MJKYhNVNB6WAPc0Q81I8DVEB1jaI8XRQM8XUnBohjyBEJuc8uFAuaS7WSFm+f0n/dPj73cPZCCy2lccttSjzs9UJKfIixwwAo70ruFV+7vhcoJq7ECR0lPFxYoyHXsdizJE9TFrh3OnuDthov4Djjd5l1S5K3r4k3RxeA5cfqNkdUt4iHjBkF5pqUi80vlZYODooug/ylpDpEMXXAiAJLIpiwmWU6CRiqNlKZCN000N49hkQoEBFjWQEfUUtgFy+YHJLQMouEQDCWEDK/jPb0DCTNdaM0qvIyRDVE0eUxMRCDz/4+97wCX5CrO/XtyuHFzztqk1SqHVZaQhIQECAEGEwwiZxsTjEA8wNgGP8zDJmNb8GwwDwM2tgETjTBghIQQEoqgrM15794wefpRqft0T89NG7SAhk/s7r093adPnz71119/VeWEbSLv3heRLQGDci4Hv95ArV3DIwREGCB05uRH16GxOZ2iW3sm8fTTuDix49m5QFAeWPAJWCwuyDJRmqM8fE/bQFMK6fifhMXifIFCQpIlIteeLkCgs2yqDuOllf0YJPrkt+xD0tZbkMPf9s7E0FFuwe3sdmike7q+19lUBdns1Bta/aY+Ki72xUDe+if85kBSBghbt2HXjp2RGjuFfAErVq9CvlBAYW4/Zm5aDS9z5O/LruChAo8KJVHJXNqgLb5vlVqief+h3+uW041UwEtQzk90OyEZELVIibnlvNM7S9j9SmBcidJVMKBGnO7P/UicPQ4h5IjIdS0Gr7S4S0XzwRN08QvS4sLtPwhryMVkDBPNUTAmYzC6jj3h9aY+5vbjcS7UpcxUp22LnaN/KIXyWAqFdA6ZQg69PT0ol0rclM/KMNcaDZ7XZq0WxGikTBGQohTHdhvNBkkTmyjmC/ByeWYA7mltx0g8FTHy+KNIgaaHQILNe7GVwtJ6P4c2uEwqhTR8H319fXigsQs7vFHnySSsh8C975y4SKgr/mvX4LsGWP8eMArddmPn+8kaBA+l3gH0DszB/l2bsenKl6LdrOMn3/yHrimL2VwB85asw/ZH70GzUeMrpzM5ZJgF8rjD46mXPBd7tj6Ee37yTRTKfZi/YiOe9PtvnnKzpsWtOl49vAfruBztb+eHZvCrXgH/3DfziBRhmnjWnmAQeAvmGgakISJgMNFO2mVWHbF3VH8nZ+SaLUfow6L9NrB961bs2hkFCPl8HsuPW4UCA4QBzDh77WFjEMj0lNN5FKlWSKuJQi4nujAKwfpt3r+H6goQxNiFM8CxZtvFlF1wDar5IRM9jvCUUVbCTX0U9kLPFKKF2OPQFMbwj8CwdlC0anHdBx0lOMPKjnYR0So7xZjii8HEcJ3mUn6iww8hVOTHkW91MhuuBYlTsU7Ovwdk2ymQY0l+uqdzRv5ZJoYAhBWQc9H1qHIh/a+Wkj/J+FJsfDIfl2FIOj7T9JBueZjt9aDcyLFwce/YGPLpNGb092PJvDncBc1vaJnldIpL+96LncghjQX+DC7HTJ9iOo0MjTuT5oV6W3Mz6tRaJwB/zhrlCovOv1OdzzDrp7G4MQPptocZ5TLrJUZrVewbq6BeamI7DkarXEYeRWx+nMU+4X4RZ42UDXAqf8mV4hobI3ps0n0fFySkOZKxv+Ca12Lhio2477bvYcWGs7Bn28P4/pc/gka90vmYPA+rT7oQG899Or7+6XejMnqA18dxG8/Hyo3nMFAo9Q1ixryluOcn38JtN34RV7zoemx+8G6cdME1UwIItE1fPbofv9ccxeNJwE9mbR/KMbQ6tvse/rxnNrY9LqGGJwAC2aR2i3ZA+m8ia9T5tKmYWj5LOqq0k5Ic80B9oNlusbaqQeznYfpQTZKCXptO+eijj2Lr1q0Rx5UAwrp165DKZZCe2YOZm9bCyxwaI0ei8MV9c/DkjWdjzcJlmNk3kNhefKxaxWN7tmuIIX7TXZhIoV7dgyV+31H4wQR58cfmIouYdxbuieGu6cKK4KoRICNS486iQmagnQp50ThK1ySMxHvRi5vKvbPUsiyqyBJNqFEg0xdzLx1X1AU1pCNIatoixpJEcBTZp7i70PX0d6Ly6exsbnVCSRjXNjBgwseERc7QgZVzrpXseODR+9TnSQzNAm8Q/c0C9u3Zi10jo5hTLnOxohUL5rPWwG82+CVs57I42K7goSa1F/Ywp9WHHDIs8iNQUcxk+YWto4nb65tBSoTED933eO8Kd2D1MHu0l9mN2b09GB4ZQ76Qw77hEbSKbexID4tAkQ24gVSZAFc/4oKkMOxmiyKCKhJ+GAIBe3bWn6RzU9PUVXYryHNpdxRKGh7ahTUnX4wTL7gaD9/5E6w6+QI8eMcP8Oi9tyJf6sHArIXBaanWwfaH78a+XY/hymvfhaE921EZOYBf/fz7GNq7jfve03+ZTB6brnopBucuwVf/9u1IpTJ42iv/Ao/e93OceMEzpgQQ+totvPXgLhzvTRTumMpO6yE9Zy7SM2ehft/dQRUvL5uFT5s20Z+85j1kFi+l7jpoPvLgVC4wrWPrvod/yJXxrVL/YesQOfmBPAEQuIHSNJmDXCaLYi6fuMcmPQPa8+tNKuYm7NuhfHKZDAq5PIdhZa/x8cgjj3QABGIONmzYgEKxiP55s5A/cREqqUN4r1o+zl5+An7vnMswu3/GpO7d23juooijH6fY9b2TGxmHMZQNNYGKVc+uo0xwfIbj7nfyVhutB2Ceu4EUU/zHqXgHmAQ+eoLYMhhSzEXsDBV0Lo/Ay43nTcYP7UAz4yw1t8Nfl8zSyLfjTm8CqI7Ex/mhduoy3HM6pjMRpMua8FFs51Bu55A90MTekTHMLpcw1mxh9cIF3PWRaiaMoIbdqQr2takvgyx0Ko9M/6WVicj4aZRzeaSzHrb7Q8x2JDP4kZF1zE67RYJJH6lhoJDJo+U3Ua3UWRHcyrXhkwg9A6S1HrqIFhxkEDAwsUm1tZXw2KKRrCjgsMOTRx0Djfoq0VqNhxhGhnZj/vINbCSL5X6c/uQX4Kt/dz3Ghvdh6dozMGvB8iAu3WrU8dgvf4Z6bQxXvuTduPU7n8eqky7gKorf+9LfcNEo6lS3ePXJuOCa13ADp4fvvRnFUj+e/qq/wGP33Y4Tzr96SgBhTaOKN47uxdwkhipgJal4VmjUqYgMi1aDilUevHRafsZtdVPIn3cRMus3YPTvPwG/UYdXKqP32leg8p//gcbDAgYoNFW66mogl8PoFz4bPiHTCZhGIxhHSsfR+eK0581Hun9QxtFsoLl7N1L79nakQP+gncLHBuZzSeej+/ndBgiiOSBJ/9TnnQx0MVeYlIGMP9N6o46xQwAJ2XQapXwxcu2JAEKxWMQJGzfigmsux+dv+TbqCY3VJlp7tJecMHcZXnvF76O3mFy0Lukc3klWKMlNu+p2tbjXr947xfybzRZS3M3P+VgNhNheGSVxYuEHB2eYXU+uk02/TejgN45AUnYRMWhxPNKxzLqsu670slH+5tU6FyBwZLoIMlyREItmUiQ+HAJXzsaTNA/RLIxOWjwAN22Zq/ECC8GQgzlkNzwqouOOZtrSWTUYBg7p+3MP5jE0UkF/Lo/hRhOrFs/HMKrY0T6IGrVrSkjbjN97B1ZMeKZB6mowPDG9USGpIUhtluXU5AiWsgsttBy3jMc9Qn6StCQiItYuyEoYCHsJrPyO/DuIb7rG0bl6UiVFEiUuXXsahxl+9l9fxN03f4N7XCR98oUenHXFi7DmtCfhwO6t3OO+2DuIf/3IH2Pk4F6ceO7VWHfGpbjzf76Gu276GgM5Ah7P/qO/oeKW6B2cMyWAcEF1GC+vDSG+BaVnzkRm5WqABKy9fajdchP80RFkN5yI7Np1aD30AGq33Qa0GsiefCpyG05E89FHUL/5f5CeMw+ZNevQ3rcHtVt/yrOTXbMW/X/ztxj71EdQ++lP0N6xHZnVa5FZtATNzY+gcfdd/MTSixYjf+rpDD6qN/8Y/r59yG3YyCAiPXc+GvfcicaD90fyl/1yL/o++nfIrVkvNFW7hcoP/gsj73wrUpaaq5P9Uz+Nj/TNxfBRF2NOHSBY/RFiprjSqCNIlSVKPF70Q28Biegm82FhshQmEZFyl+8R3+koo4JTj/ed+PWF7Z96zh/NQV+xPC1wILuCj9FKhcMOU/3QtXsLJS55HtkqJmAQCCCcdNJJ+JPr/gQf+c/P486dj8Tr5k04lIFsGe959qsxu3+w41jaM6kmDW15mUw6MjeSxTDRp4t3b1/ranY6gHkXq2tIwBkHs6yuY+WkFE484M4bitD1rClIHovQzY4Gg5mTcALCNBrRBwR6DWYxxIyII+rGQhImuJtQMpo2ERiWbvUfYsy4c6ForCDxbiOV/OSrSUzPRPPtnpuyBmiToBAIVepOZ1JoKt0cPGYz6nGwEO9t4DwjN/slMpt60ghQ4hvp9Ao7nguHF6QFebCXRdFrcCk+G4/H8XzlcUcLLOk3Et+JhIlkR9styaxYQjpcerjonM5mTdRKe/n6TRg9uAe7t9zPHTO7fejYvsF57IU3ahU0alUMzl2MfTsf5YqKc5esxejQbhzcv1M8dhpOOoNZC1Zi3vKN2HTltVMCCJeNHcCLGyMoxgZUOO9C9LzrfWj96l6k5s1H/TvfRGvLYyj+wctQ/cI/oviK12P0o/8HzQfuRf9ffRxjn/wwmo88hOZDD8Dr6UHp+dcie+qZ2P+S5/K9lF/yShRe+DK07/oF6rffitHPfRrpwVkov/K1QKOJA+98C1J9Axj4wIfR2rqZR5Nesx4Hr3sj+j/wUQYijTtuQ27Tedj3gmvQHhkJR0yOzkWXYua7/wKpwRloPPwQdv/xq5F58FdS2Mv53O6n8eG+udh/jAME2v9y6SKyqSxXKpVSZRLGarYbaPst5DPFYN+yUBodU2tV0aJqp7xU00inszwP8j1dM16Kv19rVhho5NNFLp1u4EI0XnLVQqaIamssCKPZflvM9KDZqvP6azTraPnJdTvoEbRb0xMlUuozsQdJn1qtzjVb6N3L5bLI55NVNK1WC8PVsa7vXLdfUAn4UqHz2mQrHnroYWzZspnnnwAEPS8LMRhAuP7667FraB/e8S8fR2MKLALtMWctXY/XPeV5HcCImJhvffd/8Iu7foVqtYYzTjsBl196TnCct/GcRWbZxDDq3XVQ0XbXypHK4rLiP/rSBF5S1Dh11f+ZLtCcqzibqx22JJvCyRpwWy87xiB2VSfiH5cpJkR/ubpbNwBjsfnwCnGq2CZPdArxUL78hL/jeJIWzrEeB5NZcTKCKOsSNep6dVcq71pmZwyuEbNMj+DM+pfOOVWjyFkvocDU4upcldA6o1FdhIluyjqtahEsmR+PdQFxEOeChDCkM8EFnIeRXBI5jCwI2NO3QCnybs8mBAz2wnRa/8i0x5aW/ZPrNMRWTDAGSnM8O7mbI23C8twngm9J8+NMShyJO4dPJ83x7OowXlU9iN5YiIEAQvn1b8bBd7wJ5Ze9hsfdHh1FevESDL319Rj44CfQfvRBDH/iIyhf+3JkNp6C5h23YfSGT6C1fx/KL7gW+Suehv3XPgd+rYb07LkY/L9fwMj7/xS1n/yIM1S8fB59b3wbvHIZB65/CzJLl2Pghs9j+Po3E+2Fvnf+OQ6+449Rfv1bUP3av6K9dy96rns39j3varT3kiYm/LSzWaQvvgzlK6/G0N9/HKk7b+8AB3T0pUf+NQAAIABJREFUzX4aH+2fi5FxBTETvQTT+f3UGAQy7BnKNPLSbNRJmyRbiQAEWk+5dF4MlDY3a5Cx5mqodWaWcumCxM25GysxxvS7BhfgIh1LLpXnnxMooP+lQGLjOp+fmKtMiuTV9GcWjVaNj6Xf0YfGV8iU+HsEEmgs1WaFj4l/JDN66uwBvWblXBHZTPJ3zamrVuucWVUuJYch6LjhyuiUsxvK+eRrU9G4++9/ADt27pD3ghysVAoEDEiD4AIEYi7+1xc/jm2j+ya9aHJeBq+/9Pdw6srjO+fSBw4MHUQ6ncJ3b7wZd951P97+lpchS4XuaCemNMfQ5pj3bBRI8ubjGse4AYl/Q7aimLQrhiciJo83PGc35ROIwRj3o15pGOZ0UIdt+noCM+J83TgoSSLh+RhBM3In2jIxAEtyLTEaNoex0UYMhLm9dk5aFM5d603I3m0DdFT7wc8I1Dh0VeQaUQvvRvLjpaSD8HswZFN+krHXH8axkw/Ua034GjJpaSaC7DmWfWGUfxx8RZ+vmSv2L1LEQqeQK4iHIEYw3onT5lvnOmlhuJk4kalwHrhW0gxv267lrkhbwV0u4v7YTYRxOkPauklcv24HyYSX5yJq9zx/es2aJr2DdDlwOgBhWbOGN4/swcIOgHAByq/8Q4x8+APove7dqHzxn0gAgvxVz8Doh/8KPW9/D2pf+jyq3/0GUvMWIFUuo+f6P8PIn12P6g//G+UXvBj5q67B0OuuRWvPXqT6ejH40RtQ+/q/oXrT/6C1Yzu/QL1/fB1S/QM4+N7rgXwBgx+7AbUbv8MrKXfl1Tj4ptei7y3vxOiXPg+/VkXfO96Dvc9/Btp7ogCBV0A6jTbpYaqVRCBGj+t7yOBT/XMhRbuP5meqAIE8/BLSXkZrepKRJVaAUtsa/DMCAGTcaU9h488AIY1Gm4R5xEDkmSHIZwqoN6tq9LOoNsYYfKS9NB9PIF+AguxpxBZQWCFDzAM8ZNM5PjcZwmaL6pyQQcwwQKg2x/i7hUyZjyGAEf+wXKULQEgqp2/f70bxu+cnj3psjGpIZLoyCHQ8AQQCEZHXnx3Z5CIt412bGAkCCLt27WS2juaNDHYSQKBCSX/5lc/g7t2PBJemZ0W6CgoT0JySs+eGQAqpLP7yuW9gYWK3z9Ztu/DZ//c1nH7qBlx8wekOg+CGGJhCDQ0SGeU4NZ9kVIOf6Ttir0pXky6WVMYaodRDUyG/d186OxsVhgmN//jXCKfD9cqiTzUabuYFFkMNYYghNr2aFRDgD/1e0piS7iRYuPGIt85J4L3G8ZIU9hfBFNF2zu+DsQchDKXQ49Nps5uwr0WKNzm3LLeneNIn4aHUMLDIJQuHDCBFV5JQ8XouLktM4sDgB6KPYMFgsIaMNZIvdQDR4Aed64g0EoH2wnmWEh4Nxx99mtYn2+mqKQ6WzHXiPFk8QM/Ex0SBWXCN4PvxVNakmhwhGLzo7Ct+owBCqd3Gm4Z34uSYrp9DDO94L5o/uwWtRx7EKAEEChU878VILV4C/8AQRslTHxxE4WnXID1jJtqNJkY++WHWF+TPPR+FK56K9tatGPn0p4BGHcWnPBW5c85He/8+jH76U2gf2I/C05+F3AknonHPXaj8yxdRuOAi5J50GVf5rH3tK6jffSdKz3k+ajf/mEMRxac/EyMf+xDaI8NTtu5V38dHCwO4qdDbLddmyuec/BemBhDofSAKnx0KtdwuQ0DXzaeV/tZQQKstKcb1Vo0BQyaV47+zd98Y5VBDNpXjv+cyBQYIwojp7u1RimCTDT39hMAJMQn0fQs/2H5BAEFYA6HuCcwQy2ChDXdeugGEdDrNqYO0JxFLQuemkEGwz3bRANjv6fjRsQoyBFwL+XEhXxwgkMdPmQm8J07x2gYQdhKDoOFpCjNMBiDQcz1p8Wqcu/ok7B7ej10H96PRauBH998R7MUCEP4wUX9A19u7bwif/fxXsWzZQlx1+XnIOAzL5DQISas2waPs2AxdZ80RYXV9CRLo0iDG736JXWuLl4cX6fh6wq4eGvPOjblbiKGbXiHxPro0p5JylVKMKoRgUcMXuUX9h0uodAMZrj6Boz6W/RB0D7JvhtUpzUwFiDvpZmJIR/CBeu8cknFabCvgCFsXh19O8q0CINE1rKPAIAgzBa958BLFhxyEonQsBiQ7wgRG4MQ0DnZ/Fspw7zdoxT2ZHVzPS4CJQtNh5E1mIihI1hXdhheZbrOmyQxzomOmwyBQbPpJlYO4tj6CksMi5Dedg/KLXsHagPbuXeGlue5FBj4pIo2uop9RCmODfjZekEq+S9/zx2tfnclwyqs/xV4U480PPboH2yn87/452J2aBt090eRP+PvpAIQyUl6GaXxaiZTZIwK1BoNgCzE0/RZrFWrNKnLk7asXT7oCWsz1VkVDDkX29uutKgMIAiAcvPB91FoVDjkQM1EnJoIMaLqElk+hihwDB/peCABCR4auTYwEAY8kLU+3EAN53bT3kQdN2QK1ZpMNtmuXxgsxVCpVrtFSLBYCUXnitsghBmI6wnNPeG0A5XwB2UxnDw8a4y9/dT92KUAYL8TQ+PVaf9cXP4ZtIxJioD1v3fxlGBobwezeQayauwg/fuBObDuwOxh6LpXBGy55Lk5Zua7jdujan/r0l5BNZ/HsZ12GYiGPXDYco7fxnCV+IMyLWShW3I/ziRhUl3zQ74TpgXKeJK+ug9F3qWE9jzzkTh1BIBqzZjdO0xt3YUVsUIKDl5wl4YzXaCPXC3R1EIleaXflLxsu16OfhKGQ+QsBhTvmyDw75+JsAzOGbNzV6AZIisQwnRfv+EkEeWnp4m6FlgIEpg+vS4w8BF0uXJLv8Hp0iIE4WSAH2fmjoZ3IEjYmRk8WZUaSiig4L3ysIAkDL9NWjPNORECFgYFxXyIjNUI9D29yypJRs6Zl89dixQwfU2nWNKF9mcQB0wEIZBwG/RZed3AXTuHOsPpMi2UW/LV2bpdy27/hn2Ef+IdcL24s9T8O7IG8AFMptUwGPJvOs8ff8JvM+pFxZnqfwwh1pvjp+ZFyiLQCrCvyPA4r0LGWpUbevukIREPgsUCR4+do8XUkVCEahHqzJgAhU9JjgEargoyXQ71dDTxdYhcYhJAwkkMNyXvokRAp0jlHqEW8IxIsFZM1CNMWKWYynOIY/4hI8SFs2bJFBM+eJ/OldRAiIsWD+/DOL38CNT/5HUpiwFmkuGQ9XnfV8ztYERJmfuijn8PB4RGUS0UMDvTj2hc+HcViXrbZIIshwcB3e4cD2xahvt2iRKL8n5TxCaIMTtpCgkUPw+7GQWu8OD7IWPniUAKWkE+fmMkgi9IFP64t1192Tk3cECa5zQkTGimIlMDKGNAxu2slkSXO74SAFFgFtfwdBBKaYKPXddO2SI3dbwLLE4YswsHJ4zH2IKkDVAjmgmt3hEHs4vSnzHkHU6PXsXs3uj9SGYsfTjTlxW6DQw1OhgAb+C7PJShSFYSJoi2bbR7cxxxhLOx2OIwRfdBJAnfOntBDJWMhIaDm+2ANwoK1mJU9iFt++B0MHzxw1EzryWdfgpe/+X1TymIwfc/aRhUvGduPVQ5IOGoDP8IXqvy6EdX3Unl8rm8Wqlyi7PH4TA0g2AjJuJPgkI2QpqWbEJAMuuirXPaPspJITxB3G6IGg9Mm9Rgy9CJaplCZ0P2yp4o6n8ueJ2i9WIPE+oWEl8idYu0QP500R2IXeopUCr7zuUXvMRq6tcvTyMaqY2iMx1h1WQ5ybWJxopsQXXe8QkkGEN76tj/Bx775Bfxi50NJSrlxF+Fgtox3P/tViToEztwIQsNeIFDkZ0YMgjw9d4NSTXpkTYgxCn+UtGA6N0dZGLHdz/XoxDLwRh7YJ+dWOxemGTcZSxxLsKcXfN/Zdp3hBpXsmHEIqzEyUeAcJ1kG7svihCXUaiUy5F0YAfdeQq9fjW3sOx3sjD2kYID6gga0gvPKBWEAM+QCeBwCRP6uBjjy7ndMqt5zUi0Cl0VwjLQYv/AlEK/a3RKi4C6cF3tenWg1cZ4nA2pNWBp5sLqGnIXP59e14+o4OgCFm54aZOE4SKvr2hVti6uF4eVlNSXs4u5r7gEXnnUFVi/diK988TPYu2vX9JIWpmm/Lr7sCvzZX/71lAECXY4kpsfXK3hOdQjHofVbUXaZVucB38MP03n8W3kA+x+X0II9zOkBhGkuhWPua1IoaXottymLgTIKpvOhvjKVenU6X+XvZNJ07SgzMRmAsGHjCbjwmqfg8zd/E/VpcFa0H5+yYBVefumz0FfqmfT4IxqE0NuL9/t1vDveSCUFLRKr1UsyFuio2BuhGhKMeoJFDQO30ZsJgIydMwGydLj80VOEokOXwjIUY565WFA+FXO+ZlRC2l4292i/BD4qUmM/bvk1WGIGqQsFL7arU9DW7cmaxiH+e3lGXfpMKDDrOKcOWTx6mY8OgiSgNOxgJ9NArS2DnLio1zlRhNOJTxPF7gMQYyAlNlIXiCeBss4lEp7A+V3yvXWfaX6CttA7PH+dK7dCpXMqN8wR17yEbFF4YxRiuOaq52PEzdOf9Ot9aAfOmDEDGzdunBZAoCvTK7OoVccllWGc1qphJhU40lvrQuQc2oAP87dtSdGfo76HzV4K38uVcVOhB5WjntbY8WZPKcRwmKfmmDjddIsl0eCnW2q52qh3bfQ32Umha0upZXkLJgIIVGp5YD6VWl6CMS+5NsRkrk29085btRHPPOtSzOwb7GAyks4RFSnqgLs7ZmJshDGKx4fGo9ro2M7YddSOdzFiXTwr42Q7bEAXYqObEVR7Hv56nLBDgGwozcYNjfC/9MJsFGUGQ6/X9e7F6nXsLy7DISrDiMcfijI7H6MwHVZ/oMvW20U8aWfjuJ7WNrCfMevQRWtg3m/IBsoNBPR+UMLYrDw1VnGKHri3EbPQXVmjWHvv+ExE5Z+hoFKOkz7nnd+xTAXtK6IH8FwYSNGfCROSML8W1oovxvihDvsQDWHJ3EkxmegIL9z0FFx16bPw2ObH9BdHz7QuXLgQ55933rQBgt1JFj4WNBs4tTaCue0m+kkIZg3SJrOzPQ7HSCQeGPbS2A/ggVwRd+bLGEmlpuG/HYkb+N1mEGSzAVoteh9iFXwnOd2cKZDNc0phUsiBdw0SwLZ9VBu1aYUVug2FwAH1gqDMC7qPbs2a1q9fz83r0rN6Dks3RxLrzisP4OmnX4Q1C5ahv9SDNDWrcvY42n+JJdk5tE/rIJDC11Tp2iUv0uY8wTsz77KbDl+Mv/SX79j1JjBWwaSOsxe6MZOkhxAamS5CPGejjxukuPGeaEs2Cp1AUNxjj3vBrDlwGHaiyiyeT6kyIYuTkGURtx5JSM4la7RCoLE9/Iw1Js/olUviE1UXPmABG85jCwYksxz3tgksJmEyjrtrCqabRdBqSdnpTIa6OkrOr33cS8VjlDxPzrG5fJYzBGysVIehVffhpS3106MKuQEQCyIgdkFiRRIYGqmsKJMo13Rgx3jxpPgy17GK7CH0FBLeBgEH/Kp0vmgsUly4HvtLLcxfMD9IKZ3kHnhIhy2aNQ8XbTzzkAGCDcK28qyq6LsyW4c06sP3ZdLKNj2Paxw4LsDhu8AhnekJgBCCBPrb9DNJxBGSdzR4V22z0cJFh/SoxvmysKw+tm1JaPecy2PF6lXIH4F2zyRSLadz6C/0cJuEQk5qVFBqK+1Z1WYNB+pj8E4+XzQIAZ02HuXt7l/drCajOp8NQMd+qpPB9fgnUIR3eHuO0SLjRtdwP6ZziMfTk26HDJSrQ6DzuNVuxWjHDJcqy1njkACYop52d0pfVmFoMIJ/0vm1NkBcEEfjIZTLKcw6tsTHlPRMHGKDMy0DnZ5MaGAveRHoS6L9F2iO6NqZLBU/kTUSvb7j+crb1fXjxvjlIH2gOj6756jnridkoCOmVdaFAAsqucsSks6ImE6zI/5LNO5hqWzOlFHrTS9KOptCsyENhAwMB2EFRyyTyErwRCXBpoQU126MlU74hZuuwLKF6zB44jLszzYwdgjxTymAI5vAZD6rBhbgaevOnhJAmMx5nzjmcMzAEwAhskdTdUV+74xNmMitOxzP4PCcg4Sc27duw64dOyPhi0K+4ACEPszatAZe5ujcF2e3+GPEICwiNUFwp0HuOCurbfeOqvqD/d2+FRwWborxDBXbxIUNN0GitreNCdpoNBFBZEKsvGP/7aCpOyfSWlPzQmLXzlGqmuOs9fYDr1tjREFrTp0T9/6SwpGRq3sEQISvZrOoMf12S2lvLVnsitjYYMbYALbh/GPXD3UPEqg3Dnbj+7YjLO8kZA3U4HcxpoFNN0gZCABdiBl9aVxGQuxm0IghyFoI0Lt25XSZhGCJReytAqwgjGPNo4IJSgwnSPpkAjgLevTJ2AxsdlAjLmjsMOwhEjMpr1UQDQBRUL7ZdDwGbkzTYOMP30gCCEsXrMOsE5fj/sZe7K1MvaCPgFAPZyxai6UDc/G1+27CWGPitrUbZy/DH5x82WEDCMIg+Nqi/PBsrofzLPQEWwSgDudJj9i5ngAISVMbmIEEJ+6IPYpDPDE5J9u37MCuHbsj2R35XB4r167gDrQ9C3JYesngkQcI5CilyF75yOQ9eMeftUBIUDZi9H96t10mWIq/pJDOhFkHARvgUOdkQMXOxMyVOYViKbtPrWuk9Di3B6Ok6chW7NZrCJw7E+d1u0Jidbx4yp7rmjr3q2p0ATohTS7d0ARWSWqbUxnQnQaK9ycI/+JDNdIk6Rb4dyrtkLmWuYx4u+70J7Ie4aAsLSlyrdCB14fpAhNigUIiQK6tY1CiLmANghuJG+ew0FISCyDLx5k4AybBEqU1EA1x0FoUhsienZbGjgCDcDICVkCNaHhJYk8SgHH8Yeha4Fu3ofLpo2m/BEzctWkAkMEwN2eRW201pUq+QQSqpHgoAIHW6EChjBPnrcK5yzZgZqkPP9l8D+7Y8RAe2LN13K50hwsgkAZhTquBhc06jmvU+e/0s3Epp0PcdKf2dYauGE5lsDmdxSOZLB7LFDCSSh8jeoPkHWAqdRCmNh9PHH00Z4D2gq2bd2DXdspSCvemfD6PVesEIAwszWPtNYNsd4/oJ/ZaeutOmy9bJwk1hLzljSpNHq8p99UQs1FWLt4tqxsMOHSiujpfhhnoXOmMCDSo8IRszCK0C1vFx6yaGQszRJxJIZQzfz9F5X+dzd8JnSROqtb4Z5EKi+rE2khsPKBFlFqf5GNhQx1u8cIKJIMkOyODrtgxgXEKBAsJRUOCAlHj36ikkPrgfgldMFlQVElmUk4YHJtiwBPeiwEBZ05susYDfc7hFus3EGFAoNloheEnWiNcflmEn/JMrF129xclUWDujquDIZFnFKSeMniTZ9KoU9EYKg1NDFC07kQIJjrHQuzQRE5Mx7cUJQkOkvvlUssLp8cg0LgXD8zGH5zyZPTki/w65zM5DFVHWZx14wO34bsP/hz1LhUGDxUg0P0Ntpu4uHIQZzaqWExZDPyey8wc4a1uki9s9JVo+j7qPnAP0vh2qQ935cqodmPUJn2FI3HgEwzCkZjVx+Oc4wGE49at4LLPA8vyWPuMGUhPX2oxrVvz1p06n52teN49CeaIC2TjRf27qS+D/C0QcgsNH1KydKMU3hTvOcxaSCpVzCWHnfa+iZtlwi3FHHFmIVJU9Y5bgJJhd2oX6N+J8QhizG44I+bFd/Se0Ot328jd4QUFisiIBJVxZCOkOeR5csVqbLDF2+3cfzqFlWZsXCc1TtDEx0lGmDxSAVw+srk0sy1iaIXdCL5jmECFeQZHIn0NXAMfMEDdsk+i4CEiOtTLS3nSMC0w0WoENy4eOJNcaQ+thpZ61stMxhgbCGQ9B3nrLZobeTYsthynDXj0WTutva3ctH2Xp8MZTYJxiYSnIsyPUkJOVsQF3Kxp7bRCDH35Ml591tNQzGTx6Vu/gY3zV2DNrCX43O3fwZmL1+GiFSfj83f8F27d8qvEwjWHAhBoeSxu1vDC0X3Y6LeR61Z5c1rb1pH/Ej3BobaPb2ZL+Fp5BkaPOZDwBEA48qvg6FyBbNM2CjFs353AICzniop9S/JY87RBHK3SG+wupwFv9UlzI+yohQXEo5KQLRPnCgTC37PELYiti/etOziHK/SfQW8QoVyjm2O0EJHrkbmGS6h89d7YuMRyzePWga7PTIdx21qvQOxk+BD0pY9UPtYLs1EVVy66SjqU72r6EixU4Gc7jZNUhBCekw2KCBD5aq6RCrxyqy0hP7AMhCRAEBkveaEJazxwxNW4cUVmnQsGeRHlopzAtAS2LmyszZr0dxDjG3MLx7Pa/IzUMNsYDbfEUGDg/NvjNFCgc6VfC9MEjXTguuyyTpl4iICx8GQsi3AZhqSGbF3uJc5WmMaCgUwqhZZ2trR5E5LAqSsRsGHhGFw2h7IYls6fOoNA1ztnyfF46vqz8fc//Toe2LsN2VSa/xtr1JHPZvHqs56OtOfh4zf9e6Im4VAAAnV1fOnIXqzz2tNMQjs6m/NEVxmBh2+mC/hyeQZqxxRIeAIgRJ6dhm3hk9NxrHBTE62ucM8XkWI0xFDIUxbDSs1i6MHsTUs55fHIfkSFT8m82ewIvFUb5/jRTV+dS/V4DSQEoYGIcs5hHtRwkhdOG6PEgUNlPHlrAUthYGOcOzUmIOIlx91ox7DE9283FMLDiGUmkJFNZSQVzmhrAyLusEzn4Hru+lijYsu4pMKMe8xEu2k0NiYxVVIbQdJe1MybpD+wvOFd2jNjY84/Dl+KeBOlblqPyJxZdoZDCBg+kjCAUPBSn12jMXRAAKKcmgnGRqjx65hXh00Zb7EzoHTBCgOesMW13aesEetlEJ7RQA0XxnJp7c6HGR1Gwv4STwUVUGFZEKr9cNN39Rx2jC0DYzGo3GwgN7X5csI6FhZikeI0AMKmJetw8cpTMFjsxU83/xJf++VNmF3qx6KB2bhl8304Ye5yXLb6dMztGcStW+7Dv9z1Q1Sa0da60wUI/e0WXjSyF+f79d9ocGCLYqjt4XP5Hnzvceu7kPSWPAEQbFYkVZs8rEMwnrxFxDY/a6w3ET15iBab9jjLYuBT6Z6XY4CwihmEwtyBw1IHIWLbfA/UyIm2H6rHQH+KNq6NersF+p+38oTZYl5404+X4w1r2QcAwVC0bfK2mRpACP4tnjG3/7S2yI6XKh6WHBzx3mKT3RG/Z62BHWTFgUKDZQyFeZXB6RxQIl5eqDVn8xyMJcI7iGmW+ECQBtfhlpvz7GoaA++/c3UFRiNWxz0UGhIc1lwF914DgzvRigwHK18ReScbJxtjMCzxZs3Os+AxqGEQjl28WpnvTl2FqVOVM3EqMMpIuxdckrnQ9s8OwxSMR8ceCvxsslWyqoCqc0ZCUaAMQYANY67gASYXrOIxKbvhOo1hZom+Jw5pxrOscRmXVWAgx0/A5ibU5gZhJ4d+D5rP6Q0zgzCNLIYnH3c6zl+xEeVsAb/aswX/9PPvYNHAHKyasRDfuv+nOHvJOly08hT0F3tYrEgsQzyzYToAgZbOeZVhvLQ2hN7fLEeu60tFT+5Xfgof7J2D3Uc7CNx1VE8ABJoacvB8Tm2c+mIzw0jlj6nFc5KunVpHN1tNNFtUH+DwIQW6Nl0zk6IW2B4ee/QxbNu2LWILc/kcVq9Zg3Qui/yc/sMGEPJeBmvmLsHaBcuxesFSZNMZ/o/nkxnkNrbv34V7tzwM77gT5/hmHAMPUQ2GeY7RWLU8CKshH4QhAjGCqA+o7afIHkVCmFiRj1X/tHkKu8De+kQPgTZcrb/khh6EugXSThc+1iSwLs8254QH7NDJEQbROZTL46qHGiTdx7xgNz1UTDKhWle5HgryKebkFuQJAFp8M2CUEy780JuOvgyBJ21eq2oO6EkEAlDKPCFNKHv9IvRjbaimQhhgIxAREWjSgtFsBU4TJdjnFBOi09E8W70nuwU6T4AlVeTqc8w/vEl+IdN0vrAGBNce4FQb1Y3w9RREGEhRrQsh3QCApKRWhHN2bQoT/iRpaQkA1fWh4IfYq0xWWsfSr7nmBh/SlspnrCvRbAOXjbBQjcN0BYxQEEoIwah9Nanvi93bxedcOS2RIm0+Fy4/EZesOhUfv+nfsHloNzfLIW1Ro9VE4ddK/Zec9hTMKPXiozd9BUPVsY53bzoAoei38YfDu3FGu9m1CudE8Dbp916pjFSxhNbesI2tKmfHz4aazsUSvkPV9z+Z78cPC73HSGbDEwBB9FRk2KYODijtvJTPc2+EyXwIKFTr1cNSTdEqOFJPCLYVEzRromyG1Iwy+k5fifYhZjHMKw3ieedcjo1L10TaOifNAdupNafM861KHdt49aSt7KvCAbmRMLGBq9DRh2v78E5vVRNNsxBSwc5+KeDC6F7Ha5cL2DCjHqcZ/8QH6Tj33R60MRUc5nCpeKuOFLqnqvQ3D1HH4WRvGLVMavvAIKm63dItrUQvJQ2I564CRQ/IZtPqsfto1rVLmisSDagP6/PgUvcyLkOyEsoJGQ4aW6PaDPQA/AKxODGjuEZ9WetqqEWt+JnoeWh89qHvmyFk1oAXsxn+UGTqgr+g6ZZrje0ZxViVkDlQM6/1Mdwe7gZoAhZHB0f37lR9AmkheIwOMLH75tRBu7bDHjAOUWaBf6/6AG415VTOEgozWvWRAZWKHeOMEmMwDWnRuPk5WIErz+c1QN9tNg3guPqaKCCkbo5LqZvjNOogzOkZxOs2XY39Y8P4zM++iRPmLcNxMxfhS3f9N9bOWoLfP+lifP2+m3HjQ7cnttadDkBY3GrgLSO7OGPhcH1I9Ft82jXInXkOht59HfxaFV6+gNKll6P605ulhfQhfHikmQx8clgIdDabiSbnB+00PjYwD/VjQovwuw0Q6DG129NjDggc9BSLXcsA5TO6AAAgAElEQVQrd1tKtL9QCeJ6c/rtyuna5UKRgbp9JgII1M1x7fp1WHj2Btyy5b7Eau+TWf4zs2W86akvwtI5CxLrxCSdw1t/xkJ+P8wIh0KukEa198FxPrULoqR+OXfqXMOhbx3DIPSrwg6t9R+0hydxBHuU9N2wEiNt0GSQ1YzoH7aphoIvC0dwF9NYR8NoFoPUL+CYk7EhOixx2gMrHQgCxalV4abTnteMtYthhR4PPXEzbvZ9YWrIiLTRtrx3K9pEqX2UrqmTLd57QvEjpq7V4Gs5YPoeX9oJ20jbbY3Rc30GZRUi+7cwOVw1UMchmRiaGhlGy0OdhF7DbT5khEdQ9TBocNVZT0CYh3AQnFZIgMfp4SApr1HDTMMM1ohSW7Q+6FwOiSXzoCmrrodhAkDRcMgzsoJVUcGhFV+ytEoLbcmcWyVPKSeuESjatQhEO8A3vEcR6PLvSJ/D2RMWWtEUX2Zr3DmBpDlOI8TA8+R52DB3OZ534pMwUq/ytSmzYevQHizsn4l7dj6Cf77z+xjtUp1xOgDhrOoIXl0dQl9H1oKH9Jw5yB5/AtrDQ2jcfTf8SgWpGTOQXbUa7X170XzkYf53qp8KwqSBbA6tHduZ5cosXor26Agav/olz39m4SIMfPIfMPrXf4nqLT+BPzICL5dDdt16pAcH0fjlfWjt3In0/Plo7dvL70p6zlw0Hn1EeGn9tHN5FF/3JmTXroeXTsNvNlG/+w5UP/bXSAUbkxx8m5/Gh/vmYChSh34yW/OROOZ3GyAI+zk57z8+++VCCVllAqf6ZIh+H650sm2TOQ+twXKh0MFaTAYgnHTSSXjdH70B7//3T2NHdWgyl4scQ2GFN17+fJyw9LhJgwPe19afvsBy8DhbgYR7Rru6wIDTCLkcrQi+KLXQNQ68ITtV+mTT1E2QqWGxXIGC25hdJ47LhsWpbijeo9ynUa5kRIwCJ8qUd10NO8jxKkhT58wK5nAYg76rG7PNnsWb5RoWq3evobUR1IAFhLTmykdoa/4lgRsFGFp8SuL2csVWo81MjBlzmSen9p7pNEwM6JZ21t+ZJMLVZ1jP9WA8mvUR/NsJP4QaCBkTl7zgOVSNQosAmZQZ5t+zpyx37oInA4yOUy4lqxNEiCamDKFXWNGRvHiZfwU4sd4Qyl3I9RWkmSai1Wih3bRxhsyPiRZp3JxOqQLAiFjWeYUC8aX+LCg4FTlG12MYlXD6NvAd6NFOeMWJejhEVVg0ib8loZtwTQqApYm8+JxDK5REHsvSgTk4e+nxDBbKuQIe3LsNd2x/kL2R8SoqTgcgPGVkP17QHEUxxvp6Pb0Y+MCH4e/fj8Z996B243c4jNT7zvfC37oFmVPPwPBfvAuFCy9B9twLgVwO/r59aN7xM1S/+w0Un/lceLPn4sArX8TrsfySV6HwwpeidfedaNz+U4z+ww0oXPk0FK96Bmo3fhet3TtR//GPMPBnH8DIZ2+ARy1+33w99j/vGWgfPBDMdTuTQeE1f4TeF74UqUIR/tgo9n/sQ2h+7jPwYiWp7217+Ju+OdiZnl6b4Snv6uN+YeoAIe2lkUql0Ww3kE5lBBz7IVhKsWcVp+sJtLYiabAd/Qp0nBRPJyqeTkF/p+u4IWO6Pjc/6sIu0ZhsPOOFmhn4t+jFGq9BYPLk5dIZlArjt3ru1FhFz9VoNjBam3rLZwIlBE7iHwMIW7Zsiei7SJy4YcMGEINAAOHt73gHfvbQ3fjU97+C5hQDXWtnLsZ117wMFtZwx8DMSKWGSrWKYqGAUqkQ/NrbePZi3tXowbHXbpswyIsNrCw/Ul465K05oXHesCMiBQUCZojZYIS0tFgCbRKkPRAC+lcb28i1rNSz1VoQRiJewpk9LqXu2ZhZzNi8aDWwIpaUpW1GRkIE9kL43LSCPVG32yLT/+JNW668WsBAtyiG0wBQ+IJZXQW6H87b1zEFTIQzj2Hqm2soSF3qPEqleXgcAWUtgCSbVZGJBvnDzok2LgFZvAmYd6e4zdWg8CNmz52aShnTowZYe1i47zeFUTiFUIctbImDavThSnlr8f4pDEAUu9St6MwwCUChPR0O8YQGuM3FwW2bcebbhK8RdkSAn6t94OUahHVC+OECHafsYQCOeE4UzBHzI+fQlo+OANoyEGyth28br9COuhc0D/xxBY2alkkhhiXTrIPgbgKZVBoXrTgJq2Yu5NoHB2sTe0HTAQgXjR3Ey+rDKMUYBK9YQt+b347M6rWofv3fUfnW11G4+FKUXv56NG/+ITKnbkLlczcgs34DUnPmIj1nPur/832k587HgXdfh9Izn4P8FU/D/mufA79eR3r+Qgze8E8Y+as/R+3mH8MfHUPxkstRevHL0LjjNlT+8z/Q3rUTAx/4CEY/8yl42RzKb3sX9j3zcrQPhACB5qhV7kHp1W9A+cqrMfzP/4Tqpz+JdL2zFPVdfgp/3TcHe49WMvphBAj0XubTRZCRltdad1i/rYa8jXymIKJy/V/Lb/J+UW9V0WJNSQoZL4tUOgPP99H0SbxH7Yd9ZNJZZFM5Phd9J+0RiPJRb9XQbNf5HSpmevhcdEyo+ralL78nMEJ2iK5HxyZ9BCBML7xQzBU4xbfbhzRbY5UqCvkcsl2Omy6LQN0b89lcIkB48MEHsXUriRTF4aUQRBwgXH/99aB209d94SPYXx8Zd3VE3n2k8PyzLseTTz4n8Tv33PsgvvqNH2D2rEHMmtmPKy+/IAifeydfsFQ158LJNjleGq3axymBSv1G9l7rdOeo4Hkb5w1PPFJeixo2cFFhyALohhkwBXIPke0/tOGBJVKdXXDD1FyHDnO7E7JN0kI4dqCAGSnRGxY0kt9K9Tvx9kOmQF8mJ3fdCR+FDAenihCoClPzLBVRzUKQJhhJuTTGIHAvdaRGR9tAFKERtW33mMlINUouiEScm80hT6BTiEpPyXoFrqroOLvBXEcrPlqMjOsmOeshECOqkaVTG6VucSpieRpcETH0uEXf4rOIlP6rk1aCNgLVB0jhLBkoCQHdUAPdGDMaMpFhiErn3DCeMVoMtoJujAZyQixo5w6DNLLiCLTQuAjINNttYXkUdBhjkS+J2nn0YB1pbmJl1IxeM2hpHX8Xo6hFCAIJq9iHACs9z2ajGTyjCzjNcXoahPgISKlMFVJrrahn122nmQ5AWN+o4I2j+zArDhDyBab407PnoPfP/wrVL3wOrd07UHr+tRj50Pvh12po7d2Lnhe9DN7AIFIzZ6Bx60+RWXEcDrz7bQIQnvJ0HHjZ89EeHUVqoB+Df/c5VG74JKo//gH8sQpSAwNIzZiJ0lOvQfa8CzH0lj9E79vfhdo3vsrAI3veRYkAge6/VSiiPXceUtu2It2Ipnva/NzUTuOjA3Mxlliqs9ssHqmfT41BIKOdSeWQSWXRbpP/qX1wfB+NdoPXcS6d11dMGENS79OfjXaNPftCuiTicy+FZrvJYIP+XW9WkUsXkE3nhCG2zCMAteYY74kEPuj89ZbMLVcpbTfQDP6dRiFb4kZijVYNhUwRNQUm8RlkIrs99fAC3UsPx/+T0yFp7COjFWbKi4U8crnuQOJgZVQY9Ul+xru2yyBYFV/aA5MAAu3ff/6vf49f7d0yySsDhVQW733mq7Bw1ryO7zQaTbz/gzdgzXHLcNUVF7A+ygVG3onnCoPAuQTs+EUpJjIObHq14AwhR4oPEq1LX6RNVKrdhw2Ygr0hRQYs3KBti7RUOb4q5agrzR1cmUo9ayghklqixTDY84+14RVFa3j/jMSoUA6FTHT8liVB+MUqCpr9JaNB90KMW7PdYiqO6fJYG16OG3Nb5jA+z+N3QiP297h3bMYkTp9lcmmteCiZDyIYVK89QRAVBRiWmRAzhL4wQCymC9x7zXcllkX1D6HR1bmLzKHrnYtxb9QtA0NXjYTd0fa03LVei0V4tWaE8SExq9D9FrMXAaY7L+zBaNYEzUtGC4MEIZqWlGKOlrWwJkvheKkDJYUTJGwVBUQGKIy1kc6jAlSpsBGLMxuSWeMKMEnE5oJD9z6YV6P20mkBTMwaMcsQrYppnTl57VvxL2UzjP1y30BKc+zGIBiI68uXeBN2WQHx2HI8ltF6beLsoITtZjoAoe/XG/w7Du7A6hhAyCxajN4/vg6pGbOAgQEMv/89aN59J3pf80fInHgy/HoDY5/+JHInngyvtxfewAw07/w50ouX4+CH3o/iFU9F6aWvQuueu0WoWK+h5xWvQf7CS9HeswsH3/enKFxyKXLnPQleoYDWQ/dj6C/fi77XvwmZ086EX63yPrbvFS9kDcRUPy3fw79lCvhCzwwkSxinesZDPX5qAEHWQxkpL6POl49Gqy4tfkGA1Ec2nec9g0PNqTTqzRqHChrEACDFAIAMfiFTQrVZ4X0wm8qj2hhFOp1DLpXjd6berCOXEbBQZYBAYQwP5Vwv79G1lrBXNJ5qa4zZAgovFLJlVOoj7EUXMmU0/HoAINzZGg8giL4r3A/cvZZ+11soRUC5e95qtYYml6P3GRyMBxCGK6MSTnE+E167SPMfD+GEWQwUYiBHz2xMEkBI/TpM8YF//wzu3PlwcGUCPFRKvdasc5ZFJpVCrUksjXwKXhYffMEbMdjT37HoRkbG8L4P3oBGvck9H9auWYbnPPPykEE46fwlfsSzD0PPwckC55YNFxmZ0Othj9m8JhdcMKYQaxOIyFTAJTR0KFzjjZpTyTSd0DIklLUI5zSkZ8XztIZBql1QQ21GT75nIj1hQYgabtSkvr4Ydo2Za6vlyELU87OhUCaZwpLZvLQ/tg/NT73WFGZdPU7SGpBBzeWpf52Al7ART/Q5SWaAxZ3DMblhAldvEPm26QScAbnsjCntDaxQuWUR2PncZ8AAIRk+89KL5SzPLavs3R4Ixjw4wInOS/dphtjGSX9aFoXrJfOacNNZHUBibcBlrg04CiAzI2+3SWuK0C6FK2pj8jJYESI28DxWC3VY0Cp85kFmiT4boVYlQdcWBt9mUA7aRU5yCP8k5N9kDE72Qwgg5PnzPPGYRM9D7xFtSMZUMHVKehXZT3mjvog0CLFeDMQEkPE/e+l6Pu/GeSsxXBvFZ2//Ds5ftpHHdcvme3HF6jOxoG8m/u7Wr2Pj3JWY3dOPHz58J3aPiYHsFuelZ7ewdxbWzViEJ68+fUrdHKkJ07NG9uMZzTFk3b2Q3qFcHqmeMvxGA+2REUlnzeaQKpfg1xrw69WQ1eOaGwLS6HgqQu9RGI3eyRp5oT68bBZeTx/QrDOrQPE40hGwfmH4IIMOEi4SYCCGgnnJen1aaZH7feD95Vm4P1s4jPkZHfv1FH4wHYDQIyFGDd9KOCDFYQD65NMWe5b9SMIKHv+ejiMGgrx+Ag21xhgyaWEkKo0R5DIFDj+w40TnZY0DpT/7HGIgcJFLFVBtjgYhBgIa9DsLS9AxFlag3xFAoTBH/NMNIFB8PZcxr99Ho9lC3TGU9E715EtcfyD+IWdidHRMRdyyd1M8Ppo6Hb73BBBcBiGTySCfyQZhZGIgaw4TRfNYzhcTr03v4cMPP4zNmzfrHiL2NQkg0Hbzp1/+FB4+sEOO9TxcdvyZWLNgGbKpLIaqI9iybye++YubAhaeGIS3P+0lWDV/Scd9j45WcP2ffhRrVy/H2WediH/8p6/i7W95GQYH+2QbJAbBpZ1l0wur5UXPKG+8a4D433GmRcPQvAkHYEDey4AqVtaAYvOBGC6lsWkWB2lYg/dTAQKBJlEHxTZAPUSObcst8f/TwrSSxAoodUKdbErn5sTOhkbAQJHs9yHLQcaK/kWhGAYO+i0y/jxvKqIjI0XsiYniePw6PqbpzOipUeGNUPPwbVgGTDqEQxxTVzfbvQcO78g9MLvDIQ/5tjE5bJSC9DrdwbU0NoUFApGnnUUfjxl5AVQOUOPUUf1wTwN6btGsBfkKbTjOQmFjKN8TUWf4kW6hYX8N3mSaRG3KmuDeGvp8ee1SMRPtzSB6A/H82ZPXU0tmTGixQkPtFt4KtQks93BpCkUmkhJspt8JW2ijMCpdTCI68gT4+8x6KSNmmg9l4wzgUnjMPhSeIwBHQI7u8/wzL8fiuWuCNMd9lRGsmrUA5y07AYv65qDRbnIWAlVDvGvnIzhr8TqUcgXcvu0BHD93GfoLPfjKPT/CmYvWYWapF3fvfoTHtWxwHr774G1YPjgfK2bMY8au1mzipsfu5j/PXLwWly0/Bb3ETrTbuP322/lPYVU8Fk8NDQ3hpS99KSqVSuT5rWpU8erRvVielH0T3VB+I/5FW9SNXg7/t28WKsdEeEH2pKl0c6RnRmEAMuhE40sZ8KbozOidQZt/T38nxoD+XmtVWFdA/6a1ms+U+F2nn9PORwadWAgKNxQyBXieVONrkC5BXzUCAPS6EKjIZ4oMNrhEPzwGHAQYTOsmzoWMk/ULzWqioLGbBsHedzoPhdKICY6D4GI2B2qjnPThd9YHi/VI05UncJng8dN7QADB3bXCukDdr13I5lBIuDaN8f7778f27TsiWq4kgDBcG8PbvvARjDZFn0HPYU7/DE6/pHd1dt8gHtq9DQcroUaB5vqqE87Bc8+9ouO2SXf3wQ//I/r7yjjl5PX4j69/H2/9oxejr69Hzr/x3MW+6/WYgJA9GFXeWcqbPXVXla/svYQgTHBGNK0JwYLCOmK0LO3LNkdaLETxctzfzhG00I0aDhoweXS2EIKHr9kRrqUKRXPhnFioQbItosCGRXOOatn0E9JVMTav5p2ak8pAQWLYsqBUQdGWdLigeJPeDs8Dw2A5b7STovxM5pL/JpQ8C1ece+HCR9S9kgSQpDIOiw0F3jYbLbkOC+EchoMMrDVLsoUmpQbJA2g73S2dNFIFP9bsiObfGk7ZnIaWTsbufuQZu0ZajjFK3jXIFCKg++cOlIGWROeWDTSlRDpnp5AKCZzUgNGRQb0oExAqmrM15D5X2xz4e/rMDSzbM6L3wHQqHLhyTkDnrNVIV6FpusHdWwlom4tQvBEv/x2Acw2N0XWTQgzUvvnVZ12Ng9URphV7ciV85rZvcHjkSatOZlDw08334enrz8EPHv4Fbt36S1y48mQs6J2Bmx+7F09aeTJ+uWczd3Jc2DsT6+YsRW+hiOUDC/CPP/8Wdo8OcZx204I1uHr9uVMGCERiX1QZxu/XDmIw/u78RkCCcJC0hu710/hE70xsoxj7MTP+qQEEYgDSqSxyqTxT99J2T/cXeo/9JgMA2QND54NCZKFIUR4mhSlI9EpAgMIH9B6QsSd2ou0T6CCam7xpEThaZkIxW+YiXcbsttr1SP0N+j7pFAisNJoCJJI+AhCml8VA7AF58t0YWdrT6o0Ge/pWFC0+hmq9xmLBqX44FFAsRjKWZK/3cf8DD2DH9u0BoCEAFwcI17397fj6z3+Af7/9h2hNMYthad8cXP/MV3ANhvjnsc3b8e3v/pjZzOPXr8S5m04O5sc7+fylkSR7MiiBqjpQf4mnTNXlhBFw3nrOI3fivPor2tg5fqz/zuVSqFabaFYpUGuixzgjEY1HB0V5+DBhBNhQOtUSaQ3RjZlHGIKE0D4x3a2aBJucoFeE2jHa/EkcJiEJreGg8eiUenhhAygRmAU57o74gYBFsZjlew2YFoIPPK/ho5FCU5qiGQxawYSp7i18YPUXTHgn/AozKiaMNFGixMhFtBhJndNwCt2Dq9cQFj707C1zQXaCsAkTf88p/mOg0s5Ht0BxLKLHWfehdRTICObymYD9MVDh6kUCAWwgKFU2xaZLPfZ4CWMGDiba1OcooESKdLnVHMWTlw2Hnq8Lim05C4Mij4WoPG41LdPJxaakLoOzaRGe0voLgVbCGTOFcFgHoj+T20iBxKUBotZfGrjWCIR8x/NxcazU8r7qCE5ftAbnLN2A3aMHMFKrYNnAXPxk8724Zcsv0ZsrcDGki487FQ/t3Yqv3vtj1Fst9OQKWDowF+cuPwFj9Sq+dOf3UWk2sKR/Nk5btBq9hTLml2fihp/9J/aMDqG/UMap81biitVnTRkg0NDzvo+rxvbjykYFA7+hTAK9rvcjjc8X+3FXrnQMgQNZlFNhEGxZSijT9lln8cmL0QHqzYBNxhia0Q0ZZksXD9+7bmGt+Pgmup6UWJ66UJHOW8rlkUvIJpjomvR72lfpnZvoPrqdKymTgc71yCOPYOvWrZHzugDhxBNPxAtf+RJ86Jufx1BjbDJDjRyTRgrPPf1JePLJ53UNsZAdoFCJ+/E2bFrE+xZthoHdD5ydsNhPmylc+SoX0+FYk68lac01VoRphX6CK4VeaEb7AcTvUDbfaHiQBkxgQDCJFilyUur4Jak3Q0eVc95lDPwnGVYDEEzfa8qkGtE4M+AyEnGgwZS2Fm+KaDZsR4/dEHmURpObkaEdhjxuASJOWWjyGKmFMbdm1pdJX1UyZBK7pmJvYXjAXmUpUyzAjb4v1SLlQ0yAqOW1mI8Kx8zLFW84OucMwJxiRZ0KPzm3PY9GtcVjzhVJtyCiQClypVpmn9aIxI6JzqpT90dtPR1lE0LD64Z7Av0Cf58evhyXJPYxABC03lZQy9+jMs/OuDnWT/PON+NUEOW/W433NojJsA+DEQrPOO28+a9OyMWONfFtPNwS/D6WHeKmCwuIasNre7jwnCsipZb3V0dxwrzlvJGsGJzHBZD2jA3xfFABpN/beAFavo//evA2PLR3B4cgenJFPO+kJ3Hb5/9++Be4Z9ejqGsRoItXnITj561AlqoVZvP421u+xmWXn7nhXCzpncMNnqYaYrB7JCbh3OowrqoOg6Kf2d+Qls+0wqq+h9v8FL7cMwOPZvPHGDiQRTsdgDBly3KsfoH3Utrppt6gib5VyheQDfQKk7tJeg8IHEwleyHpzOTFW+8DtqeTAAhLVi5Hat1c7GmNTm6wCUdlWx5edcmzccbqEyKVHMc7oXfieYvF3jmKavGMO7lBVpxzidvwlGRkLbZsRsN+a3Qv/TuM3Sp9rgeJpyT/IEMXfDRswKw3o0WXbhJPzrIJyCiFmRaaAWC3QK4gU+tCZVMOvX2Coj6Bi+dMldN4yYQqPBZrVuTMT5CSaXFq7TlgQ87lVd0Z3JOYdzcF0+6HF4yBBO1DbTR7MHI1Yk4rAhm43rMBKikqpb/SIlByTSdp375n0iXVJ0gWnhM0VweD1kYml1KtA6VCSaaEsUscpw5AhxTeonFxjE5DO7wemPVJ5p81FMkDj1CBmkLlrhE9KKTEnFCXLuzgOnReSSUkMCXhERqHACwJrWgaspanlvGJZkNTEgkoOvqIKFjUxawec+QtivcZUSmDm8URjWVJRgtVUoyXWub3ij0hiRlTsSN7O2jjoWdAcWYnqMEbEgGoFoE4510iqpj0B1x+NlfA/soIx27pZyfMWoYXnHTJtAECv9O/7mEwr1XHqbVRbKxXMN8HepgNPHbIeltPpNXf63vYnvLwo2If7ssUMJoikfGx+PkdBwi6T0q55akXTKInSvUQ8tl8orPhPnF6XxrNJqoNSvc8PKvBvfZ4AOH4449HhtItB4oYPGs1PMdhmc6qzCODC9eegitPPR+D5b6uYRQa0xiVND9h02IJMVgzIr2qFPOxDABtWKOUbuBAqUGkP5iyj7VUFtdMThjq07RoAlsR10CI4ZLwgRYl0vi0hBECSxcFERrxYOPfpM07FK+HJW+tUIPE5EMfncRjoTfMXrgjpCMjEhiGoFiP3BKl4FmqpNDDokJ0ywVzaV1qfqTUNJWLDo26mA9rO+0aw2AeeSqMORGPl8Zv4ktXCxLQewlxfzm3TpsZa0Wupv2wZ5TVJkV2b2KARQwTnEMFlYZKpHCRfRQu8SSr6MEVYjoMgMT65bkHh+tjZkGqG7pR+pMfD0+dfs+JbjEjwGvZWCTRDBAtGKqRw5oeco90QikZbjoKE0MKmxJW1QzukNZjk1ErTw6DLn1faM21miJ2CtgPo9itLkiI5fiU8lxVqxAAMQFe023WNJ3NI/6d6aQ5drsusQkF38eMVhOUCpk5TBvt4bhPW8eVVAoHUhkcoBQ/z2L0h+8Kh/dMTwAE2bMOrdUzveNU4dCK4YVVIm2/JNEmsaSTr3kw2eds16b9bMvmzdixY2dkzyOR5IrVx4G6Oh7Ods8p38NAoYR181diRrmHIwFFFWRS10radyuNGh7YtZmyGJb4XIteY8ZmEGiTJCNoHLThJt4Yw7kLRHm0UQq9LEbN3n/zLqsVotVJyCcpgmZQzIs2AxEK7OSYiPLc8a5lZ9WzqArfxXbGTJCAzwUi0lgq7rlSTFrYESkKFK12FxEsMv0s2gHzNuOhiu4LxFI5VS2vAMoqK5Ix4r4TamD4Fi3sEog+fWQppk9qYirqowbcvSZ7xM4PpAKgCv5aQJoYAJ4sTTfRow0UitEKYRSnqcboCvNixVA7KnwVZoZrRM+jug7O3demSFFhozENcs/k5Qe1KoIGYmpMlaHhEtEcgiGwRp6xiaucNFr2mGP1DFx1RoRMUbShRttCHTR3UgVcQLMAz1CPIP0uQkmVTFVYLjmTk1oc8p4Je0EfSpflsBGV36aUMAXYsunxU8DFZ1+JZYvWTatZ02Q3qm7HHU6AcKhjeeL78Rl4AiC4dkg659J7OT024fFcX9xeees27GaAEI6kkM9jxepVyBcKDBBmnr2GM6QO60cNb1ANmfVXYiM9rwXvBCq1rAyAOGlhkyX6Nw3YqFgxyq599VAoZlhNTpuebXDiMXcaWt42lX4I4/1uvEJMt0tEWNc+O0rEiMnUtDU1IkGZ20SJKHrelCWWwsCHsyhoQNpdODC0LCoTa8z3r2WU9atRg2zersOkGMCRqQrvjRSxdE0BovJz/rcKPN3OjDw2BayR0IqJ4rRehPVP4PoOLKiUORcRUliR0MIK4eKTh2jnDtJBdQfeXqEAACAASURBVOVFrqkLiP4wRsYMnN2Jkz0YwV7iGYdTJuyQgJImCRr1OQoYlYXPwr6WxuBZQyCpUxT353nheyOKWjw8Oqc1dnTnm9agtVEOQzMy72FlUPmNATwrrBSuNVkD0jFTX0yHcmHhafCcoiETSrVmMJEmUSKllPnyjmgaI90HiRXp97lcWgSe9q61fSnaxSLF6bV7PhybyJECCF3e3o4hu4D/cNzPb9c5ngAI8ecp+4M5qIfZkB7BxUPOwfat27Frx66oSJEBwkoGCKW5Bcw7Z340DH8ExuSDSl0Ts15DOl2Dt2HTYuvczDtlNiueG2cakLdsym32Itl8c3YCPwcH7piIUQSMQRCaGxMJ/S1pdaaijYcjJHMgumG78XPSIcTz5e0yQTvdwFBLHwEqomMiR/H4pfa/5KzShi0xZ4ox02bN+JPL50YT9EQHoV0FY9UmozFkyXc3sGHaAXuOol/wwMkdnFkRboEGhOw7QeMibW5C5w3YFAY3QpVbeeEocAssvQARThcUrQgVbhKvVRP0+X1yPO+ERWetoF1jKoc5mRz8S4dWN/SgQImv54Y6tKdHYHy1ylSaqutY2qqFpuKWIqi+qBS/hp8IqIpeRYx+PBQm1w/FriHaFXo/6NCokpFgGetzomfi4mO+DqWLZqm0NNW2CE2f6Dysw6QAAfpyvSYUngAdEtH6SAfhKiebhNIlPQ8XUhbDYSq1PNX95HACBNJGF/0WZrZamN2qI+tUQnXHRT8nqn93Koe96QzGKF9/qgP/nTj+CYDw2/KYyRZu3bIDu7ZHAUI+n8eqtStQKOYxsCSP1VcP4oj3CdMNji0L7YPUi4E29mZdy9KqoI82P/J6ySjzZmZ6Avp5VvPBSUWaCuvJWyqcgQqh+cPvRnpgO6WKjUbnsrbsvItXyDX5gxbGRnnLJkweWRBWZ49b4sC8qXMlPWEMOKffqcSn5EC0lkLQGjpkD1iR71gDpt8dTYVR7J1ejsOk6C/5HtToBQp7nlcBUnTbdD90R6QBIE/ThIQ0J9xvIeZ2Wa8DMYpi4HhMBIo4C0H+JDZGRKdqrHQs1s/BXjKacylRatkeynLE3sKQ+XHaeRupZCJNFpAKFU8VJum+GIApUJQcGCfmrrUyeLmwkDScG56LAEjFQj8xAbONzVgaDrRomoLUzjDmJtSpCAiIttPmSpm6lqxip4UXRGuiKZ90OqdpFoVFGApzlzwhigLBqIo1rYqlpEfqeuVCSrHeIKrVuHDTFVgyby1mbFyGe0e3Y9/o8FHbF0+cvwIvOePKQxIpkvZgdaOKsysj2NCuo9fzkdembElMAq0LegvrHjDsA3eksrip2IsHswU0OkKDR20qjsELPQEQjsGHMq0h0X6xdXMyQDhu3QrkC3kMLMtj7TNmUEHRo/phgECpW0EZYKodH3hQRkWHNCzdjBT2CZsssbGhYdtm6VDrbHicFEFLC5PNWjZsqydg4QfRKJj4y1hpMSq2+VtlRfNKLTQhwkCZwwA0ON6hGMpYfq4CBOn4qJ6n3p+FO9jkshLdRHsyfG5fao4f/077CxC1rPUTLFeevt+sU6EAHjV78m7cOfCwHQ/aDVkEK8Opukjlhsl7FeMqYQAaKzUSsroN7VZI29O8U5UwAk7k1TPNbS20g3Q9SZnMcK1cMawUJzeQwnbROhAyZS+VDQMAIApDOUb7cRAw4owBBQ7SJ0LYqkIpq2maLUllVHEjnSZLGSAM+hzNhaaxavSDf0+VB/k4gBsuGVNF64WqGzK2Y+ZGKEgy5nTfxB41SMuh4IX+LPJ4pG4Cp55yAzM5O5deFlShpaRFaEnaGnqPZAnIXNCYpPCiAFhmN7TACT2lQoHqQwgrQWM2HETAjkAhjfn8M56MRXNW45HmPtx25x2ocZnho/O5+PSz8e7XvmXaAIHEiJdUhnBxo4K5no/p7G2kstnZ9vDdXAnfLvUfI42Sjs78j3+VJwDCsfAUDscYxgMIq9at4B4J/UvzWPv0QaQm2WncHJNDHZ93wtmLfKlBr+6u1hyQQkKhJ2cle8WgaeljChk4xkwYA+3hrH8VR17PE7r8QWoJq/z1WCv57AoFA6NnLZd1mPQHqcXdD6c7KlvA8V/H7TbNAVP4QadDpz4DdRnkGg3i7VtfAD7WZofDE/IPbvDD3QjJqAn7Qv+jMAoX1XHYBxJKmrhN2BURhVq9AcuWcMWRijXU8En8ulnXuVcDaSJSurdaRbojctle9mBVEMngTFgfGkNlpC7CvqwI+yjzg55ZNpfiGgXMWGSpzho3/g71Elrsic5BYQqudZAC6hVqyGSVKYVtCoCJWnD6N2kJpKhRmGbHBtQpskUgxMIuXAu9lNVMAB8kcuUsECGlFFQIE1AZI99SFlc2J+PmRkl83RTPDY2RgAiHtlJaP0NZGwFmBhyBfDHN36OQWm2Mkt8EsDLLY9k0ttZ1AeYKUvnRQAqX3tbpc8W7AlKsHgeXu+LvcJ0NrT9B4lOaL5o3KrW86eSL8B9f/xoa1JPgKH5OO/U0vO41r5kWQBhot3DN6H48qV3D4SgxRGzCjWlplnTslDs+ig+j41LHNkCwPWGyepPHcyYf72szQNiyA7t37I5mMVCIYQ0xCDn0Lsxi2aW9nKU30YftYDqFfE+W9/VD+XjUrIk3tUAZqI/UMeZqk8WMO3HzQDeghV24MCDVyrcmS0pn8wao9QNo46WNnjxfOp8p9oWGD8MEPCa9MH1HwhBW/0A3YvtZSEYEcyHgRswGGz2qj6+KMtvIjeKVro0CDMg4koCOleUUNy3lUKtaMyBpT0yNmOh4CgdYqKFep8qFch7LtReRpxh32/DZiybRWl1YGxbGcW69GCUCHhQ+aNZa/DPShNCHz0lGq01NlprcVdEUgUF3SwUzVk2RngOdTwbmSStj1QEwC6AaDAEI4l6TAS/3EkyV420eXEQqDIx61tb7QVxuPb+yPfq7fCkjxp1ts9D+1g1UyBQCLOLRcyaHFlyiIkx0RvpOriTzQz8YOdgIqTZmh8wsm2hRGANa07TOeHm0fGmopUWcGLBlPNQqLQ5hcKdJYlK4pLXoYej7HCKxEBuxHxpmEgFmWJSKwFoQMjCtg65GurfqmDWd8ZAvEIgk0SpQGaVWu6r5YdaMVD4S6qIxXHz2FXj20/9A2nkf5U9fXx9Wr149ZYCQ0yqKz25UUDiM9Q5Gft2Y6l+zJXy9NIh6POZ2lOfm8b/cMQwQrN5LRL38+M/YsTqCyTAIA8QgXDMY9NQZ717YN6SiTnur6J3dvaz0ZObDO+GcRbQ78rEhEAgFXlKuNsSBbu49G3A1Ah7HmOWSFu+NVwWUsLMWOOJ0PvE4Rbzo1EcIrJgaHE2d5JCyWCqmhWlTp7HlC9mgU57Fmatj9cCjK5RyQT47/X50OOzoJgyGagSYAaDzCQNQHWnwJl0oU/EZCT/Qz40xIKNA3rRVE+R0SC1lzPaSjTm1T1U6wYmHS5lkSXFjDYJPufpCK4s6noo/cfUoptkJjJAxoWY+9DP22Vs+Sn15RpXU9IqMMMe4CZSQaI5pahk39U8RZkbj4qpT4LBHsyVgQQsJcUYFX5uaa5HhBLLsIcvzoLExE9MWnYPHhYOMgaIbcNIKY+2m3ToRxB7USb2vnjeNncAJiWAJlBE7wYWWOBSh3TDJ6OdS6JtZQL0i7A153Bw6yaVRKOYYSNF3q6N1BmOso2lLJ0/y4BmceECpNydgti3ZEwb27F1oUodBrSzJ12+10TtQ5GNJbOh5om9h8SJlJShaJ+POLIumJNFajbYtl3VvcxmkskqyRvBe0Ht06flXYv2q0/C3H/lEhJWazMt9qMdcdPHFeM9f/OmUAcKGxhheM7IP8w/NeUkc/p5fM0Hv75nNmoTf7c+xCxBMJPy7/Xwmf/dHSoOwd+swBuf3RMTTkx+VHOltPGeJLxUSlVpPqAfBOelk7EiB3Zbys+zZaTMgbk9L9G6B6iYIvSGphdqulUAAeW4kmqMeDUqfBoZGjU6pnNP4vI/qcAMUQWDzzV6nCt+s/a421KHfkRHOkwHjbpHS68GaFFF8nGldivPWpbWu9TAggxSWBlaNAUWJNQ4uQjXN6nA6NRKw4d9oeWorqUyGg+9f2x8HOgnNOhBwJHS7tFoWkODSQMQ2NNjTpRAJzWnIKdn9mS0m40YGOvh3ylNjCTZQ9Ik0O2p7XEmPABD9nK5Nxss6TlLYgY0WlxMWYWFAkzPucJu4aBqfxtC5hbaGdwjMML5QzQbdN80Zed/kTVvpaC4opFUyucAQgTD25kXgKPMpYR0acyBCZdZAKyZpVoqkico6FYpeW2grqKHaEfQdEuNaG3JLXSRdgGgstCR1SoWhJoqzrAkdC4dmAsYt2jQqyCpRISMxOMzwcK+KFq9PmhcCNgQa8sQkUHpnTV6icm8u0EPQNc4/4wosnbsGa/bMw9y+WZG6IFN92ad6fHnFABZfuX5KAIHYgxeN7MGTWzVEKnZP9eJdjqen/o1UHv/YM+t3nEU4dgFCEDM+TM/8t/00RwogHNgxiv45Zau0P61p9I4/a6FPGxh5P+QlSelZrYpInidtZFyhUDZgEsRxqN7p3cCbvHUd1K6C5m2rWF03VGEZRO2tIkRPjBl5ZLQhSjghrEwnmgFpE81NgFQjIAp5alsqVLK1zGWql0MXBFDo9/QdocTpu2ScyRC1OZ4tnr0BFvo3ed78Pe0ZbmV2c7mMhE+0ZC4ZURYHKlyWmvvKhHA+vxbdISNvqZPMdYvuQahzeWaWXsepoFT0x5gVCjfUqbe6zH2xV5gQor25VoDGuQOthTIcUpXPMkI8zrPnS3MBHumhweiQ+zdIfMYMNDMPClqCDBLr2qix80AroMQIt5Lme1JQkxe2wah9mkPLyiCqn55xoZzje6B7UUVgEIe3sMjYQRLkeeD4vpNpwOERSzvVZS/6Fe1QyeBR0gyl7oDWh6B1Qt1AuVmS1Ggw0SR9l9ZToZQRAKPsBjduIrJERZg8Dg2HMaPFYZw0Mzj0bxprbayhDIFkldBYrAgWPRsDhCyo1cwHrv/AmEeeB4MVv40LNj0Fy+evw4mVpaj+aD/Gtk09iyHIGrH25LY2OG3T5Q2je8i8S5fjlPdeOiWAMLPdxHUHd2Elp85O/RMfTVIM+37fwwd752DnEc/5mvr4j943ngAIR2+uj+yVjmmAcOrFy3yfmug0TWFuMWuhYiUjQAADbbTUmc+K3di00QZE8eogpKAbpzlgUnFQvFEx2GGRIKbu2dCIXoA3YjKeGdpUw26QrP8mAJGjWsoAhRCsABDFvq3ZDVHHBDiMwmWWgIwS1W7Q65vnTeepqedm6WyBVpMMDtP5YvSlXn9YEjdPAjpKD2220Ki1xdvl7AERHzIDQMaIswucqoAiomeNAd0rF9HRxAYeqw5AQjkSm5ZziiiQtAvkhQsNT42qxDBRQySeP6tmqQoFqppYHSM6XJ6Befd0fipf7XOBCTXwbAyFsWGRJhWVIlZBFZd0v7kShV98NKptVEkcqN5+Jk/1/D1Q50sTrlphIKL+GXRqaEiYANFm0N+tDHJoiAM7KT0eNHuFmlyJRkGMO4M+DY2RoDHIBNCCUlxxkntwSAikWqnz9SiLg8cQ1OyQ9cbP0EgSnXsRe4a1M0hrQh8CfZalQv8m1oc1L1w7RDJbevryXOOAQJeEJAQcMotAegti5mieKeVR54HAFM0jCyLbPi7cdDlWLjweJ1WWYfTGPRjbcnDyu1UKGFw7GzM2zsPmb96PBRetQK4vj23fexC9K2YiP1jEo1+7D77234ifeN7lK3Da+548JYBwUn0Mrx/bjxkx7YGXzyPV24f2gQPwSmVed/7oSETT1F6yFOnjN8KjlrSkcRk+CP8nP4ZHxzmfg23g/5Rm4I58afJz8Vt35KEABBd2dQeISVOWSqW1CJ4WK4v3R6EvqePgfp9aOUsILwpKqb20C1Ll/J16m0wqw2FYOg/vHUHN9fAqXDwtqK8xufuyonhuR9upLhVOy+dMLqvmOrUzJAEECVPmcChpjoeFQTj9kmUcmub4MlO3FMcOFYJh9VqJK7utlkNFu3jBtbGmCPg4r102XaLIOeWMN0HyrEXxT15UJp/G2EHytqhQkQjwJFsibNlIS9k8bPLumOVQJTynD3Id/UCvx0bdRIdsoDUOzEaGxRuycDhmzN0RxcskG5krZIOa2wSOmE0wT9/cflb5Z8SwN9sav1cvXK8nIQe9HlcpkuQ2A0OcQaBFm2hQdH8imtOUPp4EecsI7IgnbyBFPOWRoRobOImCEH0vLAPH1FUMYi8eMQj2MzKCFDoQ3QUZ+iazFgRamA5n1kJT7tSA1kmk6ZFgM8/nr1ZIC6GVAe1ZqkiPRt2sNQNBKIebaE2o4eXKh5qG2mjQHLcY9LEGRT/Ui51TDBtt5IoZ/pNePjL41PhqlJkFaiOd5WwMLqetrAIzK3Q50lUwIyUaDvPO5RlQqMWu5yOj2R9WoJNaklufKgbE1qRLFg4bcBElih5F2By6lqQnivi0hTyPL8XhAxY0WqnmtNSHMHaMQbPV2eDmULQRpjgcRO2eVyxYPy2AQOzF6hedgrUvPwO3v+9GbHjDOSjMKeOej96EuecuQ3F2D759zWfR4jLonZ/pAIRLRodwbWMYpZjrnz1uDfre8V7Ubvw28hddirEv/z9UvvFVU5iyTUk/6/cx441vA3p64FFIc9tWDL32xfAfeTgyOCLnPpjvxy3F3qntxL9VR08VIJD4NoNsKst7puVmkdFtturjMkk2bbQm85kiaq0q7zeZVA5tv4V6qxqd2Q6A4KGULStrKtc2yRl9t9lWR8NLI5cuoOk3pAtvm7Q7BKxTKGRKaLTryHi5QONWbY4GjiCNjb5rbDGdNywPn/zgc+k83wOdd7JzkHSmbDqHbDrPtqXSjILZySy5OECge5G9P4tVa5cn1kFIIYOBwmzQPdCn6TcxVN2DRjt8FocFIJxGDIIjmDKP0NT1Yk3FwxfDIR4ZbZyiTBfPngwq15bn+LMo0ul4oXHlGPaeSLSnufAiCJeSsjyGtjRVkDi9xNZZYMcGXOj9Yk9Oh+Rj5AB5hPII2PskY1MI1eQiLBPPjqllc4bd5kFs5JUOTUnWghXrMTaBDKTNRy6bRq6oYyAvvNFGjQymziEZQLPvkp0gIkr6kHEmY0HiOPEoZRe1lsCW/mbGjtiNoPqk5plKdcs2SHgpbIyHkYNVLTks/SHqjQazL5J7H6ZfcnVJAhPZNIo9wgQd2FPhMRBgk2QHYXjofum7Fmag5ytFmIRJ4Q3dslUsps7Nj+SehOEn6kgyD2R66BwpNthExQ8fEBaILLppQej5sxYFpPCvS9iAhIYmRiDPkun+FOtO3NLdbJhJ16DXJ9qfhYNM/Qj4tQVDa5JYgEDUqZkQQTVPxgICxjhNlNuOh3oRzojwJMxFTIDdH12c1zxtgwosRNMiADFfzDALI8f58CmcpAmlDERoOijsogzURZuegqVz1x4CQDgVG996PnxKtdXaCizWTHkY23wA37r68AKEy8YO4Nr6CAoxgEDPqfjUq1F++3vRvO1mHHjzG4RBcD6tfAml178Rvc97MfyDB7Hrra9D6tab4cUa5TwBEPgNm0a7Z9kvyFjXWzU2wBwcDsDy+OaMDBcZagIIZLjTnnj1Hd53DCDQHp9J51mDxOE2YgPI+HPBuzp3HiWGIJXKggLExCJUm2NacIx+l2VgIuyDfNhx/HU4q9ascNaPMBQpZPTPiQBCOpXle6k0RvheeB9WdsLuS8CJx/fJdo6PsyaGsjdwQT34yKeLPO5Kg9oxWwiXmAVhPOi7HJ6kMfL9y7wJWEph+5Yd2LZtu/MsPJSKJaxcu4yBQrxQ0pzCUjz/5LegN9/Pc0Eg6z/u+gx+sfeHQbLAYQEIZ1y2nAsl1ausCAyoca4x4KSrELVtG6+EGeRjsVmif41t8KhHt2ebvlLIygVzPFrbKdB5WONg3qVWk6MNmSh09rJIXa+rggvnaAMpVvmTsSHNAhtfOdZS3ooUS86mMLJfjQyJGzXdkY2OpihKV77Q8LFqn4voyAKg6xAIsBAHGd6AptcKiGYoJS4esh/W14JDDpbiofMwNtxgQ8naD7oGpy2KRpOoeDLYdH9S14BCKpZqqfUdtNaBUXZWbErCPB7n8rOAk4yNtdvWN8sYPA4lMHsRbQFt98O3oqJK+irNMQMGvQc3hm8AirIF+DL8DBUcmNDU0v845CLCQF4/vjQuormrVpgiCjUujBkpROHU09DjxchKwacwY0bqCUgdD3lXGQAacEkLNcp9LDiW5fE4aL0T+CmWs5KlwMWTaFy0cQkAoPVFKaj0NQIMtBat2yPVaZDQkrwXdLy9J/ReWKos/Y6+a71BiMkgNsayhaSQGI1PdsELzrwcy+atmx5ASHlYds16nPKeSztruPvA7ls244ev+IoAkoTPdBiE02ujeG1lP/rj4oFMBuXnvgClV/4h2ju24cAbXoHW9q0dV22Ve5F58lPQ2rIZ3q0/6QAH9IUxYhAKA7it0DO+Rfut/u3UAAKzvWkxstl0lg279Mvx0WAGoY1MKh8Yl2B/54q3dfbG6b0pZnv4PW2S191uJHvpCQAhn5VrpzyzHWJcq82KMMjpHNJayYz+JPDSaNc43ECMRyEr4SQLKdpLFgCEVJpZDfKoiXmrt+i83cMMch90/TE9r4dyrk+1dMRCttBoVVHIlNHym8h4WWYa6Ds0Fpozuhe6Ds1DHCAQqMllinwOYjboPunVzmaKqDfJy6fW6y1k0lk+98MPP4wd23Yy6LFPqVjG6nUr/z97bwJv2V2Via4znzvWkDk1plJJZayQgQyVpDKSmQZtQIQGwejziSODaGs7PV/ap78HaCsOLWI7IS3az6YdaHmIbSKjYAgYMAkhJJWk5qo7nnvm977vW2vvfe5Qde+5tyoVUltDVd17zt7//d///V9rfetb32JzvdkOQr5btGvOvsvuuOD1dKAe3vWg/fVjv2+1bspRWhEH4eJr13fJVo+WsyQRZroBAkYlUuCNa9gYSDsgHhZSCFwwhJFTQSQY+IQjgNO3BRFzs/beBsH4DvKcPBQnQIbAktewc1P1unNcOWRtg+dAI8gIVlYBmzeJkD7OUKyDo5OIIHk+rDqACF8plkTPgKtRhpNVG66q5wkQT8coNRIpBRhJGdB0d8TmH85IoqHgK52qfL6IRd7MQOEQAwrmfg4a/krf0CBlNz53YhTp5mhoMQkwcCxzjAMVE0wtiPDpgn78LRwVRHgk9MEIRvUAxkRkIZVGFoSfkXZmhsd1A5I0jEsre8leQOuA/ZM5wjNkZUu89hiX0h1BvsQa8iVBRwXrMKB6PF86GF5m6/pHye0SCfA8Ps4B3ga892j3Ta+7IY6NnM1Ac5QSwTqVIFRIMMnoE5rNoiSe4Qq/kCkVR6T4+UR0IxXGwhjwDsmBQq953QfWwNBo2auF5BDd7CTFvjgIZlZeVbXL3n2jbf72S6wNImS9ZaXRqk0/O24Pfu+f2/g3DkXAM8ec9uMgnNlu2o9P7LXNszgI5e2X2/APvN1qf/5hq77qtdZ+/Gs28Zu/at36LHiaHhQeCvOB85r4p7o5e+/wafb0EUiKiUP+LeskLM1B0Fum/XWwNCwEAbXPwhD4O0T2sz0EBUmQS5djjai7AeOYL9CgK9Kf9ZzmTTEMp/yqTEO8SBPg3KW8KnjgEODfODcibzgPlUK1J2LXflewenM60Q2BQUZ0DmPc7iwsKoYrDJZHadxh6GNu4CAAHYnv5nIFG4CD0BFa2O4KKS4VqlZrTrjz0LR6a6bHQcBOgrHEPQwAsWnNMJ2B8wC14DWBiBfhqJg99dQ3hCAg9ew7/MDAoF1w0TbLl7rzSi0XrWyXn36LnT6y3j75jT+z6c5Yz2pfEQfhchdKQgkg89zecA8pAmxgWWRBsI7K1VTzrXLCaMsbRLp4OdmYxnX5RVBUUxsYqiB5qdWtqyKGgiE2S4eyZVyUwmgh1YCrQiXKyxoJ83SQj5Z2QUT9mKnITYMoJiEmcRAI7TqTBmPBho6xEsX2B8colI6Tfs8H5yqCMFzYzFV/r1cM38S52H0wumASmUHJoofU/LBeRuSwMb/M5zsET+TEUzQ4Kx0TJw0m9+WVJbhkyFYHQVJOkVAdoELIz8O0k+PgqZsoBVSZpXQfMGDBZd5e2pUeYz4wluBH4O+BqIiPorRCKrQlN59CQE4eDRXFeg0pBaRUFCHjerhfwO7RwRHrjWgE7ARz80KK8IMozZSok8aKZxD+GNdRSEI7KZblkcE/8ecPLgvWFZyAeO5wBvFc6URRo8MbeZGzAUKN3r2EO4L592Zg+Dl0F6JbJS5dGSgp3eHVHFi7uJ94rng2JP4SQROKgM8PDJesPoO0hap5brr27r4RBG5ChZxtee0ldvnP3G6PffDzdvjRvXbVA3fa1NOH7eOv/ZB1nHQ5nx3tx0GodLv2/RP77MZuo6fxLkiKIB92JybMhlB6lbPO+HgPSXExthzr4pO5kv32yGlWz0YHs7580kGoWak0PzI0WBphdE4Hge/+4ipO0hQDDLDg93mj9CM4CKrOUeCF69acRwB0A/Yhoms58yIwBgdBlWiC7fF3RPZEP7odKxerql7rtsizIDIQDv08CwtGG/tFHQ6O78lwEPA9IALc8+AglIaYxgDCwv0qV7BSEYjAtNItrRRBKCDF0JridcNBgHMBVAOfx/mA3iANoSCvK1Sna/bkN5603WzWlD4LIAjnXXgube1CvRiA1hdyefI2Zh8r4iBcdPXZXT0szxs7zE8/LhOAqnTOI3x4SCDPObOeEDiMpRMIZWYd1vWAGkYKCwAbfuTaI7WIfTNq87GRkuEPNMCJc1moPVoTy6DJ2JIoxnyuxIFC4Y6fcZ3+uEd5bjLput++jgAAIABJREFU2PiRdugAYg4JXe9VEKJH6J2A/yh64ymKKHUUdyEVBRLkrkoGPn6g1PkQhNKciNEv1IGQ+lRT6nkedRJqdm4BUwDMB4RhkWEFnI1oH4gM/mP6IUJoYnC6n3K1aEUgDl4Rgbml0ZcX5GJKSq8MDlcMXAtpPHjOPJHR9ijaU0GB3DEVk+EhYN6l8Ch9B861G1bIOONGuYT4XFFOKFSK0tRulHHvSItEzw1VMai8lpColyaiioTjDP0O76MhnovSZXSYyJ2RgBSeM+YcDkJ8Lyu9HZArzpFwL6JTJHQauL6UvginhY5Q9KZwJya0OIQ+AZlxeW2+Z3qvojSVVQuRKiPKgxJLzSFW740v7z/FwPkv5u2i/+3lduEP7rCvvO9BG/vaPrv2V+6z6b1T9nev+WNrTi0cafXjIGBpXT0zad83c9jWzE4zLMYDOMpnxro5e9/AGvtSeaAXSTvpIPTMQCm/sIOA/DuIdWFAjwbHx4nJ+ylWrdGqJ3n7eR/XAg5C5Pqz34Exxn9AL8r5qsTvnETe6MzwnYdhBQcBkT3+DqOLz+NdBtcgny8SzWi2RdyuFAepp9K2DiH++ZwYGHOkD8LAY8MQOoJ7Sx0rkA8B4VPLpd1kcIx0CVIg7XbTGp06bwfzCYQg0iY4P1ILfI+ZkqlLgwZESjKUOkQrmPLJV+zpbz5jzz33XFLBwbTKQNW2koNQ7qtZ04o4CNfdtZVJYKr0IbfrYjksoctoGpAkyE0fQj6I8EKVT8qD+Lxa7cq4hFAP/o7ov+GExhBFZOkZ7ZQ8xBSJkOIfIqyiqxzCiMAQqTxNQQd6CuDvI2v0EMDqx0YsJKFr05N1vgAsJyvru3jIKM/DCQhReT08jBVz3B7tBRGPY/e0CdQS9W/Bw0obaOwwxDDwKL1krm9AESqbFdH5EUmReXdC+DF3Gi80E2SclLphox4nL+JPlhq68BDOgbkUoVBRNB0Vr87AvIEj0XRuBSJSPAtE/ZiThM/BOfVn4NCjhKPSfD1SAnSAvPUwjHsgMLDLgSoQofAXAXOqDowOyUMMiD0VNGBWqzjCgS+Bc4BmSixBLeRsdE2ZmgKHDtSUMnGkSmmotAyTSEwmgqfDR4fVoxpCo0I7+KxdpKuOfLuLbIXzwWgz37WBIVw7eCRqzYyxDa6u0J+YHmtw1SONE7oGsUaAfFBAid4C4w1btXYgbRzWQvoqo6jonAY6DCTxCrlQSafSDXiWt++81zae1h9JkWumlLcrf/ZW2/xvL7UWnFE4lqMVqz03bh9/3YescUAk1fmOfhwEnGeg27E3j++327t1K2bSbQteaJG/ANfzE92ifXD16UdED7SvHAPvZJHjPD4fW3qKYSXGtSBqkD35HAchnsd8z6SXJMnnNivyj1LE2GMCgo+Khfnua3Y55XyfQf4fRhwOB5CLI2mCxPeRBgGCMN1YQrnxnIv3MCm4P6XdHCN4OHIVw2Ke5Yo4CBddvY5xdjBM+YCSnG1is7hZDiJqo7Rsh7l6piFAEkTU5ukEln856zvy9jAgoaOPTRBM/soQjIaqFupTLWs2sXGnHIbBYcngRtoAJZShbKhUiMstO+kLhlAqhIKoQywoegwwKofRcENdQY08oWuF1NRV8MZF1aGS7scFjVReKYsHQhyNuJe5KVIGmx3Rt6dAXOd/ANUOXhHApkZeM0wyLFBr1zggU9bz0TBoyEmjNDJEdti/whtCyYlQpOl/pfGKvHf2xSBMX1TFAMaJpkU4Iq3Af/P+8zYwUmTJI9AJXAC8DJI/Z6SQGA4fonMYeDQ+CgeFGgA8sxMUUTLKZkexflQGKP0JkC/hRLQkKezVEbwXTz+Q7InIIaSiPcURXRUp2Bj9EhApNFLyINIVQg1SY4yqCFa3eMnsxKEZ5fyxJVCsSE4euDgYZ1RwEA4l4uHVGSRqQVpapFOmk9yJRMOoKFcMFc9AyuLefDa4dkpACnzGMOeh6qlOjo7hQAdhx70USuqXg1AcLNltH3mDjZ57Ss+e0pyYsU+8/k9s4uuHFtxr+nUQcMIz2k377vF9dmVOTtZyD7x2n80X7PeGT7MDIq4c8TjpICyMIBxt7pb9+3kchGWf85idQOjoYpwD7nBMeSv9sVJHr4OQMswqlcrydBCen7LRM4Y8OOtvtGzWRPlZZ02HEE3A0owoMSkUDHITgBxLtZDk6LEhohlNvJTYKBFhI68q8Yg0Rx0tcWH0Aq2IVIAIZ+hfACVDNUISO10rLkRvBDkrioYRpVKgR7ewdxKtSUk52NSrwyVG+VHWRmIaEASh7knzoEAFqN/vxMyIGEPBEFPNlEl05nMoHgYt4PlkHrsdkc5cbIrGAnLTSDXg87TzKkeU6xzERSEQiiTlDJDPQGRBRlbWS+ShEGcSyQUIi/pI4DmpQVaHOhUUknJYXBC8KkYoQ4xeDi6OFRC6SlidE+DXzL7/mENE7uHsuQAgHS6ML1IQ5Dx00IUxRVeAOoUAFZ4X2lKj1BXrAca3MhTiT+KTIM2QTW8AfUFeH84q1wzlod3wptPDaQq0RGJK7vlRYCrtMVFjR8zYBELUy4W93BuLaoNI07DZmCMVvKR/P+6bqphM/0SliDYkbjT+LOEshsQ27gnPDOthcmzGbrvxXtu64ZK+HARcY3jzatv5u6+x8ure3gVYg59911/a7n98ZkWFkmIbwr2d2W7Ya6YO2VXdlo1EKecS9ym8N2Pdrn02X7a/GFxjuwtAAo9+nHQQXjgHIdLVR39KJz/BbaUHQVg5B+HgsxO2erm9GK68BUJJMsqMiGKDy+eYHw/4GFGWqw/LSwB5z5sKwTix54EbdNxipRKKW1FmJshXXpg27CC26WUWGS1VEHR7me7lLgHtaoZ+DdSUU6kOjXu8bC6tDAhpZ5HMEGnycOa9C+w5KQEWykiEFCTtJZS0SFEyJ3GlqJXHJh4GQmqOIlBGS+hIy4TDontkLWlQ4ukoxCLB75GrZyQqpFrzldckKNiXCFVwKjD3+By5BkyhSCAoiEBMAzgBUeqOcFDcY8b5XCqY/SOQmplo0OhqnErRkK/gCIZ4A4oImVsjaqJ/s/QP6Qzk/L1MNkFpfC8IA4+vBO+CjgzKHAlJaI6oE+GefZAnA3rkOoMT4a3CyRHxcwQJE5cjSgC0oumpE82mekwkjYRSJErCWagUEYlUa9V1IVjiKOifPBK0uo651sCcoqNSR5ZGug4FzsN0BlQgnQeCZ6WUnJP2nWrC81eLRLAwlltvuMe2ru9PSXFkyxo7740vs+rawTnsdIypNd2wZz72mO1+6Ju9JFN/VstBEGLrH+p27OqZCbuxUbP13baNggx6JLvg3ifAvLFczp7JFeyh0qB9vjpsU5k6+KOZlpMOwgvnIHBvcILy0Z7Tyd9rrp595nnbO1+75wu2WHWgYqs2lm3bv1ljeWWrj3gEWRsB7fBqiEcd7RsL/z532Q0baIZUfqjNH5s1xVSQGw7CGoK7KN+KfLOT6Ug88/y9INkgnwHa9jSBGSHuYN7jmiE2g3I+smlDDc/L6Fhmlrk7OSAe8jvRjhuuH8rLe34HSELkkzORXaLYyJJIMfwBQatKAGMEKxaRbknXRhka+hNEfbsvfsHrgqiZM4by1QAMh9pZc5/zTobkEMRDivxahvBH4+tkyjD+EF9irp5GBHXC6iGA/0NPBszD+AHnFLgUNI00U0CCyYHQBOkRTkroBMF5o2F3Vj2MGVMKvBelSVC3n+jTENyQMqQMoZpviYchI6dmR8jjV5RWgQAVUANHTPBdPG/MP1I4OGqT0M7oEN5HakDOoc6nNIOeUaSZmDJxTQlcV3LLitCTiJ2CUtTX5HzhvsYO1ohm4ecwvkAqIBqFDw2NYLyuQ+FS0CQjYm1z7eK+Pdp3xyzRN8DacNXJxPGJShCkI7x5FR3SqI50/Y5oCY55o1OalSN31Ajvy63X96+kOLhuxDbdewGFsRY69nzqm7b/S7tTbzTzwZVwEOSSmQ12O7apVbet9ZoNYv7Jlp3b7hHiWliBU4WiPV6p2jPFik1DQtfHNS9rfp6bO+kgvMAOgr+3/Zuml843saaf27Xb9s3jIJy7bYtVqmUbObtsm28fStvcLzA93G+hbjsAMbzKsho18d0lSdENPnKh3OgS9rolLWwZhdI2e7YZaQQYI5OID8u/QjIY3ISyGNs6JGDETTq+j18hf+8scZQQ4nfBfpetz1H9jmQU8Arc2CTa/U40ZD7aBXpgvEj88xp5EMB4eM8AOj0Ow9OgQtY3FAd9l89CZCEBLFU9zhT/A/OeugU+fjToic6JvFwxb6tPqSYiO+iH0ET1gfMnKDlMaFkiVSyNY17fo3M6H0rP4ICyZJAbqabojbWouEc1yjRIZAm6lwcGtE4mvSMeVIv0vhRMm7jPpUejUtciOBqIkmstchOYp6+UxBxGdI+qARBHK3mbnkQvaaWdqLDZgFPVUvfGslJJipjFHYEmAVJSJDO6XLTKOVPCEssAY7q9b0M2T0huCVJNIMwSddDapNrmYIVOVRBM2VLa1QwTw+GqmYlj0e4kRN3IY8CRSdAS73KJ1BYEWbo5VKSA3JpT+3AlwdgaHOsApF/MMdpPZwm705MNOmfVAThFaFOeI2qjlJjuQe+gnOxX3HSvrT9lW18phuVusWfevcWu+o9L68Ww3Gse7fsnHYSYoReGpHi053Py90ufgWOVYlj6SOZ+I3fpjvXs5kiWN2DUlmrjgzlPDQKPkmGUylWJKAEuRT5XfQQUHskB6EUzA+JNHAOkI6IPrMvSRgdJlkGSuOcRW0nGD46LSIPgDRSSGnpQDrHJIocOJ0Ubq/QS1AExDVLEvtcmLghYYV0SreIWXKwmIlbcTjUj3Rz5Z96jN9eZnqhLz8U1HJByYF4fOfRBROUud0w0AKWHQkUo/ASD7bK6EVDBoIeqYpIr99bP5CpQsEkkQiAWdL9aXavByLhBDe6BHC59JlIhSVMtZjpUiUHxpUAPyDeBEmORzkE0kCIaAYfGkSR5qir7U84Gc67PZLkjmOesbLdktAs0kPj51ITK7AD743sxPseBFPVTLVPPSjwD9ZYItUEYbSIcjhJw3rxSAfOF+2N1AiW2lQqQDoc3kEE1BTgT7kSSSMsuplhfRW/P7TLOSK157wc5KVrZQrs8XEZ99Yz0PqJzaXA8AhEhGRE9Oei4OZwE5IDdOtu8Bubj9pvus63r5+nFkDMb3rDKNtx9vk0+dcief+ib1DRYd9sWq+2etANf3mMDpw3Zulds5QB3feIJ23D7Vhs4fZjXO/gve7gG933hWavtm7bRLWtt0ysv4Bwc+NLzNvbYftvyXZfZptdcsqRmTSuxKR3pHCcdhMU5CMV8zcoL6CAc62d08vxLm4ET2kFAN0duciDOk8TnhEU3pISOPaQWI94FiQL+TWDhAAEFicNoRHbA/ynHwgV7cK4oz6N4EgUAVTfOWngX8pGGvtjjJOs5KIENPts4iu1yITaTGb8iNynwRUUFxoLz4HcQoEDOH/dNAqY7DoB2YSSQh4YRYD7dLyxNBNXCiweQ3rdy/xIqwp+hqqhCB+XxpXHg3SXTEJmGGLn/KDel2UXmheqIRRp6wNkhLCVRJU/h+OgwVhjLqGiIFsKAc9mQKdNGm/yPaFfMShTlCoSKCPIGwZROlcs60xnxUsPgIhAI8mdJFKRaMnR2BDEzeYYwoFVF23SYvFKAJYmRpsHac+SKKQPnQcA5oKiOy1HTSYOD6XMX6Rm9kl4iFa2gvRRT812UTLereuIRCfmKXg8ifKJslo4LymbBD8hIS5O06mWIVBv1FA2MfbbKJJ470y/UQPBUiY8RawbfHRop0VuJltdxz3BMpqfQTyNnd9z8Sttw6lwEYeC0Qbvht77NDj26x0Y2r7FdH3vM9nz2Gbvpg6+12u5xe+gH/rtd+qM32KrzTrX2TNOQSph6bsLOe/MVNv74Pnvuk0/a+W+90r7yK/9oez+/y7a89lK76G3X2mO/+082/vUDtvlVF9vanRss71yihx9+uKfh1CWXXGJjY2N2//33W622cKlkas7MQC8sdbtW7nYgxp68Uz3bKRx8pHr8P9By0zdsaRvvt/anj4wg5LsNKxdryRrNzkWs237mJwla+vnyye/MOwPYi54DB2HPvh57gioGpBiqSDGsK9uWVwxbolR9nOYyt/36DV0YHZa+wWZ4JJcYd29slJLz1M2PBtDz8DAEhGI9quOG7qWTYT/RG4BksaiEYCWAZI8lXas8PqBsaiVEmgNRPmkGvpEHGcAnCNcGM56NkBqK8hBdy4jIsKCkjlUpLietUrLIocvjkDCOSHdwRkKiGUZBIkqqgCCKQXQig4R43kcKgyKk8fw0ytI+gNFDdAwSXxiQ6ASIvhEhzCP1SShWigOCCBbjASqiXg+KYGmYveWwqvGUOiEqkVHHU9SssQYqREPvmgwioco5gMMko63cvgh1mh+kTOjEuUGHMaVDlOphMfpFh85I2UT6hWqI4LaAfMfUj9JRWEAYH6s8XPuCKYdEyyBwJ2eq+r2QR+Dqg6yScRoKnUsnRXDuoZcxLfi+CG0k76MBXQwQNevTInSSjsC1rEg+iLlBTi3gu0ynSe+Bq5FWK+29gDXFZwfFRHdeg4tD0hB+TrlWiWPhRHBGcK9IMaAxF5whVJhwWl2U6dbroYMw10FYfeFpdt377rPPvvuvrTFeZyXCmTduplPQnKjb53/mb230nLV27usvs0OPPG+Pf+hhm3xm3K755bts36eftmf+36/bjvfda4+89yHb+7ln7Nzv2G7b33mj7XnwKfv6nz5iq84/1Ta/+TIrrx1YFoKA+RrttO285oxd2qzZOc26lcgRwQTOZU8RYcmZNbs5+0apYl8uVe2xUtUm8p5yOk4b44l+GazEVmFoXh4Hxl6whpWKM/PmoBXveS+Sxd6o753z0EYWe4aTn1tgBrB/PbdrfpLiuSApVsu2an3Zzr13VaLdc7wmM3fBVWcxtcucNPPiIg5JDjdk9/QyBzs+uh+GERedAF0OYRDxUbV+pqHMEKRYpsfQQWkKml2H5KXgp4gZHRtp1DxCA78BZXvkQSQpAuV3cT71DwhSm67vxWSpcFNVaII8YPUT6KCzJBUSJdLDaJQwdeqskCvgxDiR8do0BCH8Ew16aNQZAuMy6NEgGJxMfzgOJN4pFlKrYGXUmZdHk6BBkPRkmCG1C+5FQOpuigTpo2dC5NqHpFUQjYrUVljWS9kWpYtgmGXMuppHRv1OHk31meQIsCeENm6ez2WaRbSUAFLMVzh/NIyuZKi+6P45T6zHhgQeRQIruaMYTpIQE7VLVnWLykyBiMBwBu+EDl+7zfy/NjmIKTma4z1kgQqJNCmSLc4X5a14lgMDkDNW+iSOlGsilAQpj+gcGs2rwLWgDkaQdF0pEekSzBvWMPkO9H10g5RvZqWJ931oG9EJfAZIVvyODZs8Z4LUWbjMaPe8eR4dhMGzR+yW//I6e/S3Pm1D61dZfd+Urb/vQqusqVpxuGLP/s2/2tTz43ynN7/6Etv/hWfsy7/6aXv5f7wjdRB+9T776m991vZ9bpdtvO8CO/+tV9ln3vGXVts/Zetv32qj20+zs27f2reDAMTg3MaM3Vcbs+3dlg1hbS1hZwM5dNK69kiuZH81MGqPlwfYfv2lcBw1lQJ53SM4CEdSUuT6dQRxUWROdw4U2LwUZv/43uMJnWKAUBJ2q2ShYMOtFGxgqGiTh5Bf9zw9dz20Q/Y6CzDVGTE7RTvigSS3rUnmxskys6QeQgQ/WljfbEF0rDWEIHhNPchu8FbZWQ95em9VzEa6Dn2reVEqTUwDk2mAJN18kCnVtQ8HUAxE4PECgsMQsHnKmocDEd0rNSYIMYGsF6x5js+jXZwXhgtERUwHHRc05ZhENzKlEwyIRmjve9fGfElIRkKEiyZInr6I+ZEccNpGmAJDJBnCZuu+oN5IyWVn0QMJ4hEbgZdtaqxKqWAukGsPJUP8TmI/SvewlwAzEdJawBzCGMcGQweB+Xw9qwgKQUAE2kAo05EgoQ3RCVJ9LYIrQGMJhAPoA5Qi0RfD1wJ1KVzJMYSW+Bz5bF2gy7tFDo0gPaAUSzhN7KPglRbhCIdjEGsglAspghT9EopK18RGmjgSsagdhZFWBnEaX+8qhYzzsMEU0asu7w/dLuO6Wj+BS2gyw1GKNbHz6jvnVVIEorPtrVfYpvsusvqhafvmRx+1za++2L7wf3zCTr3sLFt/9zbb++lv2qZXXsR5+vJ7/8H2f+l5e9k7dtq+h5+z3Z952na89146EI2xGXv+fz1pW99wudUP12z88f02+c3Dtv51F1n1jOG+HAS4pNfUJuxNtTE7PVPE08/Wizne1c3Zf62O2qcHhrN9xvo53YviO8faQeA+QOdfaMJCB+OpTD+dF8XkvcgGeUI7CBdfsz5BEEpsgIRoy22LdyfMwkoKjNQiN5KDibEKkw9IF82ISkIkuAh94xXbPxU3gIGEQQilQrDio6NftHoOA0/o2vX4A+xddWrVut59T1E8yuvULlgHoHOo5OUTEqaF1gEIj2p+yAPfY8RJFEH17gMjJcLRIdkbbYoZuToxDcRJQMsBJcf6pOgQSulWlW1mCtUCIL7phQOcHyJBRBoc8g/7g9+xUkFvqJMphX6w+6QTIZmbR8rBYfkgQOLuKQaVIWOGgeS9IufvZasBzROdT9Ilgv2dTsHzRHqE6Qc4KT5xjOT9+iA2IgWgMj4XfXJnMjgabKUMp4OIlT8n9x0SMaRAKkCYZBmspzci6Bcs4VQEr4Zw4qgcAjm2daQYiGopiscP2U/BI3zJN6sCgykSV29k7wZX5AyxKDyP4dUVb6hlNjne4Pkg1IRTA+kgsgEncajIyRw/OKOW2w7pYm0n75PrWvD+PGWBv+B84cTcuuPuBZUUyYWB6BWeBbg3TjTm83C+B0sc2cRKRE7qUjgnQlLZwirET0l7VWP+zrp7i13xC3cs2UHAWa6cmbL7a4fs9JQ2tKxtG9PzXDdvvzO42r5cHvyWdxKOh4OQOvpeQjPfE6IUeB/IgZdzc4twJHHRC4DvvmPAsT8s+ssvvg+e0A7CpTs2dKlKyGjGEWAQAr2ePgxWkPtCFEfwODgEgNMFseIc5BV4XT82VpAB2YyHRLcOxYqoQgh4Fjr7DgsHyhC1/mSmy76LqMcmR16X7gY8lAa1CPVxGl3+RQQ4oA8BTyfqg4R3pSlAouJMi0iFSIfhV8iAYXjYsDkP0UjCO4wxLROkOfATokzTI1bA2IKnfdaynaBdI0FiSJ5w8dSANmyldJRSj0ZXObbspbPFltkabEhSg1A3vKbK+wZPBM8h7eHkXAovb0zUar2NdUTx+DOcu4j+MS/szcHLOfeAypbxMqozm5AYpCg8RUU0QtBCOFYU1UI+mbLXcvPS3hSphHToK+C5Bz+G6QWvyaTGQjaN7WAWnKeQKmaHRK8QiBbfcqC8kgXVDQ2ogAJ58fUfOgtIw+Da/h6oj4XKWwmmuNKnHEutD/VV8NSZ81a4pigh7ZOVGTONAN4D7w5KAqs7dkrbdOyWHf3rICx3q+xXB+HsdpMdHS/OKVWyUgce8dc6OftPo2fYHiyyb+HjeDkIKzqFQTJONtEVPLs72ItKiazgZY/HqU5oB+Fi9mLQpl6qoENeRHTqaxCbcBgpdQqMaE6RGxrqZKNITKr620eUrXNC/IfRTIjguANA6NihYEa13mJ5cLiktsG+qbL8zImAYckZKcp8a+RuOBOSpdMogp0f0LNy5op8YQTUP0IVC2xx7bK98J7hIEQpZgg/xTyR5OYlgrg48uxAK1DiGJGjuAEgWYosmMyx37/srrx4OE9AHtQ0ydUJ2bJYwk8oi4x7kHcgzgDGOQjRHwhENdRmWsiA0A/MK3gE7CToTlTCrvfGQSBE4v6CpCcqgFdA+EtPp8OVN8PWiUchZ4BOG0YbsLKX7iXLisEBxLgg/JQ36ENMjc/oCXqZK4xsrKkQmdKcqT1yGFylQkSUZBYGiBfTTIWkN4a4LIjstY4okuSRcvTs0Fr1xRNdTeFIeNoDvyHqgTXjKSE4H+I3hKPmq9DFkeJ0rKqBiBa7n+r5E/WBUmKSSvGGWEW1WI81jXm68eV3LKtZ03I2uH4cBHAM7ps6ZN/ZmrLKci6+wHcbXbM/KA/bxwZXmbcsOwZXeeFP+WJzECI9e6xnLvbsY32d43n+E9pBAIKQhN/YhPn/MgphZBGBkwQIqJvGzOVnwxhEp0HFiolUMBv6kF+Q6SGAUkU3MJJ3ztvQ6gqj3XqtbfWpZmLAGHv7pirI2Jvm+F6epDi4qUu/nwuIv5dBIfxOZEPGDuRE/JwcCH5QBDbCy2Uv8fOSP3wSETuCwVVrqhQFgoFCjp2ODsV3lENOZIMFGJA8CRQg6vtp1D16R6MeGMdItaBCoY3OgSX1REhetpyXwoF3AaIm2zrririPSGsMj1Y4Z6q1hwMHYl/RBkdKREaYB3e1RxhKdhX0skqOiRUKgpejUkNdDWXMIw0TKYfw4lmZ4AqIibPRlmy3qBHiXUjMSQqM4WiyeReaXIEsSMGklL9IpUKXlA7fCX/iO0hh8Fr+iFHuyvbKQFXAcUBOnyWRzp9wpAprg+Ral3LWfHmfCZRyevkpnIvosYGUQqsFFEglsRpLQEzgP8iJw3zKw5FDR4cE6TU8Y6yXWlOpC3eOAmWouCaGTik1R84dURqBa7fe+OJCEEY6bXv3+J4VRw+yG/YXO3n71VVn2Hi2H/3x3NGPw7VeTA5C0kfmOMxLXCJRKT0e1/RXPgtYruRlkXqGkuIcqeVyxbZeeI5Vq1UbWV+xrfeMMkA5nkfushs3cC1GqVhcXHB7RruO5WSS/g29ey1iqPh1SV6kbUTkXVFpHprNxGeqFPVJAUdCvs6QR9SCq7VRAAAgAElEQVSOqI7NgxCJdozqdIhGGRVra05yyqyQy+SmsJEGSz026upQmVGocs1KN9BYAg5mrh25/HImd69StoD0oXin/LSMGjZ47kc+L+phpbwtviNindsJjz6TlIZv+MgDh7Khcupq2lStoixT18diQQWIuvulbRuSbo3RWZAthUGIVNkknhdSOLi5qNGH4ZxCntxLTmFERUhUlQZY9NJ5cK6BO2Gc9yE4HYLNmRevw5nLqmPmrDHdsEJSTSDjiQgYiEs4l1wPRArQ7VLOGhwAMP9R6x+aCxJkApczpyZNRB5kVKk26ZB79uWgU5apmxVagH5X+B9v7BQpFV978UwQ0SP9BM0LOojFvA2PQnLbeRjOs8A6APcC8tQ4amh4RR4ImipBx8CsNoX0g94XOZs5SnXHe0Kj38Z9oEO9fBk4HOgoymEhHUbkqEOJaxBPUQ6JreDWG+61LevmEUo6DrtEPwjCea0Ze8fkfjuzj9xCp1y1wsiwmlPgOTQbZuNjYudmjgMds/cMn2pfLfU2oDoOU3LcLvFicRCyUvfHbXIccM3q4Kz0tYOcqf4wS6m9WfpI8Kyff/Y527t7T08AUq1Ubcv551qlWrXqGavs1OvOO/4OApQUIyjCJoYNNDru4VbZD8CNZMD6FDKqSykuyCSQ1FXbXSrsKMptQ5tfmyiMA5wLMb4DMMYVlLAXSV7SxdxI/RxAMoLsFqWFsIMw/jCu4p25WqFrDYTsMPUK8Gyd6R8PncYLCoIe1UX5JkaGOnS6IxEocvOWwBGbSVGuWJEoDBnODSOCiJtcCQr7uFKjr5UgYUpOmA0beZ/saInrweFhTltOQ0ToUiBEyiCNUJFToCZF6BD4XDKf3zUbHC1L7KjVsUP7anRwEOXTWAGp8DI9OAe4vio9xOHg3LPqQg5HRMBpBUkwnoNz4IqF5BXoHth0yfsp4E+klVhsyOZMzprO56VV4V4ExgWOAzkGzj0J3gnTLuCtRCmu82QgyITfoVV4PD8qNLLPg/pGRKpEOhQy/CVwTyKf6YiJNAdcA8LJjeFw0nHxNuBcrTTuQnq4jnPGNQ5HtNGEAxodycSvYHljpDSA7qBUNQeUAesPjpJIuXhvKISF0tvE4euSg7Ccds9L367Sb/TjINxcG7fvqU/YEN/z9MivPdXyIyPWfuYZy5VLVli33lpPP2Xdpspu6Rx+x7+zVW+633KVqtC+Qwds7Cd+xOwbT/acq941e091NRs4faseLwYHId67F+oZcM048rmSY2BbeToFy4jWnVYWe5z4RilXLjve1EHYPddB2LbVKhU4CKtt7Y4L0gBzgRvGa1fKFVhOXCgoaMce30ZXYdADEH0v4chdfO26rhjp8ZpKzTAREsqcjFr+7bYTt1JIWFLMXhbIz4sIRvjaIwlJ7OaZbkDUFnlr9AXgBs7mNop+FdV2bXqqQYcFkRYnGlGyVyBEHp7pAxffYfqAxlY5eWzkethyTKLcLNG793vDZ5mj9tQKNnsYAMlIS/sAB8YqqeO0jI6RDppjVFJlx/CqUY4olUbl3CPKFNnNyXdePw/xHPEiPL3jyQvm4H2vDdREzpanXDro4VCk8Q1iJ9EBOBzejpqQPcRnvPsgUhB0dlyjIbIBdAiT+dLkyFg5GdPVLGGEMed4PoTZPUrPvqxEM9JilYTIHGaDgTPJljq/IH4XSWJqSD0W5FRGOOoOVoJFOVHSO0NCbIgwP3uBSD6actreNTF7P0pxKAMi3QVfw9mSX0+xaEkHKdPTG9TUwLxI64DcAk/xxOYeSpGBnMWapTYFngkJmhqzRLY0DiJHzqVBN8dz119s5+471b70N1+wyQMTS3i9l/fRi+59mb32ffcvqYrhzunD9pbmpM2O7SvXXm/DP/JuG//ZH7fKNTusePlVNvbTP27dqfR+2pu32Oqf+0WrXnE10YPxP/o9q//2r1tuerLnRsBDeE9llX1uYGR5N3gCf/tEdxCILke72dnzuLAtnDvjfSBNPSfJlJqvxONUc7xetHux58U+VYQYW0Fl/HibiWBnAk4Z67Y1mmrGp98FgtCfg4DvDxUqdvmmbXbZxvPtjNVrSQQvF5Xi73TavNahyQn75v7n7KF//WfbM3mIGdmjHblLr9vQFVtfSIEY8sqBAu7lhovcvhPEGGl6XwPmat2AMNUQ6nu+oeL+kbdHnhibHwwXnYOkFag2XZUXooOiSs3gVUBzAEa6AuKkexmR8kCUScVA5tbTvsiYfIx11SlVGmOMmd3yYMS8w3KkKgKyZ06fT9INBXf9IBLKWCOijpI8RvkcMyhS6QyjtA9fnR6vJ9F0eIxEB6DpQI19IA1dqw5W+Dmch2VtQb5Eg5+hEsvkQvKZpEU0Q2IdvdIjLJX0eVUaBPLUEumhg+cOQKR4qE7oqyHK98ShgIYCdC+0mCYPziRKiDHvQk9c08A1B1ReKW8UIk/4DCtRCI0rfYFrhhRyyF370pCstiMV4pboOcD5YYmks/4DIQr/lY6Fd7Uk18NfQDieqvpAWaSX74VIlef+Yy5CpTL6UGARogIkEBvl3GSkBTF6uamTEqPCAvdC9Unn7iQEXCo3yskONCDeDVX5OArlHJtwFoCKyUGAWJZ4O7dcf6+dt/FS++QH/8b2AIKcBbcf7QVfzu9vuu9W++lf/4UlOQg7Zybse2fGbXg2gjA8Yqt+7hetiwBj4yarfej3bfqvPqquY3EgANh6vo3+0Lus8dSTVvvtX7PCVK9zgI/OdM3eexJBWJZQ0nLWBY1Opovu7HMhSIWy52IqDroeSC5nPCvFR1BwJFG5pR4Yw2C5YoWCCOVHOxBAzTQa1mgpMFSKYekOAvae9cOn2htuuNsuXH+OlUvlI14aNnL/xGH76Oc/aQ898Yg1uo5OL/Ct3JW3nNOF8UojNpWkwaiB1U40HlK/rTYNVrT1FbyK9rkqWQsOQxDbitmmTITOPc2Q2eAk8jMLd/HKgqi5z5bSZdsoR1oh9Bho4wlzo5lTSrKUIUObaUV5gUJokcswUQbXN/NAgrhRu+GKBkQYKmrWJQWs6DSIdjF/kZqIHgKxWmR0ZMB6ytoA/bc6NnEYokriJAQCgki/WUdJqOtR5eTI5V2SV3LCMvJsne2OVIIIJGVHmaefQX7jUcBQot1EpZIRbYq0Dbs7pv0ZgpUS95klZwYfgUiIw/ERNbPctYJWy3JuNF6tLZxLJbMumJSB+/F5Oj7UTnJUykmAMRb1EBExEcJXEPnCvWG9gM9Bp2FQEbuqZEQsjbmT8+G6DpnumWmqR9UzgZAwTQYnkk6bo1tenig+hzZH3ptPPe/bjb/WVSo/HUJQ+CjuNb6Hz6Dd87ff+0YbHx8/2p6z4r8/5ZRT7LLLLluSg7ClVbd3Te63s2Y5CHhPqjffZsM/84DZoYN2+Ie/11rP7po7ZqB3A0OYCCuAgzDPsdc5CJBgfqkeR5NaPpqS4nLm7agVC4jCm5KsP5q17FJddTmj0R6ynP4S/vpbp01FvSUPBvvjSHVwUQ5R9uTYEWqNutUbjf4chK7ZuuG19mP/5i12+upTljTuerNhH/n039rHvvLpIyIJuZe/Ygu3xMnDXmrmkA306oN5LShaAi4BJydsLhDe8ICCKOgpf/UnQuSt3L3y676lO1rRc0fom0AD4SWTrqAnZj7y6xJJilRDqkAYORXl08Ng4dwQiUEkFxG1fBE5BTAegPUhHEPOhTciasMY5SCco4g6Ui8yVC5/7Ix8yuiycsLvhJUNgnNmH+RSeFTMe2C0jFbK0ZZYefoq+gyAYNcSCRGtrpGeCCeAk+T3JtVDJygyj498rpwgOCiEvn29k0tC1CUdmwR7/PkhenOOBH6K8cZ3abDgaLU71qx56aubPsg4U/TJywlhmKcm6t5gSxAbSJEhmhXOAI21d1j0x8KUCHQGpH6oOWo2XM/B1xPvPY+mYSlXRP0hXA3U0x28X5AbGy2rDlSSUtBAi8BrCP4FnBNwanAQEZi1YbHaIZYZUmn+joCYy4oD16OgiFeSQ/GUROKkuVS5S/ywhTnWuzsRVIVIuDLik2Act+281159z3fa3r17l7QBrMSHzzjjDLv66quX5CAMd9v246hicLno7Djyq9fYmg/+iTUf/Dsb/7X34SXsa5j/1C2wimHyJd0Y4IVr93w0YiIJuQ1XXz2K8c+VxEta7pGQv/s8kVILS9fWwN44VKlasU9dDtjWialJ2/Xss0tGEAbzZXv7PW+0izds7euup2dq9vMf/k3bVTuQbFuzT5S79PoNtNp86K5pwNyxh9L4E7oAg8NlGlGpr3VteqIpo+Bwr6IjWVlWKGQumZDRvJwNUXIc1AggoUIrCZu/6vpRhqbGRZEnVp17Cp8HbB7pgrDLgPCxAWeh35AQFp8gGjCJYAYnhCmNRFkQ0a4r3vlcIIIUyS6gcbU+xqH7E5oQmv6RV8fv2W/A4XwmPqjRrz4BhLK9X1WCALjQEs4B4xRdKWPOECnD4KrXBc6Xsw6MbUfyyJx/d1YCKg+Di7RCdCmEfDQMLdIibKLkyotID0hkyUsznXswO5/Ge+fLLWOo1JOXgQZXzw12qhqZzhlnLMg8jsqQDwPUItNcCmWhXUbsaVpDLZ6j7DCd96gyie6UMUaMPTaRkOBWJKSBwjHBc1L6gO6idZqpvgP7UDjgRYEt5x3Q0XEHod1s6Rxh6CkU5E2e6BCk6wBoChA6zNnMFCp25OSEcwnHEw7abTfeZ+esu9C+PvmInXn6WUuOUvraOfxLW9dvs/t2/tslOQhYDndNH7LvakyZq3LzIRfPWmfVV9xl5dvutLGfeIe1n3umr6GBA/q7lRH7BHUQXsrHie0gmCMIR/IPiOIBEV8mgiD0eK5jT3uC/ysUrNX24GkeU6igpT/0oFQs2lBlYN6FGEhh2LWFVmuj1bCvf/1J27PEFMNV6863H7rnjYYxzD6wxx08NMb9ZXR02KqVuakH7LNfffpJ+6W/+n1rLvA25S65bl0Xm6NK+BT+M6Iim9q72LF2XKQ2/FwGS0ZdTY68d4FHtzRs+BkWCRn3KaFRobqMPpng3qkRkTzFZDxXzs2SZZXohqiwDMSPaDMMx4I/czGgyFRIzS8U3JxgVxQ6EWsDBl1NcmRgMCQSHFlW2EsSpIPS6lgZbHP0ifA6d0DBbKrkhlWLPMeyQ0LaKD8ER6DdtcmxunLKCRkvyH+C10NZsjqUkmNgsBv1Jh2dxMh5SK9mT14h58p/SSUGCaMe1bIk0pEcl0IO3kA4e5QP8LlRrwO9rUCL4IjgngHbMxUfbYtR+19XuR9TQWDlo+UzUBloRJiaVZHc6GNWiazcxmh+lbRMds8uDG2gQ2VwCVA+aF0SLOEQRYAenA3m9D1VRKPuhMRwPsjJYGrJ16DDA0H4FGLlY3LBrOifUJuElLJePYkcSTsDiA4d0AwHQqkFN/L+HiD9BqRCzc20vkKBEY5ZsQS0qGuNWpNrSSkovRJ0htpdu33nvXbuxousck7LDnV22VR9ZUmKSL0VcnlrdiRilj0uOPNye+0137MkBwHfP73dsrdN7LPtQBEcCildst2KG8+x5mOPWuuJJ+bWVS/C1mNeHunk7f2rTrf96IX+kj5OXAchB4l4pOQyvKeFHtWRUwwIFIvSUPGUb2eBnHkgqXEd7EnFQtkKOZTc563VESmw2a7PKSWQg9AfMRG8g4Xy/vWGGgw2Gk0rlUvzGmmMt91p2+OPP2G7dz+/6CqGQjdnb7j2Trv7ihvndQ7+6mP/YP/y6NetXCnZ8NCgveXfvcrKZe+jlPnGZG3a/sOfvt/2Th+e9xHlLr9pUzfIXVSm89I6Gk6S0wrWrDelBOgtb5F3ZaldEcZTsDp2ThiUIL7FU5Ux8Gv7nwHnE2LlIlIEqLpydesjFE5hI0V4eMjxOaEKEjdSSWGmbNL5ENElMPL+FFxCvj8hxIVksBwd1q1ncmaE4+ttazppTkZEnR0VuQZHQV0SI5euW4zugZkSTDcy+F0STfMcYby6NjhSZhkltf29SVbaQrqgngThWPk1ErKlu+FwoNjAqgiiZ3qeKCMQs95tAQwWEAg3aHgJaXiRYndkiEGzE1F1j7IiKvOTMBBuoQInE/Prjl2UZlJPgZ0jhTrB4SOPA7LZLlMczmBE+HRSGPGDeNn2vg9yYKPSJZZUVJuoAZcZ0AaKLFGdU8RJ/I6Rufuj+G5KLkwrTfCMoZ+BY+JQnaqLuGikcrBW5SRovYYwF6Wdo9+E929g6+bBkpeWil9BgqqnawLFwFonAuNVHakDJALuHbcKQRjc0ravHPiU7Z18fklmEWeulAZt6+kX2tlrNlm5WLGx6YP2+PNfsb2Tz9n1591h5515iX34079p082pnnNfvekWe9srfnrJDgI29O31aXtr7ZBtoObG8g+stqe7efvA0Gp7tDS4ICS6/Cu9WM5w4jsIy+UgYK1WS0PJA0EaDg4yWPmzj/l4CIV80SrFAWu1G9aCoRK9u8cIc7dmUNWfwzlcHWTlwkIH9sPpWo3djgcG5tcWxV7w2BOP2+7nF+8gDORK9u5XvsW2rds859ITk1P2H37+1+3uO26wf33sKfvKo0/Yz/3U99u6s0+f81lUJf7if/uAfXX/0/M7CFBSjE0/yVd7cxtG1t5XgUz+pAFSyh4PEhpKESMqI9KAFsxg7TtsT2PCaF/58WCg0/DS+GtrjPNJ2EisfLmPqZPhIEQSXeP5kEAWXfvc25RegZQAI82B+8DPVXcvSgoNAErPSgWSLrGR1+tgl2psNJbe2jccARLjIjLMTK3ob84N8Ht23FpoQSAOPljcPxABRs3ufOBe67VGQrTLIh9K8YiQycMheokqSepZUspdY3viVpciPxXXo8BiRMoonivbTlMZE8a9Q32CMIiK+kEATIWUEsYw7C3mgBUpYu0HeTOqBTA8pUKkGxBETkkj44GqgQLuRVwR5xX4reE8kGKms8rIXehMrFfePtGqDlEOpQDcRfM+DHAwQg8hqbl1fmmkF+QQpYiAqkRy9OyRT43TUucBsteuYxHrNcYTok/kTriCJzke0USKu5FvUy5vzTnKiE0FcVOPtWs3X3ePbTprW18OAtbu+rVb7I3Xv83OO+tSKyLq9utP1A7bHz/0frt4/RW24/zb7R1/9AY7XDuwIg4C78nMrqhP2humx2wdnKlleAnY2r/RLdifDYzY5yvDJ50Df/GbheEMNNu7vx8zkiKr2I5cSy8EwUk087mH3PNBsG5brtilLsx8B/bRgfKwlYplvgu1Rs2ardoCH/amUsm2CMd4gCk+BmW5PIPNVrdJhyF7CHWe6yCQQ8deLK4V43YlvoslPTwwSOM/3wFbVqvNUBpgcKBipdLcCJ5bQrdr//r4Y7MchJxVqxXbuu18K1cqNnjmWltz7fnqCozKsVzJfurV32Nbzlw/59J79x20X37f79l552603bv32zPP7rEfftsbbPsl58/5LPhuD3zkd+yrB1IHoVwo2sZTzrSZZsNyl+/c2OUmGjlyGqkU0u9hetNIOmM0Q8bC59nCOWQgc11Cq2MHp6WGl4nMSzDkIKO5Nj3ytdzTIZHbMhpuRJDIj0NWkumOmbbNTLZIYouSMCIERDVylGoWNqvSx6nxphjykujx+vpZ3QBdmZH9CaJU042LNnqRBGM3otPjPRqybZa7eYLmrJyg4cAYkEeH85A3W33qIJ0XKAlCVph5fg5VSER0hIwoMkShojsikAwKLeF+Y/FnavJpRtzARwMsPkuMIwiN3tsg8tyBIIhshJJE1x8gnI+p1MMtIq3kqQX+wDUmwjAK3kfZZp7kyixrn9ED5qOFl6RubXaxRASNuRJCgfwg7opcluAI+PKTYyhDjVSDRK8UaePZz8w0WT6LXD3noANFQ6gQqq2y0hvQtyhKJwvPz3uLsJzQcytAFsABwDG8qprU1EBQCi3IuXk4xyAqEyCQBRdMfRW0rkCGVH+GyKm6vgMqRMhL0M+xXgdGqlwPQRxlasJ1LdDDI1AqVA7dct09tnndBX05CHAOfuzeX7K1w6fZP3ztY/aJf/moTdcn7MKzLrNvv/qttnroFP67VKzYO/7wO1fUQcA0YGve0Krbq6YO2+Xdpo1grc2pbph/v8dP292cTVnXvmgl++jwanuqWDnpHCTTdaIjCE4antfy490pWhcOeFE6KgsdeOOrpUFrQehnIefAeWDZSgbsMzDcuVzBSjkZ5lpzsocbF9cUgjArxYCApFiipkFwr+rNJssSM4/AhsoD83IAsvczM1O3ZrNlw8PzVzrMhyDAoakOVO3iiy+2gYEBK582aoNXnmNddxDKuYL96B1vsJdtuWDO1IF78MAv/Q73l9tvucb+6mMP2tt/6E10GGYfzVbT/s8/+8/2+KHn+CvscVdtvMCuOf9SWzMwarnLbtjQZamiN52JyBQ5ZkZ6ISTjJXrYbLHJKaXq4kYM0WUcI7IONIEbBTZ3+AXYzL07YWy2OFHS/dGJWoC94WECuic1IFTrYBzw91AzpNRwkeVzEaUnTHxExEAxCOvK4AWKACOMHLn4DcGmE+M+m+emTQSSkQgM6bMBuyPqBFwekWtEs4q6FfUqB690iIyZox3uEMGwMOfN6RYci//lfHk+WmNXRQPdEQ9pmU4AxE+nw5Ps0RsgUylCjQKiKVoeNL7O+mee3xEPnqcIgwzdC6AqGjtKBSnoEy+ioxYwZlgnIdrENeHrZGh1leNXBUzbDu+reVms5gvrjWkBOCJ4Hq4BIJ6C0h74D15/8Bl89LoNOkW9mxAJjmR8inshLoMIiIG8xDONcbP5mDtSUbVTGUCaQUgQUYya+BZp10alieBo4DrRQEwRhwiyMPJ0ZrvdpIcGH1EhZ0OjUgpkSofOqBQn8XeRrcL7ztut19/dl4NQKVTt+2//KXvZ5h32oU/9hv39o39pjXadOdnTR8+2tUOn2ffd/hN2xqp1Nl2fsrf/4etX3EGId2Wg27GNrbpdVZ+ys5tNGwBqRgdiFunBlSdbuZzVumbPl0r2mcqI7SqWbcbX/sKm5KX2mxPdQZBtmP+IEuCu9Sk7MOe0szkI2qvyNlAasnprhjwb8RDmoh8LcRC4TzmHiwhrkptNL18tla1anj91IGl5M3AR4AQMDQ7MSzJutVv2+BNP9JAUmRqsVOzcbedZdWDAKqeN2pqMkiK2iLsvutbeePMr5/hXqI77lff/EQOcCy/YwhTDO374TTYynKZr4g4OThy2n/iT/2ST5GboGCpXpfiKveiqW88Jq5SQArEZhkiW0itelufMcf1TmzNy90wlcENXRIpoCH8ruxxyNEbiJLelqx/WSkxP/ZM6Bw6Vh1FMUge+YSfuJnkHUaKX1sIqb51WJIgACDEgQec8b0SibD2t+nalGTQOEjSxwZO8GeV2UIDE+JBPdt5A3qxaKTJ1grFHXp66+q4mxh4VFJQS7I+DBE7K/6p0kHwGemKaFXVhdJEqYLPupMH5ERFO0TGJc4HaZDQPyAlxJj0NkRMaafCdWxKLQYTOlByCceLcoUQY1Q3BUwinBNUfGDeNJxwxl9IW4uSGm38VisO+GHSSgBuAGyBxLFWVqBcC58GdTOkUpJG3HCN6RnprXdo5UJNIoWAexw7WpGDpCpkR1gu+V98MnsJLRLURpGRHqoAi2nXRMFVpKHUDXxhOTLSPBjISazVbRQPkQ4CUyJk8Izte9kKhWAtEkXxNsu8EkCpfB7fuuNs2nLn0FMM5p26zn3zV++xLT3/OfvvvHrAmWdxG5+Bnv+39NlgZtlKhRGGXqZlJe9cfv/GYOAixznD/0Cotoo8FxbT8BZm11QOQg0TUDLRXoImQvDUvNQfgaPf7InAQMsjxQnezEjoIOPdCYknFPPZ9lLHLwLfpJMziMJDXpRW61AO2DTyECD6z34daIvZiNW9DCn7+XMp0vWZPPfXNJZc5bho9zX7y277HRgbnSo4fOjxun/ncI9QAuujCc23LOevnjBFOwH/79N/af3/kIQan8x257Tds6CK3y+gJb2fHyWPuDAB+jpxqRH0Dw2WRtbyHAiOgmRZryZXbTgkDMHY4v9JWcgbYOpeylNHm2Ylg2Ly93BAlYPgM/0ROHvB8sNXd4EX6AwjIAMhlJCd0rTYJVrjaHWPz5ZVdhhkbOxsxOYRNEpqrRYaB14avSJCEvxC88W6SWPfRYjnuNAxbVgKZpXFuhDBn+B5UIwlHJxUfmkf+29cPnkUI+0h2VwYcjg9y28jvJbwRJ80h9ZOUe2YkUFmxAX4A2zi7/LGX01FSGnX90ZQKbYlRIRHKie7McP58jJLh9moTl53G8w61R3yOuIND/FGimaAsMNKwDY6skGSI0kvnOoRDx06g6rnE1AHIsyQuugAR1qUgRXf63G9QBQKEr5Taqlax9kJKPH0F2IeC+gZKAYSDoGefVnPwvfD5T0mznj4Ieowri5KsSnKNcw2czCrPh2eWVgfTV9I6wHoEAsZuohxTVEOIU3LzdXf3xUHYecE99padb7ff+/v32IOPfSy58cHSoN2w7W6rZESG6s2a/a+v/rXV29JCiaNfkuJSN9mTn+9nBl44B+FoQkmwvywR9vLnI97dCpQ50kE4Qk+GeCflwM9vCLVvz88RONrTORKKcLTvtjptm5ietuf70EFAovOui66x191w97xESfH50l4w2bFgn35y9zP2yx/9LzbRSdGD2eNlmSMiKZRDYEMKIxmRPh4y2iuSBe4RISwqDAn17ENEx1nkuHD0KmCFQijKuXqcUgsahpinaKBToGgRI2WHXuEYwDgDlhfLXd9RIyf/vhtURryeMqAxYM44x02Ydsg3bH0rY8zgSHrXZ0T55FA4NM9ot5gnisDrQojI5XyDSCknIroweuWCkx7hWYKXUBkqC0EgY19194i6s50jOWZIJ6OzIxorlfISEYeoiiQAACAASURBVEKEjnkJ7p3PG6LTOGIM/IwjJJCWVlMgfQ5RO1NAjqbAOKsCRNE9yIwYAxy2xLWjMVawHkJANP7UvnDHaRaEqGcvroHSFl5iGQJRHGTvEswSDvX8JZVMHoFXp0TvDjaTopPjToFrMMRzFUNZ+YtsOglOGZ9ZICl5XKPoaROlEVg+69sH6SzBO3Bvh0iPOxPsUwKBrWpRqFdUloj6ofN5tCDpcvcxvEw41ljMRaiWgg8TFR0xSzuvucs2nnH+kjkId1z8bfb6699mv/nxB+zz3/j7o+1T8/5+pR0EUo2SJeCkjDlX1s+ZBVtwO+/rdr7FvvQCOghH6sOAZwYAE0JJGQd+ocmHUNJCJMXFPrD50guL/W7yuWWgCDjHgJc7HoFOMWdIIEFP1UVi3N2n1HK5m7c37rjbbrz4KoOjspgDSMrTe5+33/zbP7VnJvYtSHTldr39+o0KZdxgcxNGTwPpC+s1hTaCi8pEC95IeeN7LPfKyPzy5e6k6nTZQbOUMiOiQyjX+xFRTx+kN/9C9D9Iaumx+YaAj6lJUVI5kSnVk6FKyxhxuh5vNilLjOgzyhTdPHplBYwGSWjxQkRkiBMGnuxjFVEQUDogrdRPnZkGWoHfzWLCupGPCgGOkWkO72FA8p92SHZ8dCchKnygae82jL9j5I+GTPVw5pBayFkRBt37IoTRxG2wqsDJjOp+qegcaAzKO3G4TaWBA7TOCgwXdqLRcyNIlCV0FgDf80MqMwR0jg0DKQjdY6AvmUnKLBDMdcM7ItL5QqMrlnd6eoVzHx6THEdov6MBSkh3R5QezgcRFJdbDi6GUlv4vqpc0IiLDit5Lm1HudSISVUNSk0ET2BopMxzAtWZQTkp0DTctmsuJA6CO8TgdmDyMA+BHikL37UhlIIiZVLyMtGWGTQYwKG5dec9tmXDRUt2ELavv9refs8D9vEv/4V9+FO/YZ0lkAPjcayUg4BlPNxp2/p2wy6q1+z0VsMKYIbPI2tb6LStUcjbvmLFvlwetOeLZZuE1Pdidr6X1GdeOAeBe4M84XlnPNFBoIrqkR/KSqQYlquiGCOUc95/F8cyurOW8C4fWRqShPd2y2r1elJ22W8vBtqFttmNW7fbq6+5zU4dXb1gVQU+O1Wbtn968l/sv37qf9rhlnhhRzpyV9y8mQhCGCCmeJEygPYBLVC6CAS9KpfMz/uZ2UUPRoodC/XDMKoyjk6yiyZIbmgZYeZzzLkGHELyGS2JR4N+DWbwo/W0b3ZENzxyTuralcjgsJXuyOgw+LkUhWqgWVlk3B8MbbackxUE6NZYLqg8M8ZDsMG7PrpIDptORXUPc87iElRI+uOseIpFtXMqwXEUA04N5hBiQPydiIo4H/L1rBggYzOaSQkZSNCEkDR32Bqf5zWRDnERKpEI9WxwEQgxRd8NpGiQjgEZkaI90RDKmw4J+k6hmGxnSt2EShbZpsAdhkAQogIjIZuG7+kljoyofUzxbqFhVX26KYRq1kYUlSeaUZVbYm6o++CfxRpF2gX3j9bQdGC7XZucaHqU7hUcDGs91ZX6HWqR6qqOfKa+rlkZUVXFDhwEEJGIsngaI4S8wgkQupWWsFK1k45GOOUiZeJc0pDosAIoXsjb4SBsXLqDMFwZtZ945XtYwfDev/4p+/reR3sY3BBIoqM4T015rPGVcBCGOx27uTZmO5ozts7aNoA9xMm4ycs06y+YGVQw1HJde7abtwfLA/bgwKqXuLTy7Nl6YR0EIYtSHp0zMhdKOprx4R4IDZFlSC2vVKOmuAc5CRjQ0vkI2m6VLkcVAv/tExRpd6aigW1n0sDYs5bjIPA63ZwNFst25shaWzM0ShR39RDqhozlirjGwalx2z81ZgdnJjmGxRy5S69b3w3iFKOxnBja1MP33H3SRtiJVHyB0V7YlfaY5/dGO2R7k5WfKRP0RVQE7B5GNtKybDTU5CaeiOB4RQS4BEnbaHdiiF7DWHJwLlfszgrRCaAdXpkg9Ts5CGSbQ4AoIvWA6xO5XjQrSpEQRYwtkQadDa8mSorwwzBESiWUAlGPLwKhUhRcEKzC8LSHw+8i5jl04mV/SuGIMAfngePmfYrMGF0v4cQItna3A/PA60h+OFIgjPydgxAMeppy5N5bXTLnVdcvI4Zx41mHk4PzwzHCd1k6iXE4l0Nz6v0dGm3XEQjJY3mE/AwMIrtRZgRznH9CRUh/rmqLbdQzIL8AxreufhlRaRKVDpEGY6WFy0BzLhJHQo5M8qzdCSM6Ro0L7GCzHF/XuqCAU+LlugNJZCFFmwDthAJjbTradOt1kwgUpKq11rhGGS3L8Q5yJH4VcxvkTKptevqOJ8vn7CakGM5ceooB4335lpvs+2779zbdmLQ//sffsK/u+iKRllOGTrc7L3utTTcm7COf+4DVm73cg5VwEDBb61oNe/3UQbus27KhPnvyYN4muzn751zRPjK0xp5lTfyJccx2XBca1VENZV+388I6CNqWnIA720ngHr3Ip7Ssbo692jx9TeM8X9L7iPuLhNhSEgdLH4UcBPRi2HNEJcVTrtvG0v+jHSrkylR4eTbvaGjOfOfNXQIHgfcPg4WSQfUwiIYcYrGLER6thrHpsYQDGyIMIurl2Y1PuXQaTTRYcoRAXAV5VyoXMWtMq6wLRxDfYKyCQIgxic2vCJgEyWgx6s8roPK0K2GkU0L9znXyfcJghJj7B5zrSoFZDQSWxrvhEI9C0stsOBQbfJQiBppBwp9PLaPntPQx7RHhpEJvKwzGfRBmRDiUI8CsjsN3gvCAULTndCpTOZ3mMhLr8BhjjILjtUiiMyS9TJ97ku28vE5OmZ4tDDHH7PNL8SuWhGLC5LywWsM/F3LHvA6dKDlQOhShx8nUyEjywYyqvddAdKSUVLGMvNAn5zLA8cQ6gOFEIyuInbDyQQfbKhcQk6aoVXIfbkrwfRhjyECzXNNzJ1G9kn0xWBvjMgnBo9BmGGCaIKJQiWOkkJUSz6JnITTm5FY4CiFChbmKplR85s7dwcmgP4FrINV38zV32qaz+9NBKBZKduN5d9prrr3fBisjBnEkVDOsHlzLZ/WZx/7OPvTp37DJ+vydIpeDICCd8N0T++3SXIcljcs9oLvzsBXsgyOn2u5Cf2Sy5Y5h9vdf6g5COAnZaHil53jB8/keeCyvpzRkRGkpP2ulr0kHYdfztnf33sRBYLBUrtiWbedapVqxwTMG7Kwbz+hBt1d6HEd0EJhmiKjPSXMBIxE8Drzald/YhyGjtY2adsHguowIZoqSox6dC4odHcURYKTtueuoKkC6AXlwlYYkWDTPKXQCRkzRGUljDseqP0FA4O4yeVqCxjDSJR51w2Cg3h8IayiDyXN0vQAnUOrCikcB5ycyn87SZ4WDV2yRnIOytrD4blPIvEeJF+4rl7PB0TK7OCZKk9SUEIFRtfchbyyiX8Bo4bGTFAdJZHe6qkMSKWJlRUbtkrn/RptVE5EMjOBYdhwnkHcTTbHwACVLnTY/iXkN1j/GERA70KO0AZY/fzynlrTYozRQhNSIwpWqisclcqHWDZt3eevn+GEgGVgrhOibaQ9zqJNFpU2yYUV6iQJeSBkB4tc9EnKrtWicY4MX+VEcAugoiEibRg093ri/RfquBML4WS49VJJobPEdvUPg9agjKZ0oRgFwylINBnwdCAnmJe0tASXF/nQQ4mXHczxjeJ3dcvF9tunU8/lc940/b//8jX9kCWTjCAzmfh0EpBXePHnAbunWV8Q5iHtp/v/tr//ByvbBVafZ9Eq0AFzmDnvSQdAE0pBGXfcy53QxX8/uJYv5/In+GdixZ3fttr3Ppw4CxgwdhK0XbqGi4qqNFdv26jXa647jkbv46rO7MK49i93tLEWHXOUuHRM2sLbaHHPD12dwMCJClOlQvq+epNmSNl3lqnl4FQBr4t0uR0SLX2OzxAaPsQEO78l7K2S0PMvQUocgjMps9UsYd3YIZCthr6lPSuMUlUbUjWtzC8+QbBL02geKaJbGGFLFjm40auAr6F4ieA5NA8zRyJpKkpuanqiz50IOZEWfjmyraubFkerJdL6UIVeEDa2GodGKUiiIOL16g8YWxo4VJG783QmSzoT/zD3j6KMhQN6Z/I7a0DmJjTiIrP6s4bwx38brp44eHLaxQzW/fZGUAvGAcBARIUeUfAlwKagVtXMfXJxESXJVo5ADEekh2eJ5K+RBOtQhT5Upp06H6yiuH2hHpHSmxmeSeWVpJAiLeaW+osIE582+I5Ds5lXQi8SRLaJe7qiiGiV4Dxg37g/cDjzqlnvRnAugOugBETodzjvBdMO52/nyO21Tn0qKs/eRAstpgEykDtaR9pp+HATMyvW1Cfve+piNHoO9bLqbs/cMrrZ/Lg+94KmGkw5C7+o5WvnjSti1leYcrMSYlnsOrKNnn5nfQTjvwi1EEFZvrtgF37bW+uwq3fcQcxdfe3aSLEI0xE07U76mCBkd5xC1p9EVGgspWgUXGZZEVQM0pF4OBjQgjVgzhokXEbkskFtIMMDQSJp5Vv6K5LoORYki967ukjQBNjlRlzgTHBqfCirduXa/ymD0i4TxGgJN/nk6NYx8FenF4fmXRNlPGgF5GxxGagUKeC0qDaY3qnvDnPC73v0vKWt0dIY9EjzfzkXvRh+seCoHeivtuC/wIaLsj9PnaA8ctYTzkankwClhEJMqD0//TE9prJI91qSQdOfleLBdoZpIXoX3QUj4CHlpOXAMeGbFvFUHRdobPzgjzoH3IaDB9HuJKFvev9YYSkjpf5CroOcHBEFzm7MCnEM4Dp2OTR6ckXohHFMn9GF8UxMzrlsgcierAZxIC6cCeX3m/cNRIb8G+holRfI8h3gEkXrA74RWeTVHtHMmKSvHFuGB1IR8NdIX5Gr42mH6As++WhSKwYHB0ZEDjTnSz73Sg+8N0jwt3SNpJjnbccUdtu7U85ZcxeCQxqI3BjS2Ga6ssqn6OBXncPTjIEAE6Qcn9tp13da8SomLHtARPviQFe39o6dTXfGFPE46CPPPvlKEi+QgzHOK4EDFr77VEIPZt3xCOwiXXLueW1q0WsbGnZDcMikBRMUwuGgsQ2PmG2/A6YiUmdfPrIuoW2clgG+yWDgJehuwc3zHc7n4DBX3sHkyBeFTimoCijo5K9x/DN5CbaKhdEUGHobRw/cBvUOMJiDtMFYYE7sOoiUwmgpVRRoMWHhmEiz6TJkhUyIqR8TPm5AZxqbuolLkXsDQ+b0KgTEbHq0k58TvCT+jdna4LEiZeXUJ5NDl8TFg+0NZXMwXhJtQKSInziFyikvJuYHxUWMqTUxE7hgseQMuWY3oFgMIIqr4DoqYMQJxCxxG8rnnH6EjEM2oostj6C+Ar+J6ATRvbpTxJwyl/LleBb14FmzfnRBGtQZxr5gXlg5GvAiFQidTRvUC9TKwJqjvEMRUObYij8a3xXMIJzIZTzxzL90KNEVOgJ+b96LJgBOrlE6WSCoeAYW+sB64tvV5jIt9Iwp5/T5DWgH7mNUo5CdIfFikUJE20YthsQgC0J5L1l1l69ZutrXDZ9hHv/gHNjEzNu8uDinzC87cbqevOpv3eMbq9fbyc26wv/inP7RPPfFxOuT9OAhntxv24xP7bGMfZZWsOCoWrRs8lnbLcux22Xs83cnZe0dOtW8W55e4PV5Ow0kHYZEz3a+vcAwQqEWO+Lh+7IR2ECC1HNEQqxW8fIVRl0PHYXHicySqgTWUbtvcPIP0FdoBikS1uWOD5AsFg+s9CfB9RKNSsnMin+f72bwnKil8gXG7pgCRuu9NT0oBKpyOMIjR2Efwtp51iCkFOhLRIQwQ7gvKfcgBq6GPUhoUDypK5Y4VDf5z3AS+Q5g9QVsIgKsfRRMpGKUIQlQHY4BzACNNjf7M4g/1yETq2+83Gh7ReXFjxGjbkRr0AGD1AsmXMMLoaKjKAykUKuINBEV8D0XvYTyJ4jtELqJgSm4MhCHy6Ww97U2sZPxByJSxrGN+kF4JJ8eNMiPoWToZ1CnwvH/k8pU+UumUSirdyZGnIwInLuriSfqt985M5jIrwpUpakDaqyUlTjyDIAcSpcikYnjGltY9yxCdOxKoFVUhiXb4lZmicr4CnAPOQfAPnPDqaRqmmhwpSiSzo7lT3ElmIw1H4bYb7rVzNiyu3TP6LLzqyjfZ5tPPt3NOO99+7s++3w5N72NFDFrnBr4mtydnl2y40k4dOdNAZrx+250GRcXf+vgD9vzY05zZfhyEa+qT9rbpMRt15yjZacsVK556Gup4+WA6hw9bZ3ws85DMOi+/zgZuu9PyQ0OYPGsdPGCNP/o9yx3Y17NhT3fN3lNdY1+sztWWP547+0kH4XjO9rfutU5oB+Giq9cxpJeB104bJXr8l/dP4ObNFsypRy8JZe1qs8UhYHRY8pUIKCmXDMgYGylL8rgj+6YfRMAMwS8pLXNYPzgPIbSEJheU1U6cGUXXIjmqEiNJezgRL4klvUqBpELXymdqwCNQOR5pTl5pE42ZqRhOjuSYE+cmlPwYZcpwsHOgeym0b66NgDmozzQZIWOMdK6wlaNRFRwNt5ChRiYxIjeKGXXDYL8jh42qg/ie2lmL9BhCS5inkKzm8NFmGYqYRVUVsBeFH1BjxKNlC+bg4OH5NyUiBGEhqB2Gf0Tj6220Jajklb8O70cagzl6IiMdppgwnqRBEdAejx7xOfISGjLsQgjU5RPz2ahh7trWaur5YT1hyuC0KbJPS2BxS0z7E7nJGTsmxsCBBHnvjqFVVepgyKeVMzFxsJ5IdgvJkIMQnSypXZBBxzDHURYcbWLp4JWLNjhcscaMdBj0GTlvmH8hT+4YuVgkxnjr9ffYOesXV8UA3fnvvvnHOMDtm66lsUf1wuGp/XbfFd9pxUIorXXtyT1fs//xxT+yertu5552gf3IXb9gf/Dgr9kXnnow0Uvox0G4e+qQvak5xYZM2aO4aYsNfscbrXDm2Vbc/jKr/cEHbOpDf2Bd745Hh+jm223tzzxghdPOIKO0/sjDNvbOt1luz+6eczW6Zu+trLLPDoy8oFbjRHYQirmGlUv1nkDkBZ2skxdfcAYW5SBsqtgFr15r+eNcwJOLFANGj2gwKhOizFGbK+rmxbQfQh8Gr8cj5bCj5ktktfummyX7JeI40cUxo7go5CArogSVvYI627HZDn6nDRt5aWy+talGRlcgojmlAUhCy4g+wSCHnkFUKvSQ2EguhC1I8/H0iShPHJ0ns4ISgiQgoazvOYRMVUEZH3EjMh35WHzaoTGFw0SCHmF8tdgePzAj6WInvcnZMIrlYPxMjTiUH5Gnyh9VNhhBZ3Q8DNW/WI2B1jLSRUMiV8UMnQD6CXmJCdEZ8CMIjuKzAVEBgpKpUnE0B06ixLPkqAUKAK0BGvckolZ0D4cJjoeqBvTwib142Sa7Y1LUSNelzgBKI70LYmhLKJ2j9YNUT226oVQRqwqC9ymSJCSRNY94Tl4NU1elRbshyRCcL6pqKgMFIkmx9jVHMObql9BTTwxQxbrWmFYr7+QZOUcDnx1ZXdH7AceFSIk6QxL9SdIaUXut8laoiCA1spRujmuHTref+fZft7/84p/Y6679HvvG3n9liuEDn/xlKxfRyjq12s12w2Za03bmqo32XTt/xCamD9t//rv/q6eqoR8H4RXTY/aWxqQNzpNiyI2M2qp3/nvLb9xsY+/+YWvv70UGOkgR3fsqW/PO/2Ct3c/agXf+gJWe3ZXBKbU44SC8p7LKPnfSQUgh0lnmh1VTuRnL5VNlWjph4IwVMmneJRhuBYl4N18i2P8S5mY5H6WDsOs5279nbw+iVq5UbMv5W1nFUDltwNZcu+6IPSeWM4aFvpvbvmNDN1FGZK27jA6h8miF7HX6iHSqQ2XJ0HpUFmQUbrxuNGnkQigDBrWUtwEQ2bzcjF9mFKzrqJlGiq/OuIOAqFhCPhp+EMIwLpDtwuiTwe8lZIg8B4fkZqFKAGx/5ued+0DYvwAuhU7K0jkYimbHo2kV/DO9wYi72UO6w3foeHTVqyDUAqUToXvANSPfn63aYIVGIc8yTXaMdGcGZY9ACODMTIFw6ecJIaHIwLOXAkpEQyvA5Z2hiuc1enK4cL/OQUCBAxCVMngHcHyKeRonCCWBnMdZSODg0DFQ9ExD5rlwplX8nOKdpNfAz+EAce0kTpM2EfYXYFStBlVSY1Q+H2eMEkf8O+SqhcpogdGRcOIsHSUvj4QjgV+ouiWTnsL5nQjqy4xogqJ4EDqRlkk5H6FnQK0Nd0qizgZ8FlQZsDw1Q3TV+D0l4mWxCU3GW31HVUysFzhwdA7hxKAc1ZtVEdFJSF0uT+2oFL672GZNIBnetf11dumGK+1Dn/pte9c9D9gjz3ze/uxzv2uHpw/Mef/xzl109uX2HTv+d3v4qU/Z//zyn9tUfaLnc/04CNsb0/Yj0wdt7WwbUh2w4fu/3yo7b7HDP/bD1t71tDaAWUenWLTO5nPNJsatSORgbgJ7HJUMA2vskcrgsdgTF33OExlBSG9CbkEcdBCsaaVSXX1qFnmQa9UqWasL3sdJB2GR07a4j3U7tue5p+3Anud6KqUq1apt3HqRlSsD1lh1rj1x4ZutlVtcv4XFXfjon8ptv34DpZZ9b2SUyI3Vo1SlHQLe1gm5kUbkn1H0izIvdN/jJh3YtBtitH8GMz3eeXyCsr6ZSCo9vxwHwLpCB2RoohEUNRCoiSCIPoiDgvExRpH/yKWIqkrH1WEkkYdG5ImDuXUaITH/RdRUfp+5cesa2jYjyodhT182J+55OgNM9tg0kHdnDwGDpLHEhXgNN1aYZ6Qqoo8B41CW0kmLgZCzOz4iMAqt4dOgoiW4DpytpGcCDCsha1ciZGbD9Rrg8CCix6wiOg51QrLyB4tJmWm6IacdNiWe5G4KEAi2RhaRMcr9gq8QziaJfC6uFA5a8memu2JSReloj9aW81skl6k15+JESDHg+YGsivM1aupwyeoMPDPP6wdBEoa5WEHk7zoZnipDioIVGong1KyXJZQ+HeUgX8HFtZjCcN4AyxfJPdAaTBAsf4d6F4vQIVbvZJUcPR3F0lmXfSYHotO1G6660zaetTglxWqhanAUaq1pGyoP20yrlrR5nm8rKOVKVi0P2nRzat7Sx34chDWdlv3U+F47Fw0yMkf5iqts9Od/ybr791lr19PW/PLDNv3/fASe49F3qVmf+FonZ+8bPcP2Hu+aryWP9Fh+4chKike7ciHXsFKhLuTvKIecg7K1uivUevFoF3yJ/R772F46CM/OchAG3EGoWn3VNvvKBd9t7eOcY8i9bOdGQgaMFJ30pW58zLDzz4ieIvqTodPPITaEpknhYMCYYdMGJC2SIz+tR+7NcHDBMMoy4Ol1xDqPmvfQLBA3II6UeBeQvkrSZIQjQtWnZbCz302G4jXubpAyhEbaKOS9S3kbXVt1drk2dzTRadTBr0DOPgVtQ0QIY4MjBIOM+UtyznWRIWWovP20X5rzS+6H6/F7RKk8t/Ld7KeAa+aB4ni6ZaLBeZSjI2eKzytUxtxByEY6uAdWBngXzShtxfcwhyA+YvwkRYa8NbgAXgUBDYxIC6lSQY6EHB1n9buglWy9HL00hRKpCDkdCXok/qOQpWgZ7ciBOCZ6bkQCKnBopDfBVtCJU5GiOMEn0SqWemY4MeIriFQa65vLs1eXS30uuEDTccrp0j2rtbTmJvgNQWgkmdabgmX3O4kgpRK1Si8pPSfHA+RcX69dOQjrTuunzHH5u+xiHYTp6em0ZNa69saJA3Zve8biNji3pbLlQD6MW2s0rTs91QOpLmbEwBz+R75qHxo+xZpJOdRivvmt9pnlOQiYjcU4CSedg2O/bk5oB+HCq9dFuT6haOTGQfxKBXW0sbJ8zNv8ytinhhatmafGGzQuYYzAJcD7G4p5SgGkZEbWsnvXRcHLbjiYewX8Dlg36v3d8HmTqEALAolQLlohH6PuGF7W6DtSSVVDr5VPygERVYN8h3JMj/QjJ405QYXD+KGZJL+uqFxEuGxzJ0atbiTxu6h3T5ygKJnsaYTmEbKnSObAloGwQoFxWDyBcKCoOhi6CplnJiMVXxSMnzpL6YKX4c6TeBpk0zQXL72AUMaMSJ5QvOthZJt5pdwPoCxy1vB8WbEC8SHKJEt/ISoEEheURFiOMHE4IgWEn4pvoSVHrQyc0583UkDkuyZIUQpJi8ugCgtyLvCZaEOdpAwyqom+XkLNMsSWWOpIRASIg2ARBzlc9TFV9Ix5jHUfQl+BDOk5yAHFDbHFeNIC3cWY/OS45k3X3WUb+mj3vBLb2lIcBG4J/kJd2KjZ26YO2vrZlQzLHBSe7HOdnP3fI6faU8egxHGxKYPsvS7zlpbx9eU7CAomWlbIBYozK3VAhdeCtbvHmRm3jFl5MX71hHYQrrztnC6keulRIj/e7NjMZIs9EaKqIXUG1Bp3blZQBCtEPmChB9Qa7G5EWiz3i7pxJ+JJhwDRnLcRzpy5UADZLAxGKosLQx5leRSaoVUOlnrG+FHFJ5yYXvRB0ZqLMvEtkUOEkkvet6stxkagHDfaFoc0rmbAFQnocKAbIjZ6ysS7SqG8b28FPCvaSSBmr95IRj5rcgO1YdkiHSfdC5wydQD0VIjsq/L42JiZohAQnlE14JyScOrpCz13GEnpWMQRDgZsFQwVIH1+ziN5nAP3ABlnIjrxHJx7gp/DkRkarnBd4VnISHrqxLtFxkOSfkGKQPS86EE89bkhggGuhwsZ9SIkKGPslffGOpuZBpdEKE7qPMHRU+phrvKmIn06qk7C5Nw7wRL3B5KpUIcYmNYh1glIkfEeaP0Ym09x7FQF4+rKIF6uIZKcT3Nx8467bdNZ2/oQSlr+Vtmvg1Cyrt01NWavb4Kstsrw5QAAIABJREFUuPxxxBkmumYfKQ3b3wytstYxyIO/FB2ElXs6J8/U7wyc0A7C9a88jwEm6/9JBFS0RpIi8u3zRAHKy2ePaAXs3AT/JRTwkty0l/zRSDjsHw4AjB2+AudELZp1AqoJOmGL1RI1KAGpdDBK9xDtwQgzAiXxbS6HhuWGHskqNy1jhT9BEoNjELX5MnYuB4xzkaWulAudEYfLWYXgkV7cI6L7MIYxO3G/KBvEfScCUO4w8PNeDZKt/4/IXdEmRiAjUyzJcQrHKEJZchsoyywjDhIiy+nqrUw6x+fVr400AnL6IJFGxQf0LcAxUNWCT4BHh9HlE2OT85c+9yAKqosniFCqIICRjKZbeahk0pGR8QViw8eVM5ZNJimNFLagDY1EDlMuOH/k7zEP7pDCKcjaDI7HHQP8PTgXgT6haiOc1vRZ+Xe8RDQt4ZUDBMXIxgx0O9zpCxMfktwZJctABbhOwefJyI+TqwNSJ+7MG1hpWlzNMeM73H7jfbbp7BeXg4DhD3Y79pqpQ3ZHa8aG+hBNmr3ZTnTM/rZQtY+MrrV6aJP3uyMv8L2TDsIKT+jJ0y1qBk5oB+FC9GJghKjWxET6yfiX68+N1tvUJtBqEjBhs9YcqDe456RR7TBQZMQmBl3qTsTnsXHCMYh8APUAPFXApjrBOci0aQb8DyOM72F0NOrs+pey5xcKLEK0KDb9KOPEnpy2Dw6dAn+u7igFkY2ISiYiIu8ADpXPVcwZRJKQjkGnxqQ7pTs8IBDCqKVEN12LDagSkaqUR8F7BfriVRKIhFWR0RuasUQPETiI8k7ui3uF48Vn6rB6aDEQ4qaDImMN50yG1OF454zAqZnj+GQko4NrQLsWiEh0K4z0BpsTuRGU1yQp6min7QqVWa11PFvMC1tNJw6a7j17j5G/V4pMKYzsfeAqkpKOVJU/X++uKU6BMyq56LUsoY+AP0Pe2ZmJfCeoB5JJaYVNz5Jls4+ITnXSRTLlaySOQVTpuP4Cf97u2m0777UtGy606jkt+9Luh2z/RK8mwKJ2oD4/dM2WW+wH7/5ZvmcPP/ywSLL+jl9yySU2NjZm999/v4GDwPuftSbhJNw0PW53NSbtbDhFfaAJ0GPbZXn7eHnQ/n5g1GrHUF75pIPQ50I5+bVlzcAJ7SBsv2Fj7NO8yTAEhNljs8SGyLr23tpwbgp55xmARAcZZMrGai+GBHCa3w6jJi4CIW0YXEcUgoMQHIKEA+G7dUDY4hCEjO/8zyU+K2VA1ctHHBoiOlG5EdwFgvGZJk6zzxw8ApLtsuVBlFqWl4QIk1FwBhJXFN/OyOvKAGlMivJTZ8whapdiRk+AAXRqLKg0kfX+kyLl0Wh7KaacLjhrUVngsteZDTv25gylwZUJnRjostNwFPjZDEREDopLX/fOi9geTBskzk1qzIlMyHQkZZNZQ0qbjMoLTwfpWQlhiPJGtzxJl81werSGMl0nPR2VGlwhKngUSI+EZ6eeG5nW4YFWRSdTbxQl9CRFXJg+KxYkMc7nFjORnVmldNIXR+s75MhT1Qon7GLMREBS40qMytM1QLaYYjh7m3196mH73Bc/YzMztWVtRkv58iuuu8ceeNev9O0g4FpIXp7TnLGr6lN2aatuq6GlkrZrmzMc9XrN2ZSZjVvO/rlYtS9UB8k5OBZphewATjoIS1kdJz+7UjNwQjsIl924sSdbwHwryXaCiEmmCm0EKNZ53hdEMeZzueMLOUCEDcgeKoHcXjOEQRL6KFWbyuGGU4DzQ1kvcssU3oG6H9jdkL1FZOsdH0MpMIh6+AyiQzLBEZ3noJRX5LlQIz8zBW187/PLscqoBYES2QPdYhgDPXYYZyr1QUch2PhOcEQFA44oM+QZnXCGBkTsSTELaWDToRZEpaTfENcjmc0klARnquUpnngO0WkT0L8qTaQtgDQLngHVLZEmaXcSOWZJOTsClEFZRAr12nNKXiu1g+eEFsgYk8SL5E5Fg6nEgaFv5DdGhn7vK6KeB0h/YGy9LZODTBnOYwIdJUQRrC0IB0lhkM+enJacVYcrrB6BcYcGRzo3EkVK0htQUvQSSClAOnGVnSI151KY1LiJLDgvJpQYgyiJ34tomHZ3TLQ+TGuLqFmmLXaKAAUJMUWcME7OXUbmOquWGWPJlkpiDDdcfaddc9lO+/BHPmyNRmOl9qRFnWfHtTvsXe/8sWU5CHEhrLTBTsdO7zTtVDSkYiJqLqRQ7HSsVijY/kLJ9hSKbMh0rB2DGONJB2FRy+Lkh1Z4Bk5oB2H7DZsoXZNG2owJVU/vrYZZ5JV5lyOvHq1+k/nyxkXQA0ho3v7LyO1Hnlw/TjUXYKTgYKCBERjsrHLwnRybO8rZKPDjEbeQxhzVCTFWlOYhUmy7cM30WNPqaMTksDbTAx75Ixce5XXRqjlgalwfB6I6RLGTh+uJzkJEuvo9yG2SACar3p0EOkYt2edIXczeeBKPzJGWdINS2oTn9ygyzhtGWoQ65y14DwUIS0GkChB70vfAYfJI20RvBpp+V07kWL3kkuWCXstPeWjHXMgNAZ8hnAd/algOoS7IygT/TNxLGLqke2byrEWkRLpI8skpZyQImKgMgV4GUR5fd+AeQLsAjoxUI11cy5UJcX9wboC2oNNopAOAuHQ6WDc+MucJcB6T5yb1QnwuDiBc6d9VXom0GBQbw9nR74WASMQrdTRj/jAO6DBEa+zsObUGvWeDExnpSIAbMlSyZr1j113+Cnvdq97cUx+9wvvTgqcbGRmx8847b0UchOM15uVc56SDsJzZO/ndfmfghHYQ0KxJLXGVX6RCncOcMLwsISQpLdQBU8iU+vrFPDspqoZdcD5hUuTEWR6mjZbwfYa4Bick+hBkCusZSVP1rwcG9ql3DlcgCzyvQ8GUxoWxa6WEtLiPpBqDeW4x6vndjJYLolWIIUUOHyx1wsNet07Im7K96AWQajeEsYeBjM6QicIj5wGd/DzHnRElIVTeRgdFGLzeAvyE7Y/GTl6tkBgSRq+S9WWA7PciuF0Rd7RTZq4+CKOs1dd9s/qDFQlizic9BlzEh42sgKx4xUFWmRHfxzWC7xAvBR0QoC09JZZuJmnLXeMhwxdJ0gRFNH3KikYlVYxMLRBZQRln3ExwHVIfQabaoXqUpYaHQOeJ9+GAgp+DKomu3YDvhZAS/k4HACkXEHcT6kIKtIV4VmhfZMfFFJivS3JkfIICsaoOlq0EByfNejihVMRQoF9VypnrwV576e124TlX2Qd+//dT0KXfnWiJ39t5ww320z/5kycdhHnmbTbfYolTuwIfX5kyxxUYyMlTLHMGTmgHYfv1avfMJjaIxmlU0jpv6cUD4k8bFQWagMg52OjY3BB5Kocqsp8MrPLizGEjdRCBWSjaIR2B0jxvU5x98eAsAHaeG4FL5jhq6qMuX0YivYCaMCEK9bx40nnRuxryRqBNDhRATH78RAJFITWsFIvEilQaiXmKPgAYQ6oh0LtSsqgLDDJz315doPnUzLPPwEiFpE6gJNEOOJ1LGQtIRyfojSsyIp0QqRw5ALpXlDgysk04lCFzrPw+ToTnh+oBljdGJ0UIItF5CUlnlfEJ1u8lafJqFMIUlyLhN9Av0HfCcZFHJqcjSh1TnQEtGpyfrH9fgzGbsR6bNaWu6AgmhldrgRUWJUhou4Kj/z7IjJhXpGhCCZMIiJM6mZ5iikiNpFClwGfRRKttiSQFQTW6V4JfgQPnAxoCRwTrIlA3/E6ESaErapUubZCYC9wF0LbkmXv+pVwqUAwL1wSCsPHMC6x2xtm25rTTe/opLHNfOurXN6xZZbdetG1FHAT4Q4Pdtp3Sbtop7bZVkuLbow7juHygJ8+60BX9/RrPF21/oWhj+aLVvZfIcRlkz0VOOgjHf86PzRVPaAfhomvWUWpZUb9vkhFhuxGPaJ6ytVVt+gmZyueMZX9k9bsBCKa6l3xz46dVV1fEpFTNFQRVvpcq7kV1A3PvTSkFpkeQwdTUBge7AIbscxDTYJCw0SPvzpdbzk8I/ADdwKZNjfyIxJP7EV8AtfYJVyIZhaJ1RuHhj8zOwbgho8COVwsEl4Foh8v8Ak6mY+W9LGCYoEQpr43fSO/d0wYwHOpF4KkfR1tCdTHKE5OqCoobqbtl3A/LDxG5o801ewRItjh6VoTIED5HB8AjbzlO+LgqSDRtGkePA+FcD7XedmOcUQnE+cJoh7UPEaLUMXAnEKWNPgauO3zAJZKTcteM5De4LmppHbbYnSZwHLxXgqY1eCcuK+06B5gnNJvqqdpxxU8gOrh+8FzoQPuaT9QakV7y0ltVp6gcM2mG5R1Se8paXSIaawoplij53HnNXbbxjG1WOGerfWlswvZNTB6bXWqes163aYP96G03LctBgGOwqTVjV85M2/bWjK02s2GWwfa+0cftppZxIW0hXat3cjaRM9uTK9hny4P2pcqQjeULWV7vMq6y2K/CQYAy5RIaKiz21Cc/d1xn4IR2EC7bsT5RUNaGKiOawtNKMeBXaqxkbNiETYytkl0YJlorJ6WHXQjWCDpHG2JGfV6XT+fAqxGSRlHuoARRkTK2rtkvowAr63/O4jbxfN0uex8MjJQdCdCHYBBAbGtMtZJaeN2fqyFSVyEiz1RcSTC/Ugz4PlsYJ/X3Wj9koCPydVJiol0ABMKtE6PKYt6jdpNuvxuucgXOAdIpoQvgaY2AwT1/IOg8mxP36NwNWpD0EsPq85a0ag7nxR0JGP3oacDnbA6nQzeg1tQ9JTyHNOJnaZ9baM6uzyEltT2SUsQOQSdJNUt/ImXmcx15nwF18+yN3TjnoSfgv8Odq1BD85T9BsYPBwdOE/toEIDQsydiA0TGSYo9pRlcG0oVYfxZnQwZfaU2QnehJ73hTi1SMyHKNNvBpAPENSMvCvOjyiAfm6dvYo2nFRNCU0jUzefspmvvto1nwkE4z75w8LDtnuhtqNTvTobxXLb+bNt16LDtm0TNwNzjhs0b7F2vuPWoDkKtNn9lxUC3YzfWJljmuAHk2hXQQ+j3fo/F95BMrXW79qVcyT46sMqeKFeRNTxOR85a+ap1j7M2/3G6uZfWZbpdb9bU24uhXK3aJm/WVF91vj267a3WOs7PO3fJdesze1/UORN4Vw26Q+0yCNrcithUkTLIGOok7VCQJx3KeMmT9mZDDiz8f+y9B7gkV3E2/E5ON+1qg8KupFUOKyGhHEEZCQkQGAHGGFsyOdlEB7DJyB8YWyTbGBwwnwnmI9tgYaJBJv6gZKJy2F1tumnmTu7fb9Wp7tM9Pffuvdog4Pbz8Ii9M9N9+vTpU29VvfWWiiF5EQqW8Fn4XMLSeXIWnAKft7GQ2UCPlOPiBs6PTLCImx77FYxNlKUttKo0RsI61Hvgv5OGUybAlbfxpkRzIAzV65YupYr0Cq2Jj/E0SEIrqKSvCejwdBqSzqJS0S6WBAYsITQ9As4LgYnLcmiUwyWsdcxi4jQ947oY+qF1/YxAR/sm0KNP2FoX5UmXWtb+CTmpflBw5zfX0SiRCDQ5yWR7jpYyMHVB83Tt2VljqXKZkRlVXzSyJoFWV8iMTlvAtV7mrYStv8PnELWAZnje5klTWlpxwZRArEQwNMLa1IuNwOy+wsZfBZWWFuPvJszSDWLEJXVAkOxt9UKE1CZLCjwiiEIgVKwqadIia9FcRakTBUaRJLj/byFths2bNDJjnJdLzns8Djv4+EUDhGqxgHJeJXIbnQ6aXlOkcj6PVSM1vOHKx2FbvY53/ufXsCUlMvFwAALBwdX1nbi828TIrxgwSFovrqM7giz+uTaB2wrVkHfivzN7wuJJVDBTDPVE9sQ1ls+552eANmHLpvuwfeuW2B5eLBVxyGFHg10dO+W12L72bCCjHMG9cwTInHju+oCbaMQMj1cscKMVz1GMkQ3LsdwdWS/qSBgVL0haQDwhNRL+YcaX56Y6or/h2v/XdENWiXTOA9VwsjaA4m/JvGdOm5+LByifRZlwvS9u4LpR2jg0baG9F0jA88scBQBJmWUWQS+uXyAGwPElJJbhRffCKg2nA2HkTDUoalSoC0FDYI2L/M+sK6UhEN4FjTiNo5UbckPodXVe5Z6LORGkIlijV05D3Jhu63w62eVw3q3PgLn+iRVmY0zGSaW7p2AR5/l6j5KtkJVsx8ZFEYmVp5axS0fLHJpSSaCcBh4CMvg8ihTn0mdp6Rf5gjOW2h48qlQJ+QwuikEioWldGBdGlC9dpMsiHJl8BqPjRalwMO0NPv/6dEfWNntOGNAJp0W6VgbI0NNPzJWlwuSZe2vAcAOjTUxzJEsWJZpFoSuXEhMY6ta2vCdccyKFHaBRbwvH5uLzr8ThSwAIzzvvLJx3xOEy8ru3bcf/+dJXMN1sYaJSxksuOB/HrF2LFbWKPIsf3HMf3vqFLwmQ8I+lAgSWNF5Sn8ZvdmZ/5cGBzRef6R39DP5qbDUeSHh5+57QuHfMyfJVljYD3Ls2b96MrVu3xmxhqVTChg0bwP8Wi0WMjo0PiJEt7Yq7/qvMcWccKHF1CbP6JCp3DjM2Gi5Vwlp0OMa8Y9CrkTL5XLUk0prXkRmToWElM7KpUV/q3MON3eW0jWlOnkBBeALx8GzEJ+DfNfoh0QFGOKzRk9yblqCJsmPoyWlJIQlklqIwg233Z+FnY5THjIijBvB6TDFE3Egdo84F2fD0Bo2QqGfWnE4UupdTuXvjeYxoqRLFziK7CIwYX+mSSX0ABT4kL7bYa6BJ3kRPxsLUhebhjccgpjkkDarAlWMQOPKhsf0lLC8PK1E5oLkCNX5G7PTWCaMs1AdgqF/Jhna/CpBacyT9paRNXamiKVMm0w68D64jntdKYLVUwGEXIQKyCkAjNHKnbh45F6oESX0MrUAxoGbCX2rYrWGYISBv3lwEQa7txhK/ftRNNBRykjEoz4N9GdjVU0iLTgRLSJnuXFpV4ko+bT6dbsb5p18mJMXFphh++4xTcc4RG1ApFLDfyAi++pOf4Z++/T1ce9YZOO+ow7Gz3sCKWlW4O1/5yc/wrq/+F1oEn96xVIBwdKeJF9a34+Bf8chBcpul6uOXsyX808jKmOLjMkDYdYP06/jNXQUIY2Njex8gnHD2Ou3maF0OHdlPSrykNbCG1cVpE69QiX26CXttfOkJOt6AeFg0br56Lc/V7slmGXpsRiLra7kfjVwyhM8LS8dEyWc4zoMy+Fz6QF10EUiq5eNtocPVRk/TazHtyt54PtPo54WVghH1DrCOlAaSJFxtcvlemJnGOF9U+V8FG1EYWvLgTuAo9NLVHEUhaZdzjvEwhQOhnrUx6ePVGgqGSDqss8zUaSJYBYmAJUlzaC2gRTgKRZISozbZkkIgNyQkmZLIqE2hJPQuFQ5aTxnesgMJ9PBNE0BEpRwA4yXJB7GqFZVKNrDhQJ57NlFAIor82IaqhMqoosYAoJAQbWweCJF+BxKeVyA4wBt1gMLWuqUtIiVKHZQsNTdn0vxKruEah7mGUiKlLekSJ/ftojbKKQgkCiVKjqI6pmBG5plCWU7/wm9hrsBRr2+EXl73vFMuxbo1i+cgFHM5GcOKSgXPPfcs3L5pC9ZNjOOCY47ErQ9swt984yb84eMuwn07duL93/w2ttcHeQhLAQhs1PSM2R24qju3JGllsF+H5l92v63gHlcoIuh2XHe33X+JHQFwfXUVfl4oxSptdv+Vls/4qzIDj2iAcNL56wPLyUuHQHr0nQDT2+bQ6TL8qjXz9GZpqHWz0xw9PWTVSVDvkDfK/TCs3Xcd90xLXzZfiiGxtI715kIe043AvEbZ4Pua1zdyoxkME/vh+MwI+EkbFQBS79W6Dkp+m4YrIAjpSX27Ed7EiHirTLQbXNdJNTBRXlkVHXvirSvJTn9oMro8kXj89FxDwp7rXJggB0gvBme8/bK3SGZajTZ/ZuOzlItELHwtB0eGY9tju27sxXHn0GerYlJ20g5THj2mahi9cZUJBgRdu27+TkoDadwIdDxyp9yD65URVoaI+FEGRcpOS0pGK0koQiR5fNdhMqrO0OiLpalUj8DNLYFcL8BcozPANzCASsDKuRJeQjIXIM/QdeL0yjBlvTliq66tSEQruj9Gv8jDcMTIePhLxpjkfAiXg1QSB1CYXgkbXPW0+6RfveMqgWXtE6gaWNVUSlakuy84+3KsXwJA8NfAymoF1zz6ZDz+xOPw84e2CufgwalpnHzQgbhz+w7sHEIyXApAWNHv4o+nH8IRmcTD4D2NT3AS0K+7SgyCAV14CuhYQnzuY5A74ED0tm5D9/ab0d2yOZpokoLHJpBftx5Br4ve/fehPzujDkJtBCgW0J+c1O8nzs1/58YnUHnK09D8j39Db8sWuXbQWZw6ZQRj081TN8jgE/kyPlFbCYvHLEcQflVM+Z65j0c0QDj78YcHFhGw2n++X42ptkYMxNhaaZvu3BIp6Klsbdglz82d/zKYiI8ZLvFKw7AjWdp+H4I4T8HC5Ny7CSJi3rd1m6Qan/AD/d1b+QjFckE8d5M2tkdr3rga9/gmZhEDCu1I1YBnAfT6Wr6mwj0KjBRIuLy6VDOonoJoDXjZa7mUG6Z4wlTXMyGjQI1DjPwWNnyI1ASNDc/xcSztFvsyxNMAQU8tV9TLIlrUxoxXQx3nDIQpDgpVsbWz9eJwP7dIiIAW3zUPn7uYXTHksV4VpoUhGI2GkGNToCEiUuJlk2ugJxLxJ4meBK7iw6k4GlijjHMO8YoFV3HSbLTl/Gbz/ddZzhnjLESfSskn5atp0F1Vh/9bRgpUAltdf0s58TvCk8hmUKrkMLOjGXJBZDULEVT1P4hegn5GBIbtPn2lzfDZy7zkBBwQNLHMcSkAQbNGGTCS8KQTN+K3zjoN9+2cxL9+74cYq5Zx409+htddfgm++Yu78B8//im6LjXo3/dSAMLGdgO/39iB/eKvMzLlCkaf/2J077oTjc9+EplyGZWLL0P7B99F98EHdU6KReTW7I/8oRtQPOFRaH3z62jddquWE+VyKJ95LirP/j1k1+4P7NyB/vZtmP3rd6Hzi5+i9uSnInfQwZj5wPsQtFooX3wZ+psfRJu/z2ZRvfAS5E88GYULL0Xvpv9CplpD+/ab0fjoh+VzgpN+q6URBj5r1VH3FkkOnYMPBcbHtH8IkeCOHcg9cJ/Kk3vHTf0c3jW+Fk33niwDhPhULv8rPgOPaIDwqPM0giD5Z2FZ20btculQSVwL6cun7jtiZNgemL/z7tnC2Wxpy7NYZz3ZM533K+19nY5+sxERFS1kqzuGquNlM67G2PUS8AltlrPnuSiTLLl1dw2+wyLP23RENDNs5qHS2+v3BEyw94KE0+1waYhmnR6GASTvJsUwO8UeCUf7E+BAA7JS/RBTVnQaEiq040cY4vXModyTM0g0SrVxVdhTAiWjNh0ls5FQ51JBIWiR+VMDxdw50yB+SJvgSTQipAvnYPko55HeuXEU/SVtKRd9PnFLYPl8RnmszbP91jbKSA9AQYMsKWfApYOiawKqv9Poj+o4aJmtRHpyWdRcSSvH02CaRUCPpVMiFU+NXkRAikRTIbcig4nVFemWKSW5cjl9JuzhwZJPURANKwwU+xDYUMhISlg5R4k0B/k0tLcKHP03Q8Ej78ZSeEm+BS/AOZWIz//yA84/gxGEoxbNQTjnsA04Zv81WFWrCedg+0wdb7/xy3j6aY/GxnUH4jt33o1HH7IehWwO/3DTt/G5W/8nrOqw57UUgHBRYxrXtmdQTYB2AQgvfCl6mzah/tF/RiaXx8hLX4HsyCim3/ZGBJ0WKhc/DpXHXcne38gctA7ND/8D6p/6uNSjFo4+FqMv/gPMfujvUXvyNWh87lMoHH0cCsefiMk/fBkqVz0JhaOOxfS734lgroHSaWeg9uJXYPqPX4HuA/cht3Z/1H73eSxHwtznP4P+zAz6kzsR1GdROvMc1K59AeY+/s+oXH0N6h/6IFrf/e94iKhSw+h7/w6lk04TsmvQ7aH55S9i+o9ejmwvzt34YZDDu8ZWY6dDvcsAYRkSzDcDj2iAcMoFh8oOJvoFLmVg/1Yb7cLsniHwN1spRbScusj8xj0sOxfPw/C2CduYUZDyRnIQ2irSY6HnkBfhUhq0IB1nzDgq8hhEQ8BVMAgmcOWJPB81+zW9wJI4X4CJpMiepkhc/wBGHEq1gmz6Rpa0tsESviQhzzX1GYgrO9Khke8MHNmCECKl80BVBtkzqFYyKQZxsL5fwA/LHItZVMcIfvRZiHdNUmK7L42apELAqSNahYOR3iQ1wdRCmB5ilLcrz9q6P1oqRZ63s5M+4LGoi2lThOkdJwClFSQaNdFGVHr3EirPaUSHzz4ZlbA1QJIqSXx+pWXIiXFgiCWSYVmiA1kEPjSi/S6bXEWRBp5X5trhN+MFhMjWATv+h1wJAhbqQgiYdSWQ2vdDI+Cq7eHEfZw+gcNfYVqJ4223VH3RVCU5lRod0XlIGgqVdOZvXJt1D2YLEMxmcNmFV2Hd6sVzEP7gwsfgscccKW/nzsYcrv/Cl/CTrVtx3Nq1ePklF2D1SA2FvIo+/WLLVrzm05/DbCsebl8KQLisPolnd2ZRSUYQikXUnnUdsrUq6h/5sKQG8vsfgLE3vR1Tf/oqdO+8A8jnkT/gIIk09DZvwewH/xr9hnIjKldejfLFl6P+tzdg5JV/gqnX/D4KJ5+CyuVPwNRrX4nio09D+YqrMHPD2xHwnZ+dwcTb343WTd9A41//BbmJFRj/i/cimJlGn2zxbged79yEua9+CZlSCWOv/GMULr4CnZu+juk3vRZBMu2SyaC38SSsfMP1KB5+BFo//D52vvaVyD5w/0AE4ZZ+FjeMrcF2PnSPgLxsJpdnIG0GHtEA4dGPOSQI8/8mM0z1t5Q78cPzoSGMbQSu7MvIh36HCYDgAAAgAElEQVToTcRiqCbnGg25/HLSgxrwqLxxMCLAvK55oGEemCWEjhugHmRCntn4AjRgThdBDWBUQukbXyUrqgco4MA2dxf+VkRECeqoY6X7iZAzSQ5k1IQGQNI27h6IDUgc44l98p0RETWnr9/3Q91qaLV5Fo397FTT4ygoCU7mgl6xlFMY0NJRCT/Ae06RV2sdF6PSVgM6DvXFIkdGSLTSUlFJ9FoVa9tnJZAKp8BVW9gmyZy+VoZoWD7Wzc91pdTUDGWgI3VLme6epZoiwmVsiYZVHq4XQkQRc/Pjmn+xoZgDEzYuPi+NSij4GnbYcrYoiaTPHSlR7tr1xtD3xIkwGUkx5LToszIwpUspiqJwsARzjE4wonXuoy/FgasWH0E4Zu0aHDQxLrPwwOQkfv7QNnk2XFeHrdoPR61djWedfhrYLeK9X/sm/vuuewZEq5YCEE5v1fHCuUmMJysYMhlUHv9EVK54gkQE6h/5ENo3/xDjf/inaH/vv9H43KeRW7sWoy96OTITKxE065h+6xvQ37lT1kP5sReh8uSnIZieRveOn2LuM59C9drnagTiTa9Dbv8DMP7mt6Pz/e8gMzaGqevfiJHrno/s2Dhm3neD8B+qV1+D9m0/QufHt6N81rkoXXQZJv/sNQgacxh97otQfubvov3VG+V8Qas5sAyCTBbBiSejdOElaH7y48jde9cgEQXAd4Ic3j22BrMObS9HEJaBwXwz8IgGCCedH2/3zM3LIgnqCalMrHlMA4vdY/VrKJZdGVUFjof+VzdfO8zQiFF2IWPrbMfv+LXtgxPrShizFAciOc2kkNUIisdNhjnZ5cKeTwjb8CW3sHaULQnBAO9fhYfkl/Exu9w4N/dQ3c+Mf3i/GtrX6AS11pyMr2ujrS66qlPKvTsVQusFwdNZEyADMZKq8bMfTC+w4sP1WYiHsa0ihR6tqVG6vLc3VgNEyeepkRsFSNbHwCZBeysoYFIxH+NhaPdPafMs6plqOM3jF86D60nAvwvhtVIIexOwkkIIqK4KQtaaiwCo5HP8WVhFQFhSmOBESNTG9ZNgKidtg45A0xBAMOTPNm+6RjUao2tM+Qii/1BkG24dM/kWdj8WyeE5hJTYZvTAlDWtNNdFGqR6J4/zTr9sSVUMC23JhVwOv3f2GfjBvffj+/feN5Be4O+XAhAO6rXxqpltOCRJUqS+yPqDMfIHfyjPY/rtb0Zv8ybkV69Ff25OyILjf/g6dB+4H80vfh5jr34dml//spAOu7fdgn6zidqzryUTWDz/0rmPlbmt//3ford1CzKlMkae+yIUNj4K9X/+oPAXcitWyvd727YKH6R6+VWcVATtNoqnnoFgahIz7/krFE84EbWXvALtr34JpcufiMaHP4i5L3w+vZKCa42Ca930JtRcNl9CAX83thodh8qXAcJCq/HX+/NHNEA4mQDBj3q7sjJh+ztJ4nCBCxjglyOWfdIAy2aoLrAQyUwUyIhnSq7T8L908EuQ4awszAiBKiAkeQZNDXi5ZIrLcDiSZ2c7XhedsPp/CReLpr4L9dJzj3nS2jxImjBZCsGtVWny5Jo0UZHPj2xIZMGBJv5WPgvPS++Ynpo2rlIwEl3U7k+EqcLPEy+IkgK006JcLBJbklI+r4xSqsEkOqPAhvwEeQaujTCJpAzPG7kumROX6guJakSEURuNGnYCRJICtdNleDjZZhU50vLXgfQJ00J8Bgn2vkRE3PpgFNbIsf51GXpnhEbFolz/D6u4pGF2wJBzKGvMiUcRGIhmh3SvVOAiUR3OjchHa7rJMIUY+TC9NWSjco+wUCAvIN6wikCQOhecB6nASHIymJqQJl9sCDbI1+i2qPioICMJ9EhqfOxZj8OG9cctmoOwK1uupGdiCprxXy0FIJSDAC+Z2YIzgx4IxeNHBtmRmij/BbOzMe+bJEHyBLrbtvGBIL9+PQqHH43elk3o3n0n+o1GeKrsipXIVCro79iOoBl5+kwVoFyRNEIsX+VeiOx++yG3YgWy4yvQe2iLVDIwUsAoAwEGz5dZuVLF07ZvS40OLDSvHOUN5RX4XjFSVFwGCAvN2q/3549ogMBujtw4rYGQb3zUOOlmqqHfuDfuL3y+VH5g2yIHlNxl+N8km20pmJFgdzyrHogMhF6LOXYh0jFnHlYMuDB1gTLGFL6JKz+qBkFUC2+AgoZUx6ud9cQTjBo/ugZOOgJfBVF4DN2+kAH5c+14qR6uTojyB9SQqpH0Hdqoc6Hm4pO17zwFjYsYL+e5+/NAL77L1tMuHeLPn41V7ssROu1zKw/0e0gIEY+VI05mWQya89at/4DNF+c+9MTdnFC1kc+KvBF9plEVCImhLEsVfQDhIcSNg+kTaCmopTYSGwONO5+503/wP5X1IhW2Jv6kn2qmyBQ0uY5VhtkOEZSqFZSkqcUEXvxI10rYdlzWd7yyRU7lQLGNW7gvJBpSoMpxQHQYqh7J9SVzJzmo6C7knRDyZ15+Z6A5fp9OZlk6X/ZxEaWW9xBAWGhb3lWA0Gg0wigNn8c5c9N4TmsaYwkewkLXG/g8zCEu+pfz/2APnZeP+tYgh78cW4NJxz/YzSNfPt2v4AwMAwhUTzzssMNESbFQKGB0dHS3CCUtBrBmjj9TlRQZMbCD5C81OMq6Nq/MQEKowOcMrG50Ch7KYrTVmzWjZnLN9CSNgxAzwm5zNcOiefuo6YEx3BmRIKnMN8K6gVuoN2E8nKU2prlrMBjLx8dQjUcoMhuj3fiUqOZHDsQAuJSDgRftb6Bzpx6uU1N06nmct3wxL5EVM8QJmoYMxzT7k1oxAm/YxyBFxtc4DTSQVqFgIX4zXpwH6RbIpkbu2YZgxHLpHDM7Snq9CixsLoRHNp6Sz13nR0dk9UtapYmRy+vbtf0olRp2AzWOx+A8c5kzaXtNYEigkdJjwj3XiIgZ3zVMj4BgjtUAoSaG+5q0qHZdHaNmSdE5FGAwPWAWzkCDEXY1hUIug6XDrJMltUKsKkjO4kibtoZ4Fb2nqCSW86rRH/bdMNKvltQ+hlUMS2jWtH5iHEesWY0Hdk5KNUOj3cE37rgLtWIRq2s1lAt5lApsFAZMzs3hjm3bl1zFQIAQPmcAo/0+njW7DRcEbexN5fh9bTu2IYMPFsfw3crogDz3vh7b8vUXnoH5+G/JXy/GyC505cUAhIXOtSufL2bsmePP1HbPPFQ7PmJbqyfuhGLEaDtJYU+ZT0lxxhp3BDQXCg4NnSPrGZmOAwxJeoYDXNg83JyNEGh18eRCSDOmvISzTbHQryW3TYpGTMK6LvQcuXEZMT68r2R5nm7cPv/BEf88AplFAzSDYqFmBVZmzNW26KDlE2fMpHmVtYiWiLjTQZAIgoIQy2vLs3A6ASJJ5cCXzZkaaiUt2phMRtoWuZAcpc2wa8Us4XXfs1ZPPm0eLCpCD1nIkdQ28L1BF6GhAbdmWXZdI+hJFYHrcRC7hovISHWIIyxaRIfXVV6Da5fsSk3NCMs8k4gpOlWaGZNnLToGWadN4bpFStpHm3cRtFGnwFJV4doTA26lpvrc4rUkOmUG4pLphQhc6Tgc7zX2jgqfhHyYWIWH44Q4QSQ+BxEkc+vDTsC5OP+0xy0aIPDZP+XkE3HpsUdjptXGmtGa3MM3fn4Hfrb5ITzrrNPQC/rIZzWCxCqH13/+i5hptWJjX0wEwQcI/P/rem1cN7MNGzP9XwuQsDPI4HOFKv6tNoF2Eg3vyq69/J19PgPLAGHwEWSYYvD/bMQ4CTEnUgqyCZBsJF6S1XRHv+YE0zMUo+3lycNvWFQ+DNuGW2zUn8B5b7qx6ucSXjav0XmaIZnOG6OvUifRhgoNqBNrYymggINoc1b+gxoIX4wp8m61y144Fmf0I8PENs4KOGIchZDzoFUQmt/350kNnaj0pTQD0htXWWkFIvG0haRGjEzo+hjYQ6T3qq2PnfIQu0xSBlk6EQ4y77QaxZFI3ccSyRHE5ObfSwmEJYN+6MN1I+TXtRNmMp+u14jKIN0zcAuKIXdqWFCAi1Gm2OGIp1RxJOCUDp0WXQpD+lmMjJfQmOmg1dASTlmLBsQMnDk+gvJG9JlZtCFcF1HLDwfMvNF4wFgEkpyBj3F4XCTG2p8PpFqowdBjTwqSPXVtJA8CBZHnzpKDcDkOPfDYRXEQuNQuOOpIPPGkjagVC6gUitID4udbHsLXf/YLPPf8c9DqdFAuaLRv20wdr/3sv+9WgMAxrO+2cU19J04KOqjGqRv73BjsrgFwtW4NMvj3Qg3/WR2L9WDYXddYPs/emYFlgLALAEG+4iIHJhBjSmF+dpapBGoRmMFIpJw9lcH0ncHSEpFR987uSiJl93IowVdL1NCvhneVWR95fuwwyDw4IxujEyXMzXZC42/3xv+acpyeSUPeWlNB6265bZUG5obOcdL4KdksYsZzUbH+3aypiTQNCuSoGp/JTvuLkedlK+qWiAQNhtRDYySAJp4jV+PuyuISHAbeigAcJ/xjHnCSDBfjEjjDJ7bb6TaUBGzo3NCAG1nUJBP9dKs9V/HxJV+iMxwG6SVipN49oyC1sZLyOQw89vpoNXS+ja/gG2C5n44S+1ZQ5Ei6fUboS0BEs4/6dEuep09KteUvBZaimJjgr4Rg00BkXLxKXg1LD2QDlErKgbEIiQBN4YvEAaNdl+uWa8AHqZaKk99Q6MkBDJn/TAYXn3vFkkiKVxx/LJ588okYLZcwx3VFzkSvhzf9+434o8suwr07d+K4/Q9AKZ/Dd+6+F3/9jW9izlVk2HgfTgTBzsF0w2PnpnB2p4mD0EOFzz0FqO4dE7B7rsLV0QkyoELDLZk8vlIexU9KlbBqYfdcZfkse3sGlgHCLgIEI71xw5NcuouU0+upUIbYdUsUQ2sMdbfxqya/bpAUUZINPMFV8IcRksKETZ9zxjdKc3AM1udBQvHeBiqbKO15IYvqSBGVGrsbEiD47rqOcXayFZLq4gtBQ8NR2V/k0Ume2ELiUA2GJEs91aM2lBFaJDcnJBx2mQAPRI2Ncro8p46Zgj995wVT5jXQygFrqezOJTn6LpnxQLVWcloD0YyqnDD7F7RCoZ9YdEOiMVpqol0lkw0MFHBR6ZKRoljlAkdFdcoW5aa7Dpx513YVMF1XYaDpjchIa7TCdZF0ZXyUnJYBOR5LY7oVyk7z+szpcw3polK5ZEsDGDdCeiYEEFAg/UE4x94zYBTGRIl8Xga/Qp5NoZBBz0Vi0uYjusOUZg/C33GlsQPKie78LHtkTwkqMyZUGXWYen+SOvEEs3h/FxEgrFt8FcNzzjkDjznqSOnmuHV2FgTOXGf/74c34zdPPwXb67PIU5ckl8M3fnYHPn3LrXsEIMjtARjr97C+18bxrTnsxyoFAq2wBereNgVLvB55SAAauRzuLZRxS7GCnbk8WlI6vXz8ss/AMkAYChCcJ5VgHQtBkfl6qW/XBjKJkvOwFJCldMkJpqRtbAP0fmy5enp8kkOmyiIV+Zz8Mj+X8ryw2ZJT6XOelTRFYkG+NIDSygMS0vg/Hgw1G3hRshtz19pkKlbX6eZEgIZ4sk5YyGuvHNp5RjZcuZz4xQOMd/5WQ8PJfLV5uULSDALRAYh5zrQ9/QBz9Y7yPqT80gtBu6iOWkltDFWuFeXejQ3fbHQFBJlkthkc8XJ5a6EWg7O3kn5R/oOlGnxvXOv6IT0KRMmQaZpEzwiCRn5H2mZ7Ut3RnGnKgakPRpz8aIABBm2HzIqATqhCqHZTxZYqVZLp9NnFDi+1Y8BA16ADIvmc9pVgOWxfow66TvUs0kac4lNO94JzwbViAEOFkKxUNeKd8NmqNHnUcdPGZVoIBH+cbyP08nPl9CjHQsZhLaa9mzKwqgqPWZx76mVYt3rxQklPPHEjTlp3EMrFAu7Zth1rx0aFa/D/fngLJiplnLz+IBwwPi5zvGV6Bp+79XZs90oJOaTdEUHwn5e8Y3z7fsmtqQpxsq/G8vGrNAPLACEFIBxz2oHS7tk6NUZh6Agt6KYViR+pjfI9bfXuuMEL2z80xPodk2MWBUFGAFxnvZBQ5wxzdaQgHjaNhc9hCEfiyI8qfqM3YwbNCG8MK2tZpCf5G8av4/6hlT1aRYVVIEgVgGsqJNewSLM3ECvT9ElufnRDvOe8dqTUssJBcGV5eYbsWTUgs+ptnma0bZ7ikQA1uszd09gkpYplckyewSNH+obb7pemV4SPnPhPbFN3eXdLVVgqxfEww/EqAEvY70TpK8PpChQ0/85Ij0VkhOVP8SBGpNhwKasGXKbcDwi5ltrKkYjPF/9k5FUCRSE/+r+lGmOvj8ZUS3sdiPZFHBVzDoyzkVynJnTEd8WEnZJljiHJlzoPjqtjz94AqFTZOUEskctuqehVsaRaDdZdlV8695RLcdASAAKFkCRqINETBeGcmzb5DwRHOW1MpdMYoJNSmrq7AcKvkjFZvpdfvRlYBggpAOHYUw9wVpztnDW/bocx9WUTTSr4uo6K/C43VbfTSA5VxFfEOLkNyLccjjTI70u5Xo5pC/X66S1KKHamLWJKLioaZ9BrQF7Y9dqGmkZgUHtANBRcdYCzleF9mXHn75O/le+KCqB3XwlfwRpOceOncWcHQd+yG8iS+ctBQIJVAkTkOKcbIe2atTumgQOR7HUWXv3hqCzQ8vJS7hlWUmjonQBNWjNbRYj3vKXywQlKGfM/Zhudd0uDp3OSsPZOkIojoXEUsqDXQpnnsmfBAXBetAGiETRVYdD+F1aBhBUvJJH20KRCZBAIiBAw4cCgqTYKidENjREky//7lR4G6krlQmgE+XtGWAzE2dyRzKoVl1Q3NEEsx0EQoKthf/IwFHDEAQWfm5xXZModsHXzLs9NOApAqVpwxj8CinzeovvQVZ0QEXTi/boSUJ70nEdfskeUFHdle9+dAMGiB7kAqAR9J6KUCFnuyqD22nc00tjNAC1k0SPQ2mvXXr7QvpiBZYCQAhAYQbA/czMjSJAWz34e3zY8lzKQPgOe8ZUN2YXf+V+2I65Pt4WwZSc3o8zPKTQjZD9ewxccYlOjbh8telTiUJNNHxkqEgZ5XRN/o6EbnSgrkHANj6y00hVDaCc+zZMIyTDM98b2JrVSEjUYQjAzA2j3mpzKkLgnevxx42qMdfGYmbOORV9cp8heIARASV0kDLvMrSsJJDBIK7dTcKEVFzSyDJXrWC3crqUPlvbVNsuaEqEBFCPngAV/k9dOUaHKpLb9jgbG51NnB8VePywlDLkCBrKEC9ERfojfl8HOInyCANogiwTOBNOVHrBVzHBuTLZYf69A1tJe+tPBLZw8C3nxhUeaSFK4NBJ/KvPr1DQVA9j5HVhwZESJarg5tShKeD8kKXYZEVAgoiJj8bXAdV8md4S5bOn6GB+zNR0jAVJ0EM68HAcfcMyiqhh21+a6OwAC77Mc9LGu28bJrToO7rZRpnMQbw+yu4a8W8/DzuntDNAIgFtLVfxPsYptuTzSRZZ366WXT7YPZmAZIKQAhGNPPyhgKp9pgJAyQHnbcla4B2JksoNvMw0EOwnScBSFHOjIZ+4a9OimtzfFYCm5L0oHiClzp2SIWTovinEb3OBptP0SRLsFCfeWSE4shR64f3saXWUIW3P+SXKa5IMd2BB7IFZCUYPvscu9O4MkvAf7jmPhSzTBSJjdQMCNRVSkwkJKIhKAgTlshnUTvRLs2sLwD6Mjgw9NOBuUama5Xgo9SnQEOn1QG0F84AFuiZ6fqojN2bYy65OXcQ2eeA8sITSZYGtxHS8L1eiPXYfP3IykkFUZbi9re28ZM0Pd5DR4zzsEf85YU7VRn58bfCjtrF6+Gul4lUFYYeBSYMl7sufKSIFPFrRbtzWTo+JlinG3dSB8HOmhkWgoxWdKkSfyCwgQJELl54yyrsukWxMsQXWEyrCywYCeA3dLJSnujv314QIEPp2Dum1c2diJU/sdjFHmmimr3TG4vXQOe3qtIMAW5PDVfBlfrk2EjZj20jCWL7MXZmAZIKQAhBPOXh/tYG4zM/Y5CV6h12iCRUEf7bnIsx+bKEsVgdhYVj1YC2KncU8DKsp9zjPnvjlXb4sRpSHh33PM1XoRi4GNn5UMzS7yhYyQ+2g86MmpAVbbTrBCz9nyqmma+AQJZtiSBiLytB3rL2EyLUSvzYicboCf39bQg4SMw8oGf77Fk1VehC/yFDLynUEwkGahaZOh5r8LVLgUr94QiUuHOMDF8j8jKUaXNrKGSj37ZXn60LSygmBFog5JL9tFhxjup64Ex5EsaQ0NrFS19NHtaqlfZHgVPAioyZAjogqJsekJ6xG1vbamFqIcOXkJvb6LHjlSZZhekJ4P2jbcSKISBZGOkIRo1tgi4jNYSoLnFbDqmmb51svSINKZMiS9xF8i7brp5JqFIDoAtQQY8a+MnCWrQvS90Wegr19UEsp/XXzu45dU5rg79tPFAIRk6oVJw5OadTxjbhIHZwKkBCR3xxD36jn4eOYC4PuZPD5aW4lN+eJevf7yxX41Z4DAZPPmzdjKNuTe5pqUWh4bG9stUsuLmcXMieesZxdTOZIvOf8mvQNEVpa5Uq33j3LluvFra9qs8AYsTB0OwnERCAxIpPM/N6PMjZxM86RR1zHxtdQwOcPrpVpBvDtry0tPlPlb5t+5CyuLPGqUZAbbxu5u1OXvrVKAAj+RN2jGg981Q5Vs5mRzYBUHyVCxsemlBTPz0ylthIWlLxUAGuZPGlWmIwiKaNilo6PnMFsKRea8x9C2trm2Q0sY9e9qjFViWUCfS3Moq14bDXG8ct9iZKN22WKiPSDEeRAuQ1ErTtK8QZ0TghVthKVaFd7dhRUZev3o1sOElDwfm/OwlNYDbQIACDgYgXIplRiJkz0YRKtDx6nXieZH1RdZ5ZBXISymZrwyRFlvjnNAeWwhvSZalIdzJuDQa/1sDc9cV8kwOuAiPzKH1BBh5UdatYybKq6Ji87VXgyttQfiKzffip0zs4t5vx/Wdy848Xi84befKff+ox/9yMmNK1jauHEjpqamcN1112Fubi52HS7Tje0Grm0QHGhp4K/S0Q4CfBcFvH98NWaSOt6/JDe6q95ymk34JbnFX5phDgMI7MGwYcMG6cVAsLBPAMKpFx4aRAx1T+AloQ5ouWqZdYawpRGBPgML+Wp+1j2XkCjnGb5+RshtojlPQ+48Yd87CzcTCUUOWiCJSFRyaNYJNlxb33ApaBBZ6t4doBkovXTKgdIvIEUNUvpNOO0DGjc2kxJWufPSRYO/2xcwJEqHrkLAF8vR9IURN13mwhEKxbDRaIqYkwIfSTeQ1Od+o8bLujK6tIczmPyMqoLdVtcZf5cjdwBPJIeZB2fOPkXNkvNXLucdIImAgA/oOIfqWQ9+boabpY/CqEjZ/Y2tL2BSSKmJaIEvb+wqKKLn5CSpnVpkNO8amRHeZ97Ii1GEQUL7krJRUEsdB78xls2xcUkqI6ox4VsvRmBmploCBJRUOHhz1DxgakpBy+AeZHwHS2PEK090vnhuCkQxtcaulUL4dK+J3J9bHzw7pZYPP3gjPv6Vr+GBTZvn7b64u3fEyx/7GPzlG/5s0QBhVb+LF04/hJNEkGoworK7x7kvzsfuE5/OV/Hp2opfOoGkXQUH4hukveD7YsJ/ha/5iAYIp128Qd5g3fSG83S5GUp4PiFUJIvI7bJWNseOgf4hZY5qu12TGm4ckTss7ZFZRult2H6ZYnSuaMNWcMDxeufxLiobriPg8f9bWD7e7tnlkrOaCxaSYsKTp7GrjRYlxaGh8UGVPCMN+pGH5HrmPknPkTX/1gLbviPvoLUrdhoI/jjMU6VAUYi/LHPgDCaxVm28JOdhxKDfBaZ3NiX0LpwGfo8hbq+tswIAnshVnVAy2Ru4VFM4kCDAxpUNDkZ6dAUkoyx2Kgmhd5Spr6gyvj50ThlNMXnkQcMsKReG+oUTE/9cxsgokrQRd+2dCyTCRt9jhEDajDs56Cp5FTyfa9fNsbXrkeqm3C/TWNYG3EUIBLC40wpYbLn7ct0XYxEyd5uMLnHME6urQhKlPoJ/9DsBGrPkymtprH+wWdPVVzwDk5OTe32LXLVqFU4++eRFAQSO/nGNSTy7XUdpGDiQdz9e+RO7OTNKw3JZ882E8ULmaWO9uybywT5w/eha3JdXDta+OQbVPucbhy7JxYC2UF9239zer8FV2atl8+ZN2JZIMTBycOiGw1EulZAtVVCeOGCAd7WnpydzxqWHhatFN1FLA6ihGTj6bMNMLXmvXXLiS2KM51m3NAZZggKGWr3QfmhQ3GasUsoOWfiGyxEQ+ZmW2w0O048ucOP1gQHZ8TQMWiqov+V5yLjnYUCF1RjaNMkR61iSxi6H7nJiYEQ8yr12NLAEGpZOSEkrWLWHerhUmkx5xAw7M23A3gQiUJQCSlhxUsmjMpoHSXXJQ3gO/SD0iFM9AQcOBCQkekIoByITaQkwKsPKFe9CEilxnrQ8bpbzsbTQGWaReG60NeLkNnuNoChJzyoMkhUICgZUZEiiLENyGZxLRkpIiEzaAz7jHDsWVvJozbn+DImNkVUtMlYC1yHPis831CVIzaeo+JFoDKSk2IxXwIXG6M7IhElLu5Nx3sNojU6un3IiQLjmib+9p/eB1POzvezhhx++KIBQC/p49dRmnDAstcAI1mMuRH/7drRvu1kbpfjvdj6P4mlnUlQFrf/v+/Fx0finvez2LZ77rHORO+hg1P/1X5wd3HPFiZRb/r+FKj5fm0AE3ffeo+pnCuhniggSgHnvjWD5SrtlBvoBtmy6F9u3bIo5qAQIhxxxLArlClojG3DH4U9DN7t3+6NmTr+EAEFDwXOykfadgfS4i1TLE9a7y+07Bj4NmNgFx+Sn0ZMQLrX7A5ZxqbwxNejVC9ZqAitX4+ZfrRXDjodyvkTawFHN+l4AACAASURBVIwFjZVFAZJELxG3ITkw9O5t7FFOW3LwRZIbmf810oU+Xs29B5idbIpBlBLARHhZyIVh2sKR3pKrw6EQ8eBdXjstxcGvsc6f+W9eLwoLRPoHOjBtG91mKJo3Z30mpOxRLy6dAIs5kW2WXDurF+jVSsmmnwZyIMMjAw568hoCDwmgSWzmRIpY0ilzkTCq6t0D5UoR/R6VEbthwy0Zq5sveaZSV558TrqWStW88Fp4b1LFwuv5EsXWu4EnFKVNd62e6/hZUa6FRkyAgCmXdl+AgoAR1wzLj2VIqshV2mgaQ7ksAwl0F+3REs1BoSZLQRFIyueevyb371o7c461x8XgYeJbrVYPF559Ba55wjNx5z/8HXbs3LEo3+/hbl6Hnn4WLn3ZyxcFEA7rtvCK2W04cEBHI4Ps2AQy1SpG/+A16N52M+a+9EUErSb6kzvF4SidcTZyBx+C4hnnkLWJ1rdvQu++u9D+wfeQqVQx8vyXovOT29G88QsI2i2quyFTKCKoKy8jt/8BGHvj25Et5NG98w4KkKD+T+9H9+c/W/RU9Ko1OT9fF+lF0+ogN8fuC9HBZ3tTkMN7xteimcY+XfRVF/ODDLrZKgK/Ecpifr783UfMDHCfeOhBAoQH4gChXMHBRxyHYqmM1vhRuP2Ya9HN7l1ibGbjWesC6/RnpYe2iRnrnSFxPxUVhrybXfHC+T81Vt7LIxYVohAoGvlOxzw02a4TnmALV/aXfGJhqaIT+bFwr3qcJCZq7lbyvb2+Iyg6qyFfsRx1aJnE8Gj/Ay21pNEQUR9H1DMDWSFwEfEbZfYrNyEOOOLjHTR29JDFw/Z/5v1IKhOkOoDaBnEyoI2Pcyj8BJYsep0G/WvTCbM0xYC8fZgm0Nbd2ofBL78LzXYYCRHj6DgSOlHOq/XIixJKd1wCfkFFmFQl0UpLTFBJGPo24DQvnBGlXAblWkHy88m0J69Tn2rJPCbVEe20KhSlZbeM/IT6Gu4L/JyNu7R6ZrCsU4flNCMKBInGAYk/Zb+yQvgViTC4zol6rSr/7BQ95eVy3JuwrbqmvozXwXnks+b/jAx84blX4mlX/Sa++tLn44jpnRjdiznhVY9/Ak78879aFEA4pzmD57emMZKsAsrnUaJ3f/ChKD/j2eh89yYEkzuRP2QDpt74WiJhjL3+evR3bEP3p/8jm0nx9LORKRYx+SevRNBqoXTSo1F74ctQ/+Dfov3976D65GvkfDPvfBsytRGMPPfFyK5YgfqHPijnrT79WZj8wz9Ab+sWZMpVZMwxsDXB97LVRNDRyKEd/UIR1de8DuVHPRoo5IFOF81bfojG9W9ANvHdW5HDDaOrsX0ve3Zcq53cSOhcJffO5X//8szArgGEo3HbMdeil9276azM0aak6OrP1Sjr5LJZkHabU19Tw8kMpUZqdlR/E7EiL60oXjO9JzkPa97ZhKgV5o61jHJ+AoyR/vzHrOFmNZhtr3WzbO1u0CIZTd/ZDTGZbZOweSEnRD67n9B2qYsnUQZyBfhPAwj+ONQmOAEeER/yoy0aHpeIh2snLVEA5wUbH8LIdjbXaiS00ZS1mCZwkR4EnhEyDoEZaFI5k0Q4c3zFWU5JT/C+dIzqTGuh3qAhpNEWDzjlHPy29V7gGhEhpZRQp0aNKF9MkKWNqqKclq4rLQ0MhHxYHStqPw22h3aiQxTdElVMVpWwvwJllF0ZJA2/RI58aW2mX8ps/JVT4iLBQaMdKj9qYMQIilGOdYCf4qIpApCHpDmsodl8DQYYQZPyS9d5dGCyXemrlf36HJ4Lz7kST3vCb+LLL30+ntCcwUE0WLtyUGp59RoxsPMevR66W7YwDDO4Bi67ErU3vV0Aws033+zaVM9fxXBpYxK/05lFJe2idAomVmDi+r/C7Afeh0y3i8rVT8X0O69H0JzD6HNeiNb3v4vWf38TmVIJK/7yb9D61tfR+NiHEbB0lr8fG6fXgfzhR2D0Va9F/YPvQ/MbX0Pp/MeieOKjETTqKJ55LjK1GuY+9XE0PvUJZEdqGHnm7yB38IZY/j1ot9H8wufQ/M5NsVQHm0jlf+M3MfHilyO7YiV6O7Zj5zvejP6/fQaZRErkrn4Wfz62Gltye3fjXgYIu/ISJPa00JIt/reL+4VzTHfxR49ogEChJN/Axe9Jy9OokS8GwQvzGllMvOASGyUVHe8gRc2OLZP7FJAhoSv6XEGCAhBLX9AjiwkmOWvStfpyNgySfg594QKIt5sha11721s0Qo1yP1S9yxfiBD27n3ajI3wE5ocLrtGTD06khDDUNlDAkwzNZzJs+KM6A1aZkFwbDJWrRgH7DAy60QKasoxq5qXcbhhhVPgOJCI6wxi7jjM0lk9Pq+0XASav2sQ83oHU7hBPlYu517HGTBGwkIoPdoA0QCnh9RQylOhjaEogNe9PEFBiWWc+FHFKzqXyQpiiMUGj+HwaP4agRZUl2yqH7R0G4AiUTD8hLh2t5xQP30W5fBKmgbjmHNUQVbiJByMPsfXj2l1Ha8bSFq4CR3gcUQtonkPHryD6ovMfj2uuXDxAyO23Giv+8WPA+MT821R9FjOvfilat/5oKEDgeG6//XY0Gg1NBZRKOO6447B9+/aBMsfz56bx3NYMaikExUwuj/JlV6D6pGsw+UcvQ/HEk1E861xM3/AOBDx3pQy0tTqpfM75qD3vJZj+s9eg8wuXIiDfJ19A8YyzUPvd56H9tf9E/V/+ScBDhg25+GowhfF7L0Dh+Edh56tegv7kDsnHEVhk8nFwJcC6Xke/GS/T5ET0cnkUn/J0jD79WZj+0N+h+9lPISvyrvHjduTwV6OrsW05grCL5nDvf41vZiEboELHz6XJ9+QoaJ/mOn20ueen9ZtPXPwRDRA2nnVQELX9jcKqMVKbCAxpqF3yxwWv+ZDbmy1MKl6ziSqlbBKWI9dQdHqZHOeP7HuRtk9hMhuJUPQXUkrRxIzbxjtPqY7u6SrM48sE2/OzPLPVuLOUzjZ6Ahsx6K4ZU6gl4dkhjoGkT7+M1AyA6T7QsBJgJUmEBCUECjReBgoGFrVrf0zsRBDncw7su8odyYVplTS7L8qGLD/1lQsTxpQGi+20mS4iJyIGFt1zVO6CtXSO5++FnCiaBKrsSJBRn2lJFEej76ySGARxBFVSvSERKUpAxwmnYkxdHwhVn3QtxhMYLOgqMOEzZIQojbQpWTE+Y2ec0zYR/k6lxsnBGATDEp1xzcc0fZACktyJJaCS6I5p60P7lGRwwVlX4ClXPH3REYTM6BgmXv1aZFaunHcvpGGeeddfoHvfPUMBQj6fx+zsLO6//36JJqxbt05qsjdt2jQAEI7sNPHy+jbsn8TA2SwqF1yCyrN/D7PveAv6k5OoPvUZFBrBzF+8VSMEnLuxcVQuvgylq69B4/3vQfNb3xDvPjs2hsoVT0LpwkuBQg71978X7e99O/wdX8bcmtWo/ebvInfYEZh605+g/9BDi2Tsx6eAErOZsXEEU1PIpIADfvu/+zm8e2It5vYBB2E5xbCwmc9l+hhnxFE6tjoVzz2YpqPjKnsLI6AkiTc6aJODN48ayCMaIFBJUYhcw/cxqWaQ1s3SVjn+5htRy6oJqFFQLHt5ZJer1lpvFaRRTyuqILBNXidWUxwcjwjXmOeXCcQY04ipmqFbHELW13OG3feS+7b7TnSd9IUlIMEFCFJrhfmZY/ezHM1lJMKTyTCcpgH3E7YPTjPqyhnISK5cZKi9KdXsTIAm8+UizKPcitj6YrWEqDJqJIXPRsSJ3DMkuY7PqTZREmMoehMEeQzZC29DCaOSKmKpnmuuxZ8bl8AiGlStlCoJb4wEea16R/gbEn5P6VQpmz0rRdxv0wAYSzGZemIqgdcYtscGFBRyKQR9PNFidZAWDMsL8VNAo4K3EOhJiD/iBnjcTe/ZRYTO8HfeOyHVJx5pUcSkBFgpWLLLycvkDo2yZaXENK0vQzQ+B2i7feFY+M/7sWdevjSAwEZWa/ZHZqGUBMmmW7eA4fbkkXEpBgIEeb/cAuM88P+nAYTRfh+vnt6M4xNVDOL5n3Y6ejt2oHfHL5A/biNyK1aic+fP0bvv3vDShaOPQ/7II9G5/TZ077krDP1nayPIH38Cgnod3bvvlIiDX9HAlET1iU9B0O6g+fWvoL9zx8MCBwubHqAbZPCxfAWfHlmxD/ozLHMQFnpGeYKDakF0Z3h03ZrJVWt7TN+hW5+VqHiuUnEl58DMXBdNIY2nEbD0vVqYpLiPOAiPOi+SWjZ7FiKtUNPe25Cl7TOJgUq+0v/6OXgVsjGGNg2XdXcMN07jC9Dgu1x48mFrKFtb72qDokHde3rXTCWI3XZ5df8Z2DkIIDgORhx8gGPDtrIybvjWoyDODdBUi1U/aF7eVWSYF8+NlqFi2Un1bhxsUT6Gi6rEPW9XzVAuSGhatBZISCSJLmactORQzxlVgSTnjP0MmOYYX1mWevqkl8z5aDfYGrqLppRPxlGhAChXlVKq5FQhMyl+JXLaSpq0PgJ+fl4iSVI66JpjWarfpVCkT4RwC3oCUCydJAZYWkDrXMuactyHWKrCDZnPNAnQOB+KMbUzaVbKP7XdcdohY5H0QDrXy3gyITEx5STSd4JaE64nWFrVCoGLBBXYrVRLbQbOZFwR1XqI1CeXChCy+63Cyg99AlgxfwQBs7OYfsUL0L715gUBgv/+DgMInPGr6jvxjE4dxYH9kH+YxxPhBYxlu2gdA3aBK5DQwoe6kO3YLZ8/FGTwtpFVuDtf2i3nW9xJ9g1AWMiZXNw9PLxvzzcW+uxj5SzKwknTo9dqybueLUSVcw9vBIO/1mtkkPW4P3T0phpddCTdOHgoQLgH27c8OLyKYeJo/Pjoa9FOISkWMsB+xSwecpV8/hVY7i2O+ZAbrTq7Mudzw8yecs/yAYIYMSvfSr7I7uasz4CUK7rvRPlXVbgzFUCGya0UkuPTkKsCiHAzt3yruwFpuSvVD9x09QqMGhAkkCXPVAeNSts8YbfZclPNSQljToy3hIETok4a5tYyR35HhXvShI80dcCQuVZwpD9Y7mGthjLjB/Z81x6Zd6CaBnEgpXuh5poZ/qK1szr62AOWcDfLArUoI0pX+LkMFRrSOVUJ4fJIATTyPAREOZa/5f0lBUNQI1Ua6h0nIxW8bQKXAksOQalslbVOja540YfU6XL8CD7fViMNnMjoZe3QSIrHnyBGKPjw1pcTX/IBgHV3ZCtoM/AWlQo3CmkApuvD5TfkOdv61EiTE2byIlUGDPlf5SC4KI49fLlHtYHasprvw+D6sV4cGhUxvZFBsMb1ccHZj8dTr3zGolMM2ZERyeFnxsbm3wPnmqj/8wfRe+D+ge8lIwj2Bc7NMIDA7xzY6+AFM1sHogi7ezPel+drAfh8poyPj+6H9h4MWQ+/x3SA4IKw0hRM9hcWaqTtT0uYPJ6rVsqKNxxywrzzpKYv3bK2cSUvKzbHCrgWiGTXilm03b5ddFHCOba3TzmK2QATtcGKqLTvtjsdAeWFhaJtS5gz+0mj1cNsa5CVJXMWBNix+V5s2uSVOQbUlKlgw5HHo1arYOygY7H1uOvw3Z0em4mpVQDHjubx9ifuj2d9/EFsp1aPS7FP5DN48lEj+OHmJn64Y5CEXM5mcO3GUUy3evjcHQ1MeTyt01cVcMb6CjInnrtuYNQSqnfzbup3qSkIx/I2QzRAvnMlej44GDbHorQ3rCeBebb5rITIfYMggMN5nuw6yDdidqqFdisyyGGo1xlk5oUlBZCIfKhxjbgRNBo0tsmKirB5haALSFtrSj+b0WclQqjA525YDLTk7tVbTZN5FqdZRHf0R0LnSMUmSvqUdM1gZNz9VkP/vIc0MqA9B+3OmEonlK+Eyovm/KVjpfCxWo+DSHpaV6tGRSJAJs/HRUoYOSiWFCT5YEzmQ7gV+netlBhcQVw35DKIaNUQ0RgbD+WNUzs5upQIr8FnPgzk8H0QsCc9SVw+yh+SgYR+oCWZDuD5X9Ful1rKODz1oDd60TnUQVg8SZGEvPxhR0gt/7wHFVQZsk8h6i0VIHDkpzTruG5uEmuojvkwNtZH4k+5j/4ok8N7R9dgcp/pEAwCBK7ZaimLvHB1AC6xJp00n1xO0E+5dnOOEhOse6XuGRahs5/z/CtqeTSafTRNSt79nk4cwYM0z3V/o2dLo0iAUqHuB62Zh4MZ+q+3A8y1eyjnsygXMmi0+2i7sRHkiCPqfrOimkOro+fjffb6GTT9MnLvXsbKGbnmQodGdo3MPnylRqYiIiTL9q+c8QUPRhF2zHbhdyYRwFXOgibnvnvuxgMPKEAQH4Ny7+UKDjniOJQrFZx00qNQPfMF+Msf1uVzbnOnrizi5APKmKjmcN05K/Gur2yTufv59ja+tqmJdeUsbnjC/vin703iM3dRHDw6JgoZXH5oFS+7YDW2TnfwmVun8YmfzaLRg4Cw5xw/ilMFIJyzLua6iPckDYRsE0u/dxEQEYOq9euxwwkP+SdOzqEix7jXJBu9t/CE1CZWKjq7pA34hjLvm89idEVJQrdJL585fJbHRd0Q00KbWTEWvIdhhEnlTfRRGytH4c+YQVAL3ayzjJMh8iGrxb1l1psgDXD5oXq9Li9kCFlj9WEnR+fFUgDIAJN62BqqH1i0C0R2bbHrgo+/BKkrYJ6XQp4t59XniqSchKWPPKST55Dz2QsokYFh6pzW3JKgL5meETVIJ45Fz5eBKZKHppsaLXORjyRR1FJWFsYc1ttDIgCUfGKljqvQiafcNELEcmDei0Rzhqg2Cr9FmolGk7FUgJBbtRorPvpZZBaqYpidxdQfPB/tH/1g4AktFSDwRAUEOH1uFs+am8KaOIVlwc30kfwFLtlbghz+cXQ/3L9PuzkOAgRRiHXpsiq97R4lHDS6SSVTrqpCPoOREj8LBChwyc5wTVJjhD1M3DsrEQKnT2NeOs+9spZHq9PHXJsM/eGbCr87VlaDbmBCwt18WwKgUsiiVMhgai7qQ0KQUMpnMN3qC2+HKYKZVj8EMwQIHG9dQumDImW2brgdjFV4/vllqFl2PddsiQ0oUnW1VEKjMYdSqaj9cTodFEslaUamQnVq86qVCuaaTZc27osUcrE4f5krp2o7eWUJj48gaLQE3HPPPXjQAQQ+J7ogpZIKJZXLFZx9xsk47oqX4oVf3IE2Hw2AdZUcDqzlxNO/8Kga3vWNHbjsmBF5ji//z61YX8niPU88AO/51g7ceF+8UqeWzeC0NUW87aq1+MQPp3HkqiLWrSjgnh0dvPEr23Dl0TWcf1hNIwjWIjm5SUtpngvFpnmyhjZZky6KgA5RJV9wIcUxNUgGeTn9oVlYl7810aL5NgoaH6oH+uIneh2WtXXduA3d6UI2EKHSuVFe3zr1iT/oFn1Y2uhyM3q9gugjcJ50s1flSX/DFyMdGsYh7r2r/ZfmQzqw1FsNIzmuzC7tSxq6y0i3zQXzu/OABL3vqJXzgODSsIfhDZ33o/0sopQLAQ3TFGEeX8CDonb/sKqQefOK7gVVwSgmE4eAV0ZpXO+LrBM8GvimRLc08jDUxRUwqs93WGRC7tn6Z6QMR9NDqnHBcJBFRJIgIk/vy+3uArAIltnNcakRhEoF1auuRmZkdF57SwGiuS9+Hv3t23YrQDCQcER7Do+fm8GJQQdV5Tn/Uh6MD27vA98qVHBjZQxbc4RA+/IYBAg0+ErVyqBWzmCuRSOue1W715fIQrGQQTGfkRI8GhJGEui12/5I8EBwwKVIj362GXn0BhD4W/KeueU0WrpOk0caQKDxV+Ci1657xt//Pb3j0QrBQIB6MxI1E4CguEWirAQKqV1yyT8gh2oBgGDXbMw1ZQsol8uo1xsol4sCQFiBVi4raFAHkqnPnoT86/U5VCpl7Ybb72OkVp3/PQuAHbMdIbbaIfdZ1vtkBGHrlgc0demI6owgECCMjVRx6FEn4CnXvQqvvXEHbp3Sih8elWwG77hkNe7d2cHf/3AKzzt1XEiZb/jmDhxSyeJ9Tz4Q7/jqNnzlwSbWFrJ42sZR/NvP67hjtovz9y/h9Y9bizd8YQtqxQwmmwEm233cMd3Bs44bw4VH1pA5iSTFmIeuVl71CPTBaz5YB2SVANKCmIpzZWkxIxs+jYOf95d6eW6gXv5dOArW9Mcz0rIBe/lebqSq8Dj8ENEjaTusQjTinaVzwCSkrzXtKcbYtdylkQ1Z/onLGn9B2hwLUXDwpTDPWbxSCiUlukXq2FR7XxA6SZEksHmVIfK5aytspaUcN89lJEnLrfNeeB2bNz6nkFewwN4VtnzW6tWhh3kkw77AZ8DKFRUzSlcoFCPpDKSG+hP5duUjhukX68HgX1PSDW5e+F+CUq3QiO5feCWMELgogvA7hEOha0TWb8q9cs5VOEvTBnId9tTwNTu4yt3a4T0YMEhLV9h7Iqkv0WxIzJ5LQ3C8jIIZZyc5x/z8MWdeviQOAlML5TPORoaSwfMcQaeN9nf/G/3ZwTbSDyeCYJfkrI/3eziqPYcTOk1s6LbEUGXnLfxaYPHupY+5VLqZDOaQwa35Mn5SLOOufBmtXYkp7/ExDicpEgAwXz81l9ZGHpio5NCSGv1AgIL//ltagR4+S4pnSST2eASWYiCwYDSC+5ilMEJH0/k8o+QreBEEMcIFTUXUW6oV4B/8PX0rTR8Ade/a/F6UYggE5HTINTN9HO9EvM5YJYNySo+atMfiA4TZel0iAqLb0yFAKGNurikcLb7/nU4XtWpF/latltFqtWXPqO0CQEhGEDhOGnPimE0P3IPNDz6gGj/ugRAgHHbkcVg5XsPs6FG47LdejiPW1vDqL27Fg01Vpz1v/xKuv2p/vPpzm3Hrtjb+5Lz9BCy850dTOJgRhCcdgPd+cwe+/MAcnn7kCH7nrBW47l8fxKZGD889aRyXHj2C2zY3sWW6h7/50ZRszWxn/jvHjeLUdRVkHnXuekmpG2FLDfzgNPJvDPmzFl7yqolNj593W9oGmUx8M4bJMxkxj3r7sXJF+6JrVCRleVxAafbcBIFcukF09FNq+O09NoPKdEPMGLuH4YMaXjOUVXakON6rcgaiwYTKfeFYdA4Hwss07IWsgCerckiS/Kx5FCMZkt9OC0FnM6IwOJ8YEx+ulEaKoUxnchuoEhEhluk1u+JJ+8/c1oKhcwEoTt/AjB9D8gIOGMVxAK0x01HSpouMyHwNWGR6OZqr5EFPIDlv/Lu0PHaKlNJrI6XTprxgQiRVGU/VFBhcMLxWsVJI5X2E61N6Ouj6lVRXChPeSJK8HiNMGr6NvyzCwRAirMTXEiqUxsHQKIpUYkhfjsHeHxwXz80qht94/OJJikwxTHz4k8gulGKoz2L6lS9GazenGJLvvYS3Sdxk6DToI7dv3e908+0vHQ2ooU1J40wWnQz2QSnjfCgjHSDQcNK4M09P45x2MPRPA5800PwuAW25qDyGpIcuHIRqXjx/nt8/JPTOvc6zCwQYjE74fAVOMQEA97wZEs3dSYr5LCpM9QqpMhCl3KR7yFw7UxZp407eJ5XyR1wLgPlmka8v0wW8MiMCs/WGOLzci0X7RSIITd2LuA66HVQrZfkbSY10IhhxsFLgYddqd/uYarDRX3x/4pyOFDO47767sflBrWIw20mAsPGEjcjmy9hZORIzj34O/vyqdXhwqoMbbtqJQ8byeMk5K/DNO+fwvfvncOR+RTz5UWN4z3/twH/cP4fx/92H3nThKoyUs/jZliaecMIY3vVfO/CJn9WxupzBB64+EP/4nR04aX0FG1YWcdNdDZRzGXzi9hlcckRNzpU587LDA04GGyslgYHZQykxdKqFonPvnED1tNQgzc22w1p1MyL63yi0LyqHzmBwQbEyQSsKnLFwSoNpLHnxIA00pFUeuL4GXHDzhcfFOLlys2FsfGOhq3JeevjfAAkNrLTBHrIyLIeeJtUrZxYSG4M49Km0fbCNS6LoXJi5LCojhbBNtMhIew/LmPNSAeINxEh0HCvvWTot0nAloig0rLNTbRX/cS2yBzZ4UdDTXguVMXaiHJwXSbs0upiltoGEKdNnRSMfeVeRMWhkxWgWcqiOFOVlbbANM4WzkmWZch43UgpXJQat85fRKgz3oUQzPCEkjei4VuaxOdVumrJRSIpA9Qn85WA8EYpMEaAwqhE2AvPHEoJIx1NIIYXquBzHxLuRpQKETLmMyuOuRGZ04RRD68YvoDe5c2AF744Iwnyb8/JnD2cG0gECQ/cS+UjxrO1qUgGQ0eqG5CFt4bNZiQok+4zwuyUSxUmQTgnuKiT2DlftktwFLC3qn1/2U5d7HxbR5LU5rrS0wuB99LGiVtAI6zx7M/dcphAK7BXiuAeyb7rxiPNDh8eFVix9Wm80BCiI4N0uRJSoheCaBQ++Z0GAbZvuxUMPPeiVxAfCPTjs6OORyZfQGj9amjUdWC3jcUfU8L0H5rBhRVHA15fva+LcA8q44tga7pvs4p9unsJOV5GwfymLk9eWUMxm8D/bWri73gNxYzWXwWmrirhle1vSNvtXSJYkKRS4r95DhRo23CfPuuJweX4MrzZmlXihG+gQwyikr7yElC13n2ZM+HNOXpBJTxNkoYs0TUDHzmfggps8DY61Y46vQfXYtLxtAbfEu6VUg60rN3bY92yBhEbCQ8pS09+kYqI6zIICUxgBSiJSAz2M/GwpCH6NxEi2g059FK6GPyzXS3kJVHOgJ2mY6lhBqhqSB0HBXL2tpZhCEk1EQeils6GUx8jn+QqlSDyAL1BzuoOGnEejETKVBGOSenedKCXS49QUbSAi8qQggc8vm9V+DElBLikprXdEv4EHyZjp3AGNToiqoigzDtkdXBVLTNY77av2+3mWlqUZ3B6SekEhjnLjdp0l+aVhAFXSWYzY5DJLbA3FpgAAHhRJREFUjiCEg1ho85L7GgLkEkJJ0Xs5f5njwzF7y7/d1RnYNzoIuzq6R8L3qoUAI5XCUIpRs9mWiAABEaMHu2LoeV+y3zVbwk9I6xmUvHdGGifnmKpJ34y4DyxGKMn5535GPnaPaW+z/Waxz0UiCPSCadLUOCiLPdy/7ab6JKNEaoXSdMeDeuIBEX46okz4e8EHej6CAlpQDT0PDtX4DVKulpK7lda/nZ6EmxmWFVs7P1F1OAHNXT61pa/7TO7P6QVIK+shXjNz3jTU3PwlvZJqrKP5EuJeotWvkQSFHMnGPpI/z2Nk3EVsZGU6FrCIT7mrhAJMaphFwEkiASqoZGMRSedyDrWxkmR/21SplFREHMBJpMZFckRGmqH+FBRuz4qyy/pMUmSHncUUACeVCvOg+b5qLjDKQQzhH/YcqH0hEQ5XhpuU/+Cz5JhjYliJsLGVGPZYIuIkni2qFEUZHHBN/DZsWmVS4vORN1z0LK2ixJ6TCE7N4+nRq7rw3CtwzVWLL3MMjXmxJG2Pg5lp/VOe4ldlBKwQ6lPCGujX2cZ4cNXurgiChG+DPtZ12ziyPYdar6uZp4XAy2J3sz3+/UDG3clmsDVfxE9KVezM5sAq+r1/LAOEheacMVmSIquO87bQ9/fE5+S1USSpGww3VIsFCHtinMPOmTnxnPUDjgzfWyVrRYqByROIP+R09UW7LpWerC9OGHqa5z2SngNZGonBmiiLJPAzghDmzKkpkFrfvwvvanJfUsCiP9SwsZIQfVEgrdQoCDFO7IJjuCfL6qTFLz1iJ32s5TiD4kLWAVEACNM0ifI8m29tp63h7aGEODfLvK5wADxyXWgorFuklGLOQ0z07ATnelDB0lWZEDBaWZ/ISkf3aBUpUm3g3gvRB3Q6FOFaSiGU2hoQcJIBOgQfRnJN2DDjy0jOX3pOpL+E/JnwGMgvESCTjrHtHApmBl8ZkVamJ9Dvi9chEtaJ73FtKIehjzxFnWTNDuo7MLLDduXSCE3AdTx9YQDsQlYxLAEgFE85HcVTz0DuwIOQW38I2j/4Lnr33o3+ls0o/8YzpNNjsG0revffi/pHPiQdC+H6IYRrZjdEEKpBH6c2Z3Feu4F1QQ8TTMXswju6NzfBRV3LFSaxaGwrMrglV8ZN5RruKpT2MkdhGSDsynOjS1UuAJViXkiXewOTcnfh3sRyUC3JnH/BP6IBAnsxiBG3GnshTWVE9peNbcxJsvBpgZ6HNCniZqyhxkgB0CbC6nH9hHjicboXLVT2sygDiW+ulJAbPnNIVvXgP90eQUKjI2MMUUjKitEoQ1Y27PkWh+WalLAXNyB671oxQZKmRFxcKmEAOIm3rfNSd7wM/ztW9kalw9GxksgWT29vpsoei+cuYXnlIkglgxfFkCslojGcz2aD3SCVjyDNmlwzqnlfjmEh9LBDptZ2Ks8hxdskscd5wz7XJHbvBAlOZyONTGjflbbXMu6c64CZ0iHUlCDZx4H5MiptuqiSnUerGqIx6zMTGBh7bDovUYpKgJFwPxxoBDVB+iJT7Yt0yfp0/yMAEhGlpPS4E55hG3I+Pz4XSkwn+SK8kkUyCCyslPOCs69YEkmxePIpGPuTNyJz4HptaDTXQPNj/4zeg/dj5HVvBUbHpG1ysGMbej++DTPXvxHdTQ/E5+VhAATez9peB1fXd+KMoIOxX4KqhV0xOMnvMOF1X5DF58oj+FZpdC+qKi4DhMU8L0YTaLqKfLf3EEqwXYX8D5ZySrniLkSXHtEA4aTzDg4Y2tU6z/iUc8Ojp86DGyG96Ex20DiQ8E2QYF7PfA9OAAGb5wxTh3aSzpWxAiokqaV4aNS+Zyi+MdMO2e7Ja9JblbIZV32ghLPBtIgBCDMbrDQg6Uxz4ioLTUNRHSmpN8zxOPa/tWQ2j1k8WM+JNfImr02PkwZidEVZPEojfvK6BC+zO1oSGaEFs3x1GvCUFscc1zwlPKJI6SoZ5kvnGHiw7oRpz00NuTIqLMSeFLgKZZrdCYxT4AMJI3X6eb4k0UkIhfS4E2JTYuidHgfvyyIKSaBCIFSuFOR5mehWOuFV9R40cDScXCDkxEJWVDJ9yfAY6HGllGQxc92kRXkUyGk0RaJFrpQyDhxdlVCV8rBKjGKK6LFnLQ0gVH/j6ag8/beRPeQwoD6L9n99BcHUTvRnZlC59gUIiiVkOh1gro7m5z6F2Rv+DwL+2zseTophTa+Da2e24tHoobCHNuTFGIg9+V2uIGokfLI0ihur4yJ1u+ePZYCw5+d471zhEQ0QTr9kw8AOKXloV3LHd5vAIAmEjDlPhrl5VUJkS9kMksDBDJhNf9SN0A9TQ4xpyelpc8Oc3dlSZrlTwLPfk4fAkhOVtY13ivQfMR8EPXZjsg8DdwRGNOjM2Q8jUZJ3QPa7lPSFOZSUBSVkwj7KNVfWmfyK4w3MTDZDDsiwZSmgRTQDgqjk0VIjDvy05lhmGHncysCPqjGE22DdGT3wxZSIX2LpA4OBIQsXQrtMDgMgIgHtSnbmsw+iRNjvhxUtw8SPBMD1A+3+OCRvrwRRJdmq1LVWiKQeNqi0aIiLFhlolnXT6oFzGxISWYVTyYt4lqXXBECxooeAoqsdHlVxdHAMvG9r9cyxVmqDxEyO+7zTLsNTLl98mWP+0MMw9vq3IfeoU4je0fuf2zD1yhcif9yJGHv7uyn0js5X/gOFcx6D+vVvQOPT/zowTUsFCOQb/NbsDlzcb2IBoee9swPvpatsDrL46+oEbi1W94KI0jJA2EuPdY9f5hENEE67OAIIzItqXfpgjSujDNxLTcs+Te2QYVbJlydzzSlG0fLB4psOk55l856S5mbVaxx8VmYAmRZhiDktDy35b27SjmwnpZkJXoARx6isZ0afJEGmAkJ+Qp99F2gouujRWwRZ9xnJMzPEHR5G5oyROJVfQQ4Dz0fj0JiluJByFuI355oYmxy1AwXJuxfiYSHnZEGl9jF1Y5JIipD3hktBS8UDiZYs2RtqWB0SslJVFz5PjosREOpckBsgnTTbPVG39J+zGkgvquP0AGh0fX0MuZQftWJqgeIrczTCTgFuiDiWRYcYkVAQNx8JRhcXn3laCacBFK5DiSyJvkX6+ViGyrLfiAqSVsmjc8lzaYOz9P4PSwEIfCfKl1+J6tN+G5kDDxKg1PvFz9C88d8RTE+i9po/0x4NO3cgmJpCUJ/B9Nvfgu5dd8Qe5VIAAu+KnIPnNSex3y8z12AJZoFP+QdBFu8Z2x/TC7Knl3CB+NNBJzeyC0TPdL7Nw7v68Kjbwzvvr+evCRC2broPOx7aFKVv6YAUS1h/+DEolspojR+JXxzzbHRTujnuyVnLbDx7XbDgWnbrQUq0KE3rDtninNGtVgvSTbFULYgaoaoaxjkIRiqT2nLmrJ2qoH1P92/Hmg8JkBrhZi4n+p6WNio4iO9CYgRdbwaLKKQSznpa+y4CPI5wlxaOpgFmWSe5Dso9GBSSCrtN0vhLc8R5XiCGtrMZNBuqwBU/9F7Cag4TPkp8TwSKhPym6pA8S7PRUqKjPZuQ+KYcBOGUOk0KUx8U/QkXVfEBnwIqJerZM9F/pN+XRmQgIIn3RsA0kBoSgp82tVLFzfTyVynxY2OXijPUwyIA/Yyktaz19LCCAp6PXny0LgZfp7A/hvTl0BSHcG1saTm+A8GBcl5UAZMRM0lhWS8I136cY4qvfa0+sb51IYnTnyQZo9dF0qWeHnPGUoSSMiie8ChkD1yH3i9+gv7kFPLHb0SmUET/wfuRWbUK/YceEgJj+5YfIb/+EPTuuxe97VsfNkAoBQGeN7sVj+m3hwaDMgQnfI86TF8OvgOZQl7xcnewA91CmyHvkcnmYC6uPb/Q7wSsuSZFC0qWz3OyepDBOyorcHNpT0cR5o8gcMXlMm1ksqq4Z4c6ZHl0g8XHdrKZDnIZppKXAcLC62kR3wgCtFpNtFrsERodTN1WazUp/S6uHsPomYcrMXovHpljTjsg4IaVlkZIs3MECAzx0kDRG66NFgfZ6UzT00Oe6bjuhJE61MC9SbtbzW9rjn844rVogS90Ezsf1fAk9N9HbbQkXp7/dlj1AcvlaEzp1QpXYUGBeNcR0UkCK4xxxEVWN1ivAZeuT96BlB7KmxmBC8sxW3ljFA6P6znwlKaOSKMlLH9h+CfJGcr4pwIg73OoyJMbnBL4tCRzGOlQ5lbSNsM1JpRvoOIq1dGCpmUSY9PSwq6E6MkdkR4TA3bBtXKWuXQgyUlJS9mjZ6zZGEnOochRIjBSZuqrULpz+JeR9eOVbWqVjjV+ib4phEESH908k1SYKiPtrlEqa8dPAsg0cRldo5pKoSCWArR53GsXweFXyEF46hKUFHfHHrKUCMLafgevmX4IG4YZkWwWtac9E73770fzW9+QUks72IGSqY/KxZcBrSbmvvqfCKgISv1sgtCRUfS5ibbjG2l4gnwB1Sc8GbnVa1H/v/+o6poECvz9PEd2bByl8x4Lqk/2Z2bRvPHzqdLTAUVxxJtyLzrJVwmgyyf8xUwe/zC2Zg9XNcwPEPKZNgqFVuoy47vT6ZbQDUq7vEx4vny+jWwKB22XT7L8xflnIN1flN9MHFLCMU9aIRVoe/MIAQJD9POV0nFQZmBLlQLKI+otJg9RV2TDJLa27Gm5V5oBomylaCK4c1jdfvx8rvmICQw5y5wUcuJ1GAlg6sCPMtCjrYyqUAaNB3PDTCEkiWTiiXsqj8MegN6/MuyVbxFFUJJAxdS+Uo2h+7KE9ft9ZOfpnhh6/SQ5MmoyRBlMUyROCyGlUyYvKfPUcjoCjoSppXoxM0o+P4LERmBer92nGP3EXHJo+UIeIyvY3YxSzn2JGnDe0yIGoqHlJLK1lfMwo6kgToDHkHvjuKwDqay5IQ/R0g78L8eUSip0EQfyCxhNYTpDSJ8J7oMBDnkuUtoUzW3s8iTlJspA056ljtkiDRJLwwVnX76kMsfdsYksBSCc0q7jJY2dGE8+ylwO+Q1HILdqFaq/+zz0fnw7Wt/+FoJGHe0f3ybzV736GuQPOwy5DUcS9aF75x3o3f0LND7zSVAZcuyPXo/elgdR/8cPoD81iezECmRHx9C9/17ZnApHH4vR174ZweQOoNlEdt3BmH7L69C57Zb5AcKqVSgedwLQamHkLe9E/c9fj7kv3xgz/kE+j+Cyx6N0+JESiWF77OattyDzza8imwAJ3+7n8J6JtagPbT+6W57O0BQD5zKfnUOhMBwYLQYkLIOD3fG8Ht45Jg4t4ZirVyK3twHCqRcdIr0YbHPuNOMtl8WwhIZHtzBi6Gw+h9GVZOTr5kcXeY4RA0mnx7dn7UoYKGFrvlpUFwHgAvfbGg9MrXUwFNb4/Ip01hxoWOMnARu5LMZXltBgty0vheJf18AAgY0AipS2zkaCFAPVV3CTzdHbT86HAgO1YhpqT4IePpOcWMUEZHL9Iezvw/QT5MyOZ8GcfRowsjNLioDhbXOOhhpXlh2ydp9yp8MbafFeKpWCcAT6nofon1a+U2OUJ4M+xye6EYNmnX+3kD1/UyoPcgQItOjlx67FKIPrrS640qSMJTUVjYSX7HZYvqh/Y4RBCYPxUJ5+ryccHI3QuPLRNEzD79LzdQTV+dIfQqgsWBfNwfu/4OzH42lL0EF4eNuR/nopAOHSxhR+pz2DSnLdUjdizVpkR0cx+qZ3oPmpjyHYvl24ElNv/lMxzmN/+lZ0fvQ9NP/ra1z8qF3zW8jttxqTb/xjBHNN8fDHXvM6zP3Hv6H9ra9j5AUvQ3b1Wky99pXIrlqD0Ve/DsHkdjQ++mEUNp6I8iVXYPLVL0O/MYvs+Apkki156czMziCYawhQLZ19HkZf9SeYesWL0LmDfIzoeQSlEkbf8R5Uzr9I1NlY8THzkQ9h7p1vRTbRt+PWfh5/Nb4KO/aouzd/BKGwAEAQKMqUWLeA/jyRBKYV8vnWwoJ0u2PBLZ9j6AzsM4Bw+mWHJqxXRsLAbHUp7WkTbXn9O9BWvvmhIj/2Xd18GS0Ycv9ewyMt8xsi9exq8i2ELWHlhG5ByEvwFB1lcxcD4gCOy93Xxil8pJ6rGA2qpLV7qE9pj3DzNmWzTHi3QlRjyN/limkQpLoixRpIIw9paGSfpxlX63cxj+FxURy2HCUnI1n3n5xdCcKzLLDtwu8pY4uVIgqJcTCdwOcs13LzJNEDEg8dJ8MMsJTBOkNsY7GKGC0b1edarhYlPZU01IHTLDBvPVntYufkeCyCIy2b52t1HShHQNfU/DsQ75HclmHVLbwXpkpoD+ZLS8mcG89iSPMzzgNTE1xDvJ5IXTtD40fBCBCuuXLxVQy7Y69dCkC4aG4K17ZmpLVz2pE94ECs+NO3YOZ9NyBTLKFy1ZMw/Zd/jqAxh+qTrkbnx7ejfdutyFarmHj/h9H8+IfR+PynQ28+UyBpOIvy+Reg+qxrMf2WP0XnZz9B4djjkV21WoJhtee8SHgWs29/M5pf/yqyY6MYeda1yLHk0zf6rRaa//5ZNL99E4onPgojL3uNAJfGv31GIhjJo7d6f4y99g0on3Ue6p/9JGb/8m3Iiwpl/LgZOdwwuho7H+EAQUatvp07kg8tUF73Au/NwL7jpf8e9jp0zuDw6OLDvsIvxQn2IUDYYP2TJL9mmyjFdlrNFJKQs21ma4xUltzsZe2lxHnFm3bGOCItxr8ohtm82jDqkL5K1XtULoH8LkUOWceiZXyUTJa0gxQTpJxTStrIT+ikjj+6LxcVcSWh8VVmQlEu5+2IhNYMKfquXd8vx1OA4Bs0SR84hUeTCOY56H3mcupR260MI0hyrlXoR/P2w76nkRKNkFBrQftcpM+9AQUa6KG8EPPeQ42DODDw502MJLsktlW6OQ1s6aamo5dG40OiHgpUohbNw3YB0YKQ6hf3DZdG8r9v0YN45U4EYg34akrNk8G2k9jydtoLTKdoK/DBeeU98xwEUOVKHueccimecOE1+MrLXoAnoosDaSD30pG5+DJUX/eWgU51Qvz8XzLipk2bcN1112HOIwSe1G5IimFlCgchW6mi9uzrkF9/KKaufwNK55wPCjpN3/AOBI0GhJzY6yFTrqB2zTNRPPs8TL3uVeht2aypKGrfj4yj8tRnoHjyqWh86AOOx6BqlNxYcmvWYPT3X41gchLT7/4LSWHIb0ulQV12PpdOB9kVKzH+1r9A6+tfxtwnPop+qzls80JvzVrkNp6E3ndvQs7kqxPP49tBDu8aX4u5fZRi4HB2JYKwu5eRplP3IIHRvdO7e9y/DOfbZwDhzMcdFqSiM7bBrLdBUSJlu1s1weB0csNgeaOG+9On272/QoZUA5C+mNRrV4M3XzdFXoUGRfoGMOog/boHry0EQadwR+PI9ADTCay2UGOj/zEhHlMgNCDg9yowPoHl09OqECyCYap4yRHx/HpOV8o4tDJAVRM5PCETDplYAWhU83PljsMWu3jv2agld7IHg/1OmlNJyimr3RtTKhKEGBj2cXCEw/C5RwvA5kCMoQMZKrkc5+jx+XD+/TQDb1f6LvgS1F4jrGi8Rmg0MaL01t/JeZEW1lRsTEkVhd/tZxz5cfj86zphpK0H6bI55AHIenZiWfM1Q1OAQF5KRkpFzznlMjz5smfg3ve8E5eccRoqlcpe28+6h2xA4YLLFgUQ9ut38UczD+HwhBAa8/YkJ+ZPPgWz73qH8BHKl16B3j13Yubv3hdGCApHHIXKE56C7Jo1qP/936Lz85/KpsL0Qu2Zv4vchsPQvfsOND/7KXTuvjPiCeTyKJ12OipXPhm9h7Zg9u//BsHszC7NVfnCSzHy6teh/YXPojczjc6tN6P9/e8M3cz4jIc51Yw7fDZbxr+M7IfuQiGrXRrd0Dd63jLHvQkQjP/0sG5nET/WvWyRYY1FnP+R+NWIpLh37zvs5uhPinj2Qh7WsDlllwe0CqRuXT3dYoWhdpWR7bTjW6Tq+UM2O8H4bCnZg2gA+MZYcrFOYTD5XvmdF5X9r15a0miSH0DGu30mhLwUlj4JieP7lcWo9sUwpWssGIDg+QiUhvVCUJlejV5oKD59iVnInBr8ovufFu0QQ8LSSmdFnZR10qCbdyzkPjuP61DoXz2s/PD6AUjUpdmRKhM/nJ1sA83zWN6f5XwqjmXSxSn36KQfyXTm3EoVyTCD6apXBkoCE9838CAEwHneXO17sEAJkGsZzvXD50WyrXBJBiOryrNwKSHrSTJg/oUYSqqB02OQSgUVsgoBjFVOJHstuHchjCK4SJRUQXivEKWWr3nSs5FtziFHMbC9uHtVR8dx6FFHLQogFIMAvzO7HZf2Wsj54DebQ/6AA8UABzMz4rWz3LE/PaVevjty+x+I7MQ4uvfdh6A+G81jvoDMigmg3RE1SL/6gV/iucrnPga9bdskTRF02rs8U5lKFdmJCUWYjE7V6zKupRxTAXB9dT/8tFjZw2JJD5+DsJT7S/5G1VXnezN3x1UGz7G3QIJGb51z7Jq77Zk7mv+slbUlHHD2inm7H++JcYUAQTyXdrrh5YYqzZHEU1fPhhtrmspgt6UdAgkEKgQFRHpDiFwkfDHsTf2EYWDbNlAx5ClNj2KTIp6cXn9YuZnk0ws5UTZkiFqNfrrflwQmLNOLQIkaI9WQ8DgTGddpMqyNVw+bKYtkH3OVgmY1BA0Wm0EZB2DwUZNDYRoUFqIetiAI7njwfKlpFH4opLu+8i0WWFlG3LMmROlfJ/DTKIASEAvzeue8Z3re7KmRBvaS5EG5puQ2409LOji6MsNwXEkp49D4Dua9OFZyIiRd3NfW08O4JMKnED0qTdzOB1mknTkB70J1y0N6eti9GEDYEy//QuccHR3F4YcfviiAwHNubDfwovoO7L93S7YXup09/jlfu28gjw+MrUFjj6YXdM+ZTyhpb0QQFhM5oAupgejdl4LYYyAh5MSxvvqRsYjLayaw8pyjkZU+9wsdritz8mtihxfnYmROueDQQEu+hhhJZ7k1pMMQ/ZBruM1VIg2iAqXGLnlwgyW3QULtVKUTLfv4TZtRk7SBR5KhgZKUhzdUyjQrWz+++MJN3jVrYj6X40kjoWnnRT2pDwoGxi6EP205rIS7eTxk6u5LC2jVJUibXU5poZxH2QkMDXt20n+AuflWD6XKcM+c90Egx0dA8FGuFVwviuhOLF3EqBArEoSPwGeXKPmTtBFTDNIpMSLuSUMiaQSldyRSyQQGA30ulMRZrkZVB5IwSaN90OtmmsH1kCBwGR6t0Xux6NW8Blg6K1qly3AYxHuQ/hYuIjbs9dMOnwuPjRGqsFfGkGcvGEPGpvEGI3AyDWFzxL899qzLccoJ5+IjH/nYUCC70Hax1M/POussvOIVL180QCgiwJX1STy100D510RUh8/w3j5ww+gq3J0v70YzOOzp7XuAQIdgoYNOGCum5bXnu5ABelqtvFvWc7Lb7ELjWehz5XpJnd6ijanYD9oF0VFRAruU86sih5L++72FHd2UQZbXTmDl2ccMdzgCoJTNY0V5BIes2h+FbB6j1ZrYz3ang06vhwd3bsWW6Z2Y6c7Jc9iVI3PcGQcFIlPsNf8JDbQrfQuNNI1BgozA2nNawLQacRoz5rJplAgKSNJjQxunbxOOT1nyqp9vTX2GDV7U7FoqK2xRgjTjqxsuu07mo26QKSeVFr7/f3FXzxIxEETnuAQPEbU4MaAiWIiVlZjO6gpr/+T9Bv+AcK129tYnqKAxCfLezHhZzk0ufmB9YXdvJmHezrx581ryTOjIWIr5dsMrwJZnCaViINGbf2jlRXbBg6fX0Re42clzUApUiV1bwwK1M0ZdPAoBHy18hD9GcsPeDN6Qv0b5g6qV2oERgCfOpRjKOodeYUw2RidbcP/CaABvCPTOPYiRE7kXbGGdIVF+hKkb+8jqGJ6iD7CWcRFigMqxImykJR3tAlgqSSGtzy4WtS2BJUWkQuIjBZco0tXgTaD0A780wC25LhHNBH+l6NfPdtHI12eMcXShNFUvw9dSzw09CZzhIr+U/Z1jSdI9GY934xmhVb72ns9k2abk5/1KDL7Fdl3J1ctcJvWb/HWyveff+vXHESYfapHpaEtmo40fD2uKZv2Ck/8vQFCyczwbgDCp4EARMsMmkTDa3QdSohC3YpDqclhnlq5rAftdwcH3swZpkshakrJE3OZD6sNUpRTvRYuwWnjoNoAwrAdydngik9NcjrIDSZAOte4PbQhQP+ESOH9+ktn9rVzf3chjgfbeduN8AJzOQ+PBDNpBAAAAAElFTkSuQmCC;" vertex="1" parent="1">
                    <mxGeometry x="10" y="10" width="520" height="348" as="geometry"/>
                </mxCell>
                <mxCell id="3" value="" style="whiteSpace=wrap;html=1;fillColor=none;strokeColor=#FF0000;strokeWidth=4;" vertex="1" parent="1">
                    <mxGeometry x="240" y="320" width="40" height="40" as="geometry"/>
                </mxCell>
                <mxCell id="4" value="" style="whiteSpace=wrap;html=1;fillColor=none;strokeColor=#FF0000;strokeWidth=4;" vertex="1" parent="1">
                    <mxGeometry x="280" y="290" width="80" height="40" as="geometry"/>
                </mxCell>
            </root>
        </mxGraphModel>
    </diagram>
</mxfile>